G04 #@! TF.GenerationSoftware,KiCad,Pcbnew,(5.0.1-dev-70-gb7b125d83)*
G04 #@! TF.CreationDate,2018-10-13T00:28:44+02:00*
G04 #@! TF.ProjectId,pwm-fan-control,70776D2D66616E2D636F6E74726F6C2E,rev?*
G04 #@! TF.SameCoordinates,Original*
G04 #@! TF.FileFunction,Legend,Bot*
G04 #@! TF.FilePolarity,Positive*
%FSLAX46Y46*%
G04 Gerber Fmt 4.6, Leading zero omitted, Abs format (unit mm)*
G04 Created by KiCad (PCBNEW (5.0.1-dev-70-gb7b125d83)) date 10/13/18 00:28:44*
%MOMM*%
%LPD*%
G01*
G04 APERTURE LIST*
%ADD10C,0.200000*%
%ADD11C,0.300000*%
G04 APERTURE END LIST*
D10*
X212430000Y-60271428D02*
X211668095Y-60271428D01*
X212049047Y-60652380D02*
X212049047Y-59890476D01*
X213144285Y-58052380D02*
X213144285Y-57052380D01*
X212763333Y-57052380D01*
X212668095Y-57100000D01*
X212620476Y-57147619D01*
X212572857Y-57242857D01*
X212572857Y-57385714D01*
X212620476Y-57480952D01*
X212668095Y-57528571D01*
X212763333Y-57576190D01*
X213144285Y-57576190D01*
X211953809Y-57052380D02*
X211858571Y-57052380D01*
X211763333Y-57100000D01*
X211715714Y-57147619D01*
X211668095Y-57242857D01*
X211620476Y-57433333D01*
X211620476Y-57671428D01*
X211668095Y-57861904D01*
X211715714Y-57957142D01*
X211763333Y-58004761D01*
X211858571Y-58052380D01*
X211953809Y-58052380D01*
X212049047Y-58004761D01*
X212096666Y-57957142D01*
X212144285Y-57861904D01*
X212191904Y-57671428D01*
X212191904Y-57433333D01*
X212144285Y-57242857D01*
X212096666Y-57147619D01*
X212049047Y-57100000D01*
X211953809Y-57052380D01*
X213144285Y-55452380D02*
X213144285Y-54452380D01*
X212763333Y-54452380D01*
X212668095Y-54500000D01*
X212620476Y-54547619D01*
X212572857Y-54642857D01*
X212572857Y-54785714D01*
X212620476Y-54880952D01*
X212668095Y-54928571D01*
X212763333Y-54976190D01*
X213144285Y-54976190D01*
X211620476Y-55452380D02*
X212191904Y-55452380D01*
X211906190Y-55452380D02*
X211906190Y-54452380D01*
X212001428Y-54595238D01*
X212096666Y-54690476D01*
X212191904Y-54738095D01*
X212430000Y-52571428D02*
X211668095Y-52571428D01*
D11*
X239007142Y-61078571D02*
X239007142Y-62292857D01*
X239078571Y-62435714D01*
X239150000Y-62507142D01*
X239292857Y-62578571D01*
X239507142Y-62578571D01*
X239650000Y-62507142D01*
X239007142Y-62007142D02*
X239150000Y-62078571D01*
X239435714Y-62078571D01*
X239578571Y-62007142D01*
X239650000Y-61935714D01*
X239721428Y-61792857D01*
X239721428Y-61364285D01*
X239650000Y-61221428D01*
X239578571Y-61150000D01*
X239435714Y-61078571D01*
X239150000Y-61078571D01*
X239007142Y-61150000D01*
X238292857Y-62078571D02*
X238292857Y-61078571D01*
X238292857Y-60578571D02*
X238364285Y-60650000D01*
X238292857Y-60721428D01*
X238221428Y-60650000D01*
X238292857Y-60578571D01*
X238292857Y-60721428D01*
X237792857Y-61078571D02*
X237221428Y-61078571D01*
X237578571Y-60578571D02*
X237578571Y-61864285D01*
X237507142Y-62007142D01*
X237364285Y-62078571D01*
X237221428Y-62078571D01*
X236721428Y-61935714D02*
X236650000Y-62007142D01*
X236721428Y-62078571D01*
X236792857Y-62007142D01*
X236721428Y-61935714D01*
X236721428Y-62078571D01*
X236007142Y-62078571D02*
X236007142Y-61078571D01*
X236007142Y-60578571D02*
X236078571Y-60650000D01*
X236007142Y-60721428D01*
X235935714Y-60650000D01*
X236007142Y-60578571D01*
X236007142Y-60721428D01*
X235078571Y-62078571D02*
X235221428Y-62007142D01*
X235292857Y-61935714D01*
X235364285Y-61792857D01*
X235364285Y-61364285D01*
X235292857Y-61221428D01*
X235221428Y-61150000D01*
X235078571Y-61078571D01*
X234864285Y-61078571D01*
X234721428Y-61150000D01*
X234650000Y-61221428D01*
X234578571Y-61364285D01*
X234578571Y-61792857D01*
X234650000Y-61935714D01*
X234721428Y-62007142D01*
X234864285Y-62078571D01*
X235078571Y-62078571D01*
X232864285Y-60507142D02*
X234150000Y-62435714D01*
X232364285Y-61078571D02*
X232364285Y-62578571D01*
X232364285Y-61150000D02*
X232221428Y-61078571D01*
X231935714Y-61078571D01*
X231792857Y-61150000D01*
X231721428Y-61221428D01*
X231650000Y-61364285D01*
X231650000Y-61792857D01*
X231721428Y-61935714D01*
X231792857Y-62007142D01*
X231935714Y-62078571D01*
X232221428Y-62078571D01*
X232364285Y-62007142D01*
X231150000Y-61078571D02*
X230864285Y-62078571D01*
X230578571Y-61364285D01*
X230292857Y-62078571D01*
X230007142Y-61078571D01*
X229435714Y-62078571D02*
X229435714Y-61078571D01*
X229435714Y-61221428D02*
X229364285Y-61150000D01*
X229221428Y-61078571D01*
X229007142Y-61078571D01*
X228864285Y-61150000D01*
X228792857Y-61292857D01*
X228792857Y-62078571D01*
X228792857Y-61292857D02*
X228721428Y-61150000D01*
X228578571Y-61078571D01*
X228364285Y-61078571D01*
X228221428Y-61150000D01*
X228150000Y-61292857D01*
X228150000Y-62078571D01*
X227507142Y-60721428D02*
X227435714Y-60650000D01*
X227292857Y-60578571D01*
X226935714Y-60578571D01*
X226792857Y-60650000D01*
X226721428Y-60721428D01*
X226650000Y-60864285D01*
X226650000Y-61007142D01*
X226721428Y-61221428D01*
X227578571Y-62078571D01*
X226650000Y-62078571D01*
X226221428Y-61078571D02*
X225650000Y-61078571D01*
X226007142Y-62078571D02*
X226007142Y-60792857D01*
X225935714Y-60650000D01*
X225792857Y-60578571D01*
X225650000Y-60578571D01*
X224507142Y-62078571D02*
X224507142Y-61292857D01*
X224578571Y-61150000D01*
X224721428Y-61078571D01*
X225007142Y-61078571D01*
X225150000Y-61150000D01*
X224507142Y-62007142D02*
X224650000Y-62078571D01*
X225007142Y-62078571D01*
X225150000Y-62007142D01*
X225221428Y-61864285D01*
X225221428Y-61721428D01*
X225150000Y-61578571D01*
X225007142Y-61507142D01*
X224650000Y-61507142D01*
X224507142Y-61435714D01*
X223792857Y-61078571D02*
X223792857Y-62078571D01*
X223792857Y-61221428D02*
X223721428Y-61150000D01*
X223578571Y-61078571D01*
X223364285Y-61078571D01*
X223221428Y-61150000D01*
X223150000Y-61292857D01*
X223150000Y-62078571D01*
M02*
