G04 #@! TF.GenerationSoftware,KiCad,Pcbnew,(5.0.1-dev-70-gb7b125d83)*
G04 #@! TF.CreationDate,2018-10-12T16:43:48+02:00*
G04 #@! TF.ProjectId,pwm-fan-control,70776D2D66616E2D636F6E74726F6C2E,rev?*
G04 #@! TF.SameCoordinates,Original*
G04 #@! TF.FileFunction,Soldermask,Bot*
G04 #@! TF.FilePolarity,Negative*
%FSLAX46Y46*%
G04 Gerber Fmt 4.6, Leading zero omitted, Abs format (unit mm)*
G04 Created by KiCad (PCBNEW (5.0.1-dev-70-gb7b125d83)) date 10/12/18 16:43:48*
%MOMM*%
%LPD*%
G01*
G04 APERTURE LIST*
%ADD10C,0.010000*%
%ADD11O,2.100000X2.100000*%
%ADD12R,2.100000X2.100000*%
G04 APERTURE END LIST*
D10*
G04 #@! TO.C,G\002A\002A\002A*
G36*
X137694854Y-55588184D02*
X137619541Y-55684808D01*
X137611496Y-55710769D01*
X137614526Y-55840367D01*
X137680220Y-55927620D01*
X137783408Y-55958764D01*
X137898924Y-55920034D01*
X137936520Y-55888520D01*
X138002483Y-55784476D01*
X137979251Y-55683922D01*
X137920037Y-55617722D01*
X137804787Y-55562877D01*
X137694854Y-55588184D01*
X137694854Y-55588184D01*
G37*
X137694854Y-55588184D02*
X137619541Y-55684808D01*
X137611496Y-55710769D01*
X137614526Y-55840367D01*
X137680220Y-55927620D01*
X137783408Y-55958764D01*
X137898924Y-55920034D01*
X137936520Y-55888520D01*
X138002483Y-55784476D01*
X137979251Y-55683922D01*
X137920037Y-55617722D01*
X137804787Y-55562877D01*
X137694854Y-55588184D01*
G36*
X138312270Y-55581303D02*
X138229655Y-55662655D01*
X138193818Y-55749414D01*
X138228901Y-55827681D01*
X138308597Y-55909657D01*
X138394575Y-55958412D01*
X138413520Y-55961091D01*
X138484278Y-55931297D01*
X138536883Y-55888520D01*
X138595767Y-55803484D01*
X138609455Y-55753273D01*
X138572704Y-55662276D01*
X138489088Y-55579707D01*
X138401636Y-55545455D01*
X138312270Y-55581303D01*
X138312270Y-55581303D01*
G37*
X138312270Y-55581303D02*
X138229655Y-55662655D01*
X138193818Y-55749414D01*
X138228901Y-55827681D01*
X138308597Y-55909657D01*
X138394575Y-55958412D01*
X138413520Y-55961091D01*
X138484278Y-55931297D01*
X138536883Y-55888520D01*
X138595767Y-55803484D01*
X138609455Y-55753273D01*
X138572704Y-55662276D01*
X138489088Y-55579707D01*
X138401636Y-55545455D01*
X138312270Y-55581303D01*
G36*
X134156989Y-54191496D02*
X134096086Y-54205591D01*
X133626257Y-54351845D01*
X133230235Y-54547000D01*
X132910151Y-54789588D01*
X132668132Y-55078144D01*
X132568000Y-55258188D01*
X132515524Y-55377484D01*
X132480389Y-55485099D01*
X132459202Y-55604241D01*
X132448570Y-55758117D01*
X132445099Y-55969935D01*
X132444982Y-56099636D01*
X132454454Y-56449798D01*
X132488111Y-56735411D01*
X132555426Y-56975319D01*
X132665876Y-57188362D01*
X132828934Y-57393382D01*
X133054076Y-57609220D01*
X133312029Y-57823827D01*
X133556782Y-58058631D01*
X133714112Y-58303870D01*
X133788918Y-58567257D01*
X133790014Y-58576155D01*
X133799641Y-58729249D01*
X133779811Y-58820909D01*
X133742520Y-58866191D01*
X133675275Y-58943515D01*
X133695521Y-58991244D01*
X133803249Y-59009362D01*
X133818091Y-59009542D01*
X133944398Y-59029554D01*
X134107900Y-59080471D01*
X134215222Y-59124997D01*
X134348888Y-59186347D01*
X134443384Y-59228069D01*
X134474363Y-59240000D01*
X134475734Y-59200950D01*
X134463027Y-59117394D01*
X134439589Y-58994787D01*
X134700340Y-59025433D01*
X134865304Y-59034265D01*
X134948487Y-59015498D01*
X134954446Y-58974356D01*
X134887734Y-58916061D01*
X134752907Y-58845838D01*
X134554520Y-58768911D01*
X134445794Y-58733520D01*
X134288202Y-58676131D01*
X134168274Y-58616229D01*
X134111709Y-58566678D01*
X134111525Y-58566213D01*
X134095108Y-58478932D01*
X134085086Y-58339865D01*
X134083636Y-58262852D01*
X134093555Y-58106649D01*
X134134162Y-57998210D01*
X134221737Y-57894068D01*
X134221740Y-57894065D01*
X134366392Y-57791849D01*
X134500990Y-57775401D01*
X134618344Y-57838172D01*
X134711266Y-57973611D01*
X134772566Y-58175167D01*
X134794898Y-58416332D01*
X134798559Y-58685818D01*
X134953660Y-58685818D01*
X135094774Y-58713617D01*
X135223172Y-58808903D01*
X135242744Y-58829248D01*
X135376727Y-58972677D01*
X135376727Y-58826136D01*
X135384426Y-58727350D01*
X135420600Y-58698784D01*
X135480636Y-58711105D01*
X135592432Y-58766166D01*
X135688455Y-58837722D01*
X135760622Y-58897855D01*
X135788403Y-58895019D01*
X135792364Y-58852469D01*
X135749420Y-58677077D01*
X135623903Y-58536011D01*
X135420781Y-58434149D01*
X135342852Y-58411299D01*
X135246738Y-58384124D01*
X135182252Y-58348918D01*
X135139430Y-58287265D01*
X135108308Y-58180752D01*
X135078921Y-58010963D01*
X135060792Y-57890033D01*
X135042043Y-57737162D01*
X135045242Y-57652143D01*
X135073089Y-57612491D01*
X135095216Y-57603206D01*
X135161859Y-57588502D01*
X135304258Y-57560539D01*
X135507224Y-57522182D01*
X135755568Y-57476296D01*
X136034100Y-57425747D01*
X136071771Y-57418976D01*
X136591349Y-57319709D01*
X137026821Y-57222470D01*
X137386301Y-57124140D01*
X137677903Y-57021599D01*
X137909741Y-56911731D01*
X138089930Y-56791417D01*
X138226582Y-56657537D01*
X138293882Y-56564965D01*
X138368833Y-56431654D01*
X138416174Y-56318365D01*
X138424727Y-56275322D01*
X138452537Y-56212213D01*
X138547987Y-56192090D01*
X138558489Y-56192000D01*
X138707096Y-56149485D01*
X138838003Y-56036604D01*
X138933998Y-55875353D01*
X138962521Y-55753375D01*
X138912775Y-55753375D01*
X138851784Y-55915547D01*
X138745652Y-56041435D01*
X138610641Y-56119120D01*
X138463014Y-56136681D01*
X138319032Y-56082198D01*
X138267814Y-56039285D01*
X138183454Y-55944044D01*
X138131368Y-55866103D01*
X138101317Y-55822547D01*
X138071541Y-55866103D01*
X137974574Y-56002420D01*
X137837240Y-56104253D01*
X137694725Y-56145774D01*
X137690493Y-56145818D01*
X137523785Y-56106865D01*
X137397287Y-56003860D01*
X137314681Y-55857587D01*
X137279650Y-55688829D01*
X137295880Y-55518371D01*
X137367052Y-55366994D01*
X137496852Y-55255483D01*
X137529929Y-55239895D01*
X137705157Y-55204103D01*
X137862821Y-55254954D01*
X138009293Y-55391915D01*
X138086846Y-55469664D01*
X138131099Y-55472102D01*
X138134455Y-55465254D01*
X138229802Y-55319827D01*
X138378013Y-55217867D01*
X138450958Y-55195138D01*
X138601492Y-55208976D01*
X138745876Y-55293086D01*
X138859101Y-55427321D01*
X138912363Y-55566840D01*
X138912775Y-55753375D01*
X138962521Y-55753375D01*
X138977872Y-55687729D01*
X138978909Y-55654684D01*
X138967082Y-55506818D01*
X138918241Y-55396687D01*
X138821891Y-55286836D01*
X138690815Y-55178466D01*
X138565559Y-55133887D01*
X138501344Y-55129818D01*
X138383939Y-55142733D01*
X138311244Y-55174367D01*
X138306932Y-55179787D01*
X138255140Y-55187523D01*
X138162694Y-55121514D01*
X138154116Y-55113452D01*
X138044400Y-55023816D01*
X137922919Y-54962351D01*
X137769912Y-54924250D01*
X137565617Y-54904709D01*
X137290272Y-54898924D01*
X137271751Y-54898909D01*
X136771334Y-54898909D01*
X136501212Y-54696889D01*
X136063436Y-54417081D01*
X135616510Y-54227942D01*
X135154049Y-54128168D01*
X134669671Y-54116453D01*
X134156989Y-54191496D01*
X134156989Y-54191496D01*
G37*
X134156989Y-54191496D02*
X134096086Y-54205591D01*
X133626257Y-54351845D01*
X133230235Y-54547000D01*
X132910151Y-54789588D01*
X132668132Y-55078144D01*
X132568000Y-55258188D01*
X132515524Y-55377484D01*
X132480389Y-55485099D01*
X132459202Y-55604241D01*
X132448570Y-55758117D01*
X132445099Y-55969935D01*
X132444982Y-56099636D01*
X132454454Y-56449798D01*
X132488111Y-56735411D01*
X132555426Y-56975319D01*
X132665876Y-57188362D01*
X132828934Y-57393382D01*
X133054076Y-57609220D01*
X133312029Y-57823827D01*
X133556782Y-58058631D01*
X133714112Y-58303870D01*
X133788918Y-58567257D01*
X133790014Y-58576155D01*
X133799641Y-58729249D01*
X133779811Y-58820909D01*
X133742520Y-58866191D01*
X133675275Y-58943515D01*
X133695521Y-58991244D01*
X133803249Y-59009362D01*
X133818091Y-59009542D01*
X133944398Y-59029554D01*
X134107900Y-59080471D01*
X134215222Y-59124997D01*
X134348888Y-59186347D01*
X134443384Y-59228069D01*
X134474363Y-59240000D01*
X134475734Y-59200950D01*
X134463027Y-59117394D01*
X134439589Y-58994787D01*
X134700340Y-59025433D01*
X134865304Y-59034265D01*
X134948487Y-59015498D01*
X134954446Y-58974356D01*
X134887734Y-58916061D01*
X134752907Y-58845838D01*
X134554520Y-58768911D01*
X134445794Y-58733520D01*
X134288202Y-58676131D01*
X134168274Y-58616229D01*
X134111709Y-58566678D01*
X134111525Y-58566213D01*
X134095108Y-58478932D01*
X134085086Y-58339865D01*
X134083636Y-58262852D01*
X134093555Y-58106649D01*
X134134162Y-57998210D01*
X134221737Y-57894068D01*
X134221740Y-57894065D01*
X134366392Y-57791849D01*
X134500990Y-57775401D01*
X134618344Y-57838172D01*
X134711266Y-57973611D01*
X134772566Y-58175167D01*
X134794898Y-58416332D01*
X134798559Y-58685818D01*
X134953660Y-58685818D01*
X135094774Y-58713617D01*
X135223172Y-58808903D01*
X135242744Y-58829248D01*
X135376727Y-58972677D01*
X135376727Y-58826136D01*
X135384426Y-58727350D01*
X135420600Y-58698784D01*
X135480636Y-58711105D01*
X135592432Y-58766166D01*
X135688455Y-58837722D01*
X135760622Y-58897855D01*
X135788403Y-58895019D01*
X135792364Y-58852469D01*
X135749420Y-58677077D01*
X135623903Y-58536011D01*
X135420781Y-58434149D01*
X135342852Y-58411299D01*
X135246738Y-58384124D01*
X135182252Y-58348918D01*
X135139430Y-58287265D01*
X135108308Y-58180752D01*
X135078921Y-58010963D01*
X135060792Y-57890033D01*
X135042043Y-57737162D01*
X135045242Y-57652143D01*
X135073089Y-57612491D01*
X135095216Y-57603206D01*
X135161859Y-57588502D01*
X135304258Y-57560539D01*
X135507224Y-57522182D01*
X135755568Y-57476296D01*
X136034100Y-57425747D01*
X136071771Y-57418976D01*
X136591349Y-57319709D01*
X137026821Y-57222470D01*
X137386301Y-57124140D01*
X137677903Y-57021599D01*
X137909741Y-56911731D01*
X138089930Y-56791417D01*
X138226582Y-56657537D01*
X138293882Y-56564965D01*
X138368833Y-56431654D01*
X138416174Y-56318365D01*
X138424727Y-56275322D01*
X138452537Y-56212213D01*
X138547987Y-56192090D01*
X138558489Y-56192000D01*
X138707096Y-56149485D01*
X138838003Y-56036604D01*
X138933998Y-55875353D01*
X138962521Y-55753375D01*
X138912775Y-55753375D01*
X138851784Y-55915547D01*
X138745652Y-56041435D01*
X138610641Y-56119120D01*
X138463014Y-56136681D01*
X138319032Y-56082198D01*
X138267814Y-56039285D01*
X138183454Y-55944044D01*
X138131368Y-55866103D01*
X138101317Y-55822547D01*
X138071541Y-55866103D01*
X137974574Y-56002420D01*
X137837240Y-56104253D01*
X137694725Y-56145774D01*
X137690493Y-56145818D01*
X137523785Y-56106865D01*
X137397287Y-56003860D01*
X137314681Y-55857587D01*
X137279650Y-55688829D01*
X137295880Y-55518371D01*
X137367052Y-55366994D01*
X137496852Y-55255483D01*
X137529929Y-55239895D01*
X137705157Y-55204103D01*
X137862821Y-55254954D01*
X138009293Y-55391915D01*
X138086846Y-55469664D01*
X138131099Y-55472102D01*
X138134455Y-55465254D01*
X138229802Y-55319827D01*
X138378013Y-55217867D01*
X138450958Y-55195138D01*
X138601492Y-55208976D01*
X138745876Y-55293086D01*
X138859101Y-55427321D01*
X138912363Y-55566840D01*
X138912775Y-55753375D01*
X138962521Y-55753375D01*
X138977872Y-55687729D01*
X138978909Y-55654684D01*
X138967082Y-55506818D01*
X138918241Y-55396687D01*
X138821891Y-55286836D01*
X138690815Y-55178466D01*
X138565559Y-55133887D01*
X138501344Y-55129818D01*
X138383939Y-55142733D01*
X138311244Y-55174367D01*
X138306932Y-55179787D01*
X138255140Y-55187523D01*
X138162694Y-55121514D01*
X138154116Y-55113452D01*
X138044400Y-55023816D01*
X137922919Y-54962351D01*
X137769912Y-54924250D01*
X137565617Y-54904709D01*
X137290272Y-54898924D01*
X137271751Y-54898909D01*
X136771334Y-54898909D01*
X136501212Y-54696889D01*
X136063436Y-54417081D01*
X135616510Y-54227942D01*
X135154049Y-54128168D01*
X134669671Y-54116453D01*
X134156989Y-54191496D01*
G04 #@! TD*
D11*
G04 #@! TO.C,J4*
X145510000Y-58850000D03*
D12*
X148050000Y-58850000D03*
G04 #@! TD*
G04 #@! TO.C,J1*
X156400000Y-58850000D03*
D11*
X153860000Y-58850000D03*
G04 #@! TD*
D12*
G04 #@! TO.C,J2*
X132650000Y-42500000D03*
D11*
X132650000Y-45040000D03*
X132650000Y-47580000D03*
X132650000Y-50120000D03*
G04 #@! TD*
M02*
