M48
;DRILL file {KiCad (5.0.1-dev-70-gb7b125d83)} date 10/13/18 00:28:46
;FORMAT={2:4/ absolute / inch / suppress leading zeros}
FMAT,2
INCH,TZ
T1C0.0157
T2C0.0394
T3C0.0402
T4C0.1260
%
G90
G05
M72
T1
X83268Y-22244
X83346Y-23189
X83583Y-19134
X83691Y-22087
X84291Y-20748
X85512Y-22677
X86654Y-21142
X87402Y-22953
X87835Y-17953
X88150Y-20669
X88504Y-20669
X88858Y-20669
X89724Y-18189
X89724Y-18583
X89724Y-18976
X89724Y-19370
X89724Y-19764
X89724Y-21614
X89724Y-22008
X89724Y-22402
X89724Y-22795
X89724Y-23189
X90118Y-18189
X90118Y-18583
X90118Y-18976
X90118Y-19370
X90118Y-19764
X90118Y-21614
X90118Y-22008
X90118Y-22402
X90118Y-22795
X90118Y-23189
X90512Y-18189
X90512Y-18583
X90512Y-18976
X90512Y-19370
X90512Y-19764
X90512Y-21614
X90512Y-22008
X90512Y-22402
X90512Y-22795
X90512Y-23189
X90906Y-18189
X90906Y-18583
X90906Y-18976
X90906Y-19370
X90906Y-19764
X90906Y-21614
X90906Y-22008
X90906Y-22402
X90906Y-22795
X90906Y-23189
X91299Y-18189
X91299Y-18583
X91299Y-18976
X91299Y-19370
X91299Y-19764
X91299Y-21614
X91299Y-22008
X91299Y-22402
X91299Y-22795
X91299Y-23189
X94055Y-19606
X94055Y-20472
X94567Y-19606
X94567Y-20472
X94921Y-17756
X95787Y-17756
X96024Y-19606
X96024Y-20472
X96024Y-22362
X96654Y-19606
X96654Y-20472
X96654Y-22362
T2
X82559Y-20669
X82559Y-21669
X82559Y-22669
X82559Y-23669
T3
X94291Y-21260
X95291Y-21260
X96291Y-21260
X94291Y-18504
X95291Y-18504
X96291Y-18504
T4
X95866Y-24016
T0
M30
