G04 #@! TF.GenerationSoftware,KiCad,Pcbnew,(5.0.1-dev-70-gb7b125d83)*
G04 #@! TF.CreationDate,2018-10-12T17:49:15+02:00*
G04 #@! TF.ProjectId,pwm-fan-control,70776D2D66616E2D636F6E74726F6C2E,rev?*
G04 #@! TF.SameCoordinates,Original*
G04 #@! TF.FileFunction,Legend,Top*
G04 #@! TF.FilePolarity,Positive*
%FSLAX46Y46*%
G04 Gerber Fmt 4.6, Leading zero omitted, Abs format (unit mm)*
G04 Created by KiCad (PCBNEW (5.0.1-dev-70-gb7b125d83)) date 10/12/18 17:49:15*
%MOMM*%
%LPD*%
G01*
G04 APERTURE LIST*
%ADD10C,0.300000*%
%ADD11C,0.200000*%
%ADD12C,0.120000*%
%ADD13C,0.150000*%
G04 APERTURE END LIST*
D10*
X134178571Y-50157142D02*
X135321428Y-50157142D01*
X134750000Y-50728571D02*
X134750000Y-49585714D01*
D11*
X135202380Y-48338095D02*
X134202380Y-48338095D01*
X134202380Y-47957142D01*
X134250000Y-47861904D01*
X134297619Y-47814285D01*
X134392857Y-47766666D01*
X134535714Y-47766666D01*
X134630952Y-47814285D01*
X134678571Y-47861904D01*
X134726190Y-47957142D01*
X134726190Y-48338095D01*
X135202380Y-46814285D02*
X135202380Y-47385714D01*
X135202380Y-47100000D02*
X134202380Y-47100000D01*
X134345238Y-47195238D01*
X134440476Y-47290476D01*
X134488095Y-47385714D01*
X135202380Y-45788095D02*
X134202380Y-45788095D01*
X134202380Y-45407142D01*
X134250000Y-45311904D01*
X134297619Y-45264285D01*
X134392857Y-45216666D01*
X134535714Y-45216666D01*
X134630952Y-45264285D01*
X134678571Y-45311904D01*
X134726190Y-45407142D01*
X134726190Y-45788095D01*
X134202380Y-44597619D02*
X134202380Y-44502380D01*
X134250000Y-44407142D01*
X134297619Y-44359523D01*
X134392857Y-44311904D01*
X134583333Y-44264285D01*
X134821428Y-44264285D01*
X135011904Y-44311904D01*
X135107142Y-44359523D01*
X135154761Y-44407142D01*
X135202380Y-44502380D01*
X135202380Y-44597619D01*
X135154761Y-44692857D01*
X135107142Y-44740476D01*
X135011904Y-44788095D01*
X134821428Y-44835714D01*
X134583333Y-44835714D01*
X134392857Y-44788095D01*
X134297619Y-44740476D01*
X134250000Y-44692857D01*
X134202380Y-44597619D01*
D10*
X134178571Y-42607142D02*
X135321428Y-42607142D01*
X157928571Y-58857142D02*
X159071428Y-58857142D01*
X158500000Y-59428571D02*
X158500000Y-58285714D01*
X140528571Y-58857142D02*
X141671428Y-58857142D01*
X143042857Y-59300000D02*
X143042857Y-59800000D01*
X143828571Y-59800000D02*
X142328571Y-59800000D01*
X142328571Y-59085714D01*
X143828571Y-57728571D02*
X143828571Y-58585714D01*
X143828571Y-58157142D02*
X142328571Y-58157142D01*
X142542857Y-58300000D01*
X142685714Y-58442857D01*
X142757142Y-58585714D01*
X151392857Y-59300000D02*
X151392857Y-59800000D01*
X152178571Y-59800000D02*
X150678571Y-59800000D01*
X150678571Y-59085714D01*
X150678571Y-58228571D02*
X150678571Y-58085714D01*
X150750000Y-57942857D01*
X150821428Y-57871428D01*
X150964285Y-57800000D01*
X151250000Y-57728571D01*
X151607142Y-57728571D01*
X151892857Y-57800000D01*
X152035714Y-57871428D01*
X152107142Y-57942857D01*
X152178571Y-58085714D01*
X152178571Y-58228571D01*
X152107142Y-58371428D01*
X152035714Y-58442857D01*
X151892857Y-58514285D01*
X151607142Y-58585714D01*
X151250000Y-58585714D01*
X150964285Y-58514285D01*
X150821428Y-58442857D01*
X150750000Y-58371428D01*
X150678571Y-58228571D01*
D12*
G04 #@! TO.C,L2*
X142260000Y-56302064D02*
X142260000Y-55097936D01*
X139540000Y-56302064D02*
X139540000Y-55097936D01*
G04 #@! TO.C,R6*
X155610000Y-48671267D02*
X155610000Y-48328733D01*
X154590000Y-48671267D02*
X154590000Y-48328733D01*
G04 #@! TO.C,R4*
X135590000Y-56328733D02*
X135590000Y-56671267D01*
X136610000Y-56328733D02*
X136610000Y-56671267D01*
G04 #@! TO.C,Q2*
X152260000Y-50180000D02*
X150800000Y-50180000D01*
X152260000Y-47020000D02*
X149100000Y-47020000D01*
X152260000Y-47020000D02*
X152260000Y-47950000D01*
X152260000Y-50180000D02*
X152260000Y-49250000D01*
G04 #@! TO.C,J4*
X144180000Y-60180000D02*
X144180000Y-58850000D01*
X145510000Y-60180000D02*
X144180000Y-60180000D01*
X146780000Y-60180000D02*
X146780000Y-57520000D01*
X146780000Y-57520000D02*
X149380000Y-57520000D01*
X146780000Y-60180000D02*
X149380000Y-60180000D01*
X149380000Y-60180000D02*
X149380000Y-57520000D01*
G04 #@! TO.C,C5*
X143437500Y-51952500D02*
X143437500Y-52577500D01*
X143125000Y-52265000D02*
X143750000Y-52265000D01*
X143990000Y-55645563D02*
X145054437Y-56710000D01*
X143990000Y-52254437D02*
X145054437Y-51190000D01*
X143990000Y-52254437D02*
X143990000Y-52890000D01*
X143990000Y-55645563D02*
X143990000Y-55010000D01*
X145054437Y-56710000D02*
X149510000Y-56710000D01*
X145054437Y-51190000D02*
X149510000Y-51190000D01*
X149510000Y-51190000D02*
X149510000Y-52890000D01*
X149510000Y-56710000D02*
X149510000Y-55010000D01*
G04 #@! TO.C,C4*
X136828733Y-53390000D02*
X137171267Y-53390000D01*
X136828733Y-54410000D02*
X137171267Y-54410000D01*
G04 #@! TO.C,R5*
X137790000Y-56671267D02*
X137790000Y-56328733D01*
X138810000Y-56671267D02*
X138810000Y-56328733D01*
G04 #@! TO.C,C2*
X136828733Y-44410000D02*
X137171267Y-44410000D01*
X136828733Y-43390000D02*
X137171267Y-43390000D01*
G04 #@! TO.C,C3*
X157860000Y-56710000D02*
X157860000Y-55010000D01*
X157860000Y-51190000D02*
X157860000Y-52890000D01*
X153404437Y-51190000D02*
X157860000Y-51190000D01*
X153404437Y-56710000D02*
X157860000Y-56710000D01*
X152340000Y-55645563D02*
X152340000Y-55010000D01*
X152340000Y-52254437D02*
X152340000Y-52890000D01*
X152340000Y-52254437D02*
X153404437Y-51190000D01*
X152340000Y-55645563D02*
X153404437Y-56710000D01*
X151475000Y-52265000D02*
X152100000Y-52265000D01*
X151787500Y-51952500D02*
X151787500Y-52577500D01*
G04 #@! TO.C,J1*
X157730000Y-60180000D02*
X157730000Y-57520000D01*
X155130000Y-60180000D02*
X157730000Y-60180000D01*
X155130000Y-57520000D02*
X157730000Y-57520000D01*
X155130000Y-60180000D02*
X155130000Y-57520000D01*
X153860000Y-60180000D02*
X152530000Y-60180000D01*
X152530000Y-60180000D02*
X152530000Y-58850000D01*
G04 #@! TO.C,L1*
X139540000Y-46302064D02*
X139540000Y-45097936D01*
X142260000Y-46302064D02*
X142260000Y-45097936D01*
G04 #@! TO.C,Q1*
X152260000Y-44680000D02*
X152260000Y-43750000D01*
X152260000Y-41520000D02*
X152260000Y-42450000D01*
X152260000Y-41520000D02*
X149100000Y-41520000D01*
X152260000Y-44680000D02*
X150800000Y-44680000D01*
G04 #@! TO.C,R1*
X136610000Y-46328733D02*
X136610000Y-46671267D01*
X135590000Y-46328733D02*
X135590000Y-46671267D01*
G04 #@! TO.C,R2*
X138810000Y-46671267D02*
X138810000Y-46328733D01*
X137790000Y-46671267D02*
X137790000Y-46328733D01*
G04 #@! TO.C,R3*
X154590000Y-43171267D02*
X154590000Y-42828733D01*
X155610000Y-43171267D02*
X155610000Y-42828733D01*
D13*
G04 #@! TO.C,U1*
X148475000Y-43025000D02*
X148425000Y-43025000D01*
X148475000Y-47175000D02*
X148330000Y-47175000D01*
X143325000Y-47175000D02*
X143470000Y-47175000D01*
X143325000Y-43025000D02*
X143470000Y-43025000D01*
X148475000Y-43025000D02*
X148475000Y-47175000D01*
X143325000Y-43025000D02*
X143325000Y-47175000D01*
X148425000Y-43025000D02*
X148425000Y-41625000D01*
D12*
G04 #@! TO.C,C1*
X144678733Y-49390000D02*
X145021267Y-49390000D01*
X144678733Y-50410000D02*
X145021267Y-50410000D01*
G04 #@! TO.C,J2*
X131320000Y-51450000D02*
X133980000Y-51450000D01*
X131320000Y-43770000D02*
X131320000Y-51450000D01*
X133980000Y-43770000D02*
X133980000Y-51450000D01*
X131320000Y-43770000D02*
X133980000Y-43770000D01*
X131320000Y-42500000D02*
X131320000Y-41170000D01*
X131320000Y-41170000D02*
X132650000Y-41170000D01*
G04 #@! TO.C,L2*
D13*
X141583333Y-53102380D02*
X141107142Y-53102380D01*
X141107142Y-52102380D01*
X141869047Y-52197619D02*
X141916666Y-52150000D01*
X142011904Y-52102380D01*
X142250000Y-52102380D01*
X142345238Y-52150000D01*
X142392857Y-52197619D01*
X142440476Y-52292857D01*
X142440476Y-52388095D01*
X142392857Y-52530952D01*
X141821428Y-53102380D01*
X142440476Y-53102380D01*
G04 #@! TO.C,R6*
X157002380Y-48666666D02*
X156526190Y-49000000D01*
X157002380Y-49238095D02*
X156002380Y-49238095D01*
X156002380Y-48857142D01*
X156050000Y-48761904D01*
X156097619Y-48714285D01*
X156192857Y-48666666D01*
X156335714Y-48666666D01*
X156430952Y-48714285D01*
X156478571Y-48761904D01*
X156526190Y-48857142D01*
X156526190Y-49238095D01*
X156002380Y-47809523D02*
X156002380Y-48000000D01*
X156050000Y-48095238D01*
X156097619Y-48142857D01*
X156240476Y-48238095D01*
X156430952Y-48285714D01*
X156811904Y-48285714D01*
X156907142Y-48238095D01*
X156954761Y-48190476D01*
X157002380Y-48095238D01*
X157002380Y-47904761D01*
X156954761Y-47809523D01*
X156907142Y-47761904D01*
X156811904Y-47714285D01*
X156573809Y-47714285D01*
X156478571Y-47761904D01*
X156430952Y-47809523D01*
X156383333Y-47904761D01*
X156383333Y-48095238D01*
X156430952Y-48190476D01*
X156478571Y-48238095D01*
X156573809Y-48285714D01*
G04 #@! TO.C,R4*
X133752380Y-56666666D02*
X133276190Y-57000000D01*
X133752380Y-57238095D02*
X132752380Y-57238095D01*
X132752380Y-56857142D01*
X132800000Y-56761904D01*
X132847619Y-56714285D01*
X132942857Y-56666666D01*
X133085714Y-56666666D01*
X133180952Y-56714285D01*
X133228571Y-56761904D01*
X133276190Y-56857142D01*
X133276190Y-57238095D01*
X133085714Y-55809523D02*
X133752380Y-55809523D01*
X132704761Y-56047619D02*
X133419047Y-56285714D01*
X133419047Y-55666666D01*
G04 #@! TO.C,Q2*
X151404761Y-46797619D02*
X151309523Y-46750000D01*
X151214285Y-46654761D01*
X151071428Y-46511904D01*
X150976190Y-46464285D01*
X150880952Y-46464285D01*
X150928571Y-46702380D02*
X150833333Y-46654761D01*
X150738095Y-46559523D01*
X150690476Y-46369047D01*
X150690476Y-46035714D01*
X150738095Y-45845238D01*
X150833333Y-45750000D01*
X150928571Y-45702380D01*
X151119047Y-45702380D01*
X151214285Y-45750000D01*
X151309523Y-45845238D01*
X151357142Y-46035714D01*
X151357142Y-46369047D01*
X151309523Y-46559523D01*
X151214285Y-46654761D01*
X151119047Y-46702380D01*
X150928571Y-46702380D01*
X151738095Y-45797619D02*
X151785714Y-45750000D01*
X151880952Y-45702380D01*
X152119047Y-45702380D01*
X152214285Y-45750000D01*
X152261904Y-45797619D01*
X152309523Y-45892857D01*
X152309523Y-45988095D01*
X152261904Y-46130952D01*
X151690476Y-46702380D01*
X152309523Y-46702380D01*
G04 #@! TO.C,C5*
X150707142Y-56116666D02*
X150754761Y-56164285D01*
X150802380Y-56307142D01*
X150802380Y-56402380D01*
X150754761Y-56545238D01*
X150659523Y-56640476D01*
X150564285Y-56688095D01*
X150373809Y-56735714D01*
X150230952Y-56735714D01*
X150040476Y-56688095D01*
X149945238Y-56640476D01*
X149850000Y-56545238D01*
X149802380Y-56402380D01*
X149802380Y-56307142D01*
X149850000Y-56164285D01*
X149897619Y-56116666D01*
X149802380Y-55211904D02*
X149802380Y-55688095D01*
X150278571Y-55735714D01*
X150230952Y-55688095D01*
X150183333Y-55592857D01*
X150183333Y-55354761D01*
X150230952Y-55259523D01*
X150278571Y-55211904D01*
X150373809Y-55164285D01*
X150611904Y-55164285D01*
X150707142Y-55211904D01*
X150754761Y-55259523D01*
X150802380Y-55354761D01*
X150802380Y-55592857D01*
X150754761Y-55688095D01*
X150707142Y-55735714D01*
G04 #@! TO.C,C4*
X136833333Y-52827142D02*
X136785714Y-52874761D01*
X136642857Y-52922380D01*
X136547619Y-52922380D01*
X136404761Y-52874761D01*
X136309523Y-52779523D01*
X136261904Y-52684285D01*
X136214285Y-52493809D01*
X136214285Y-52350952D01*
X136261904Y-52160476D01*
X136309523Y-52065238D01*
X136404761Y-51970000D01*
X136547619Y-51922380D01*
X136642857Y-51922380D01*
X136785714Y-51970000D01*
X136833333Y-52017619D01*
X137690476Y-52255714D02*
X137690476Y-52922380D01*
X137452380Y-51874761D02*
X137214285Y-52589047D01*
X137833333Y-52589047D01*
G04 #@! TO.C,R5*
X135102380Y-56666666D02*
X134626190Y-57000000D01*
X135102380Y-57238095D02*
X134102380Y-57238095D01*
X134102380Y-56857142D01*
X134150000Y-56761904D01*
X134197619Y-56714285D01*
X134292857Y-56666666D01*
X134435714Y-56666666D01*
X134530952Y-56714285D01*
X134578571Y-56761904D01*
X134626190Y-56857142D01*
X134626190Y-57238095D01*
X134102380Y-55761904D02*
X134102380Y-56238095D01*
X134578571Y-56285714D01*
X134530952Y-56238095D01*
X134483333Y-56142857D01*
X134483333Y-55904761D01*
X134530952Y-55809523D01*
X134578571Y-55761904D01*
X134673809Y-55714285D01*
X134911904Y-55714285D01*
X135007142Y-55761904D01*
X135054761Y-55809523D01*
X135102380Y-55904761D01*
X135102380Y-56142857D01*
X135054761Y-56238095D01*
X135007142Y-56285714D01*
G04 #@! TO.C,C2*
X136833333Y-42827142D02*
X136785714Y-42874761D01*
X136642857Y-42922380D01*
X136547619Y-42922380D01*
X136404761Y-42874761D01*
X136309523Y-42779523D01*
X136261904Y-42684285D01*
X136214285Y-42493809D01*
X136214285Y-42350952D01*
X136261904Y-42160476D01*
X136309523Y-42065238D01*
X136404761Y-41970000D01*
X136547619Y-41922380D01*
X136642857Y-41922380D01*
X136785714Y-41970000D01*
X136833333Y-42017619D01*
X137214285Y-42017619D02*
X137261904Y-41970000D01*
X137357142Y-41922380D01*
X137595238Y-41922380D01*
X137690476Y-41970000D01*
X137738095Y-42017619D01*
X137785714Y-42112857D01*
X137785714Y-42208095D01*
X137738095Y-42350952D01*
X137166666Y-42922380D01*
X137785714Y-42922380D01*
G04 #@! TO.C,C3*
X159107142Y-56166666D02*
X159154761Y-56214285D01*
X159202380Y-56357142D01*
X159202380Y-56452380D01*
X159154761Y-56595238D01*
X159059523Y-56690476D01*
X158964285Y-56738095D01*
X158773809Y-56785714D01*
X158630952Y-56785714D01*
X158440476Y-56738095D01*
X158345238Y-56690476D01*
X158250000Y-56595238D01*
X158202380Y-56452380D01*
X158202380Y-56357142D01*
X158250000Y-56214285D01*
X158297619Y-56166666D01*
X158202380Y-55833333D02*
X158202380Y-55214285D01*
X158583333Y-55547619D01*
X158583333Y-55404761D01*
X158630952Y-55309523D01*
X158678571Y-55261904D01*
X158773809Y-55214285D01*
X159011904Y-55214285D01*
X159107142Y-55261904D01*
X159154761Y-55309523D01*
X159202380Y-55404761D01*
X159202380Y-55690476D01*
X159154761Y-55785714D01*
X159107142Y-55833333D01*
G04 #@! TO.C,L1*
X140733333Y-49452380D02*
X140257142Y-49452380D01*
X140257142Y-48452380D01*
X141590476Y-49452380D02*
X141019047Y-49452380D01*
X141304761Y-49452380D02*
X141304761Y-48452380D01*
X141209523Y-48595238D01*
X141114285Y-48690476D01*
X141019047Y-48738095D01*
G04 #@! TO.C,Q1*
X153554761Y-46047619D02*
X153459523Y-46000000D01*
X153364285Y-45904761D01*
X153221428Y-45761904D01*
X153126190Y-45714285D01*
X153030952Y-45714285D01*
X153078571Y-45952380D02*
X152983333Y-45904761D01*
X152888095Y-45809523D01*
X152840476Y-45619047D01*
X152840476Y-45285714D01*
X152888095Y-45095238D01*
X152983333Y-45000000D01*
X153078571Y-44952380D01*
X153269047Y-44952380D01*
X153364285Y-45000000D01*
X153459523Y-45095238D01*
X153507142Y-45285714D01*
X153507142Y-45619047D01*
X153459523Y-45809523D01*
X153364285Y-45904761D01*
X153269047Y-45952380D01*
X153078571Y-45952380D01*
X154459523Y-45952380D02*
X153888095Y-45952380D01*
X154173809Y-45952380D02*
X154173809Y-44952380D01*
X154078571Y-45095238D01*
X153983333Y-45190476D01*
X153888095Y-45238095D01*
G04 #@! TO.C,R1*
X136033333Y-49452380D02*
X135700000Y-48976190D01*
X135461904Y-49452380D02*
X135461904Y-48452380D01*
X135842857Y-48452380D01*
X135938095Y-48500000D01*
X135985714Y-48547619D01*
X136033333Y-48642857D01*
X136033333Y-48785714D01*
X135985714Y-48880952D01*
X135938095Y-48928571D01*
X135842857Y-48976190D01*
X135461904Y-48976190D01*
X136985714Y-49452380D02*
X136414285Y-49452380D01*
X136700000Y-49452380D02*
X136700000Y-48452380D01*
X136604761Y-48595238D01*
X136509523Y-48690476D01*
X136414285Y-48738095D01*
G04 #@! TO.C,R2*
X138133333Y-49452380D02*
X137800000Y-48976190D01*
X137561904Y-49452380D02*
X137561904Y-48452380D01*
X137942857Y-48452380D01*
X138038095Y-48500000D01*
X138085714Y-48547619D01*
X138133333Y-48642857D01*
X138133333Y-48785714D01*
X138085714Y-48880952D01*
X138038095Y-48928571D01*
X137942857Y-48976190D01*
X137561904Y-48976190D01*
X138514285Y-48547619D02*
X138561904Y-48500000D01*
X138657142Y-48452380D01*
X138895238Y-48452380D01*
X138990476Y-48500000D01*
X139038095Y-48547619D01*
X139085714Y-48642857D01*
X139085714Y-48738095D01*
X139038095Y-48880952D01*
X138466666Y-49452380D01*
X139085714Y-49452380D01*
G04 #@! TO.C,R3*
X157002380Y-43166666D02*
X156526190Y-43500000D01*
X157002380Y-43738095D02*
X156002380Y-43738095D01*
X156002380Y-43357142D01*
X156050000Y-43261904D01*
X156097619Y-43214285D01*
X156192857Y-43166666D01*
X156335714Y-43166666D01*
X156430952Y-43214285D01*
X156478571Y-43261904D01*
X156526190Y-43357142D01*
X156526190Y-43738095D01*
X156002380Y-42833333D02*
X156002380Y-42214285D01*
X156383333Y-42547619D01*
X156383333Y-42404761D01*
X156430952Y-42309523D01*
X156478571Y-42261904D01*
X156573809Y-42214285D01*
X156811904Y-42214285D01*
X156907142Y-42261904D01*
X156954761Y-42309523D01*
X157002380Y-42404761D01*
X157002380Y-42690476D01*
X156954761Y-42785714D01*
X156907142Y-42833333D01*
G04 #@! TO.C,U1*
X141488095Y-41752380D02*
X141488095Y-42561904D01*
X141535714Y-42657142D01*
X141583333Y-42704761D01*
X141678571Y-42752380D01*
X141869047Y-42752380D01*
X141964285Y-42704761D01*
X142011904Y-42657142D01*
X142059523Y-42561904D01*
X142059523Y-41752380D01*
X143059523Y-42752380D02*
X142488095Y-42752380D01*
X142773809Y-42752380D02*
X142773809Y-41752380D01*
X142678571Y-41895238D01*
X142583333Y-41990476D01*
X142488095Y-42038095D01*
G04 #@! TO.C,C1*
X147557142Y-50016666D02*
X147604761Y-50064285D01*
X147652380Y-50207142D01*
X147652380Y-50302380D01*
X147604761Y-50445238D01*
X147509523Y-50540476D01*
X147414285Y-50588095D01*
X147223809Y-50635714D01*
X147080952Y-50635714D01*
X146890476Y-50588095D01*
X146795238Y-50540476D01*
X146700000Y-50445238D01*
X146652380Y-50302380D01*
X146652380Y-50207142D01*
X146700000Y-50064285D01*
X146747619Y-50016666D01*
X147652380Y-49064285D02*
X147652380Y-49635714D01*
X147652380Y-49350000D02*
X146652380Y-49350000D01*
X146795238Y-49445238D01*
X146890476Y-49540476D01*
X146938095Y-49635714D01*
G04 #@! TD*
M02*
