G04 #@! TF.GenerationSoftware,KiCad,Pcbnew,(5.0.1-dev-70-gb7b125d83)*
G04 #@! TF.CreationDate,2018-10-12T17:46:44+02:00*
G04 #@! TF.ProjectId,pwm-fan-control,70776D2D66616E2D636F6E74726F6C2E,rev?*
G04 #@! TF.SameCoordinates,Original*
G04 #@! TF.FileFunction,Soldermask,Top*
G04 #@! TF.FilePolarity,Negative*
%FSLAX46Y46*%
G04 Gerber Fmt 4.6, Leading zero omitted, Abs format (unit mm)*
G04 Created by KiCad (PCBNEW (5.0.1-dev-70-gb7b125d83)) date 10/12/18 17:46:44*
%MOMM*%
%LPD*%
G01*
G04 APERTURE LIST*
%ADD10C,0.100000*%
%ADD11C,1.825000*%
%ADD12C,1.350000*%
%ADD13R,2.300000X1.200000*%
%ADD14O,2.100000X2.100000*%
%ADD15R,2.100000X2.100000*%
%ADD16R,3.400000X2.000000*%
%ADD17R,1.000000X1.950000*%
G04 APERTURE END LIST*
D10*
G04 #@! TO.C,L2*
G36*
X142136207Y-53301542D02*
X142167287Y-53306152D01*
X142197766Y-53313787D01*
X142227350Y-53324372D01*
X142255754Y-53337806D01*
X142282704Y-53353959D01*
X142307942Y-53372677D01*
X142331223Y-53393777D01*
X142352323Y-53417058D01*
X142371041Y-53442296D01*
X142387194Y-53469246D01*
X142400628Y-53497650D01*
X142411213Y-53527234D01*
X142418848Y-53557713D01*
X142423458Y-53588793D01*
X142425000Y-53620176D01*
X142425000Y-54804824D01*
X142423458Y-54836207D01*
X142418848Y-54867287D01*
X142411213Y-54897766D01*
X142400628Y-54927350D01*
X142387194Y-54955754D01*
X142371041Y-54982704D01*
X142352323Y-55007942D01*
X142331223Y-55031223D01*
X142307942Y-55052323D01*
X142282704Y-55071041D01*
X142255754Y-55087194D01*
X142227350Y-55100628D01*
X142197766Y-55111213D01*
X142167287Y-55118848D01*
X142136207Y-55123458D01*
X142104824Y-55125000D01*
X139695176Y-55125000D01*
X139663793Y-55123458D01*
X139632713Y-55118848D01*
X139602234Y-55111213D01*
X139572650Y-55100628D01*
X139544246Y-55087194D01*
X139517296Y-55071041D01*
X139492058Y-55052323D01*
X139468777Y-55031223D01*
X139447677Y-55007942D01*
X139428959Y-54982704D01*
X139412806Y-54955754D01*
X139399372Y-54927350D01*
X139388787Y-54897766D01*
X139381152Y-54867287D01*
X139376542Y-54836207D01*
X139375000Y-54804824D01*
X139375000Y-53620176D01*
X139376542Y-53588793D01*
X139381152Y-53557713D01*
X139388787Y-53527234D01*
X139399372Y-53497650D01*
X139412806Y-53469246D01*
X139428959Y-53442296D01*
X139447677Y-53417058D01*
X139468777Y-53393777D01*
X139492058Y-53372677D01*
X139517296Y-53353959D01*
X139544246Y-53337806D01*
X139572650Y-53324372D01*
X139602234Y-53313787D01*
X139632713Y-53306152D01*
X139663793Y-53301542D01*
X139695176Y-53300000D01*
X142104824Y-53300000D01*
X142136207Y-53301542D01*
X142136207Y-53301542D01*
G37*
D11*
X140900000Y-54212500D03*
D10*
G36*
X142136207Y-56276542D02*
X142167287Y-56281152D01*
X142197766Y-56288787D01*
X142227350Y-56299372D01*
X142255754Y-56312806D01*
X142282704Y-56328959D01*
X142307942Y-56347677D01*
X142331223Y-56368777D01*
X142352323Y-56392058D01*
X142371041Y-56417296D01*
X142387194Y-56444246D01*
X142400628Y-56472650D01*
X142411213Y-56502234D01*
X142418848Y-56532713D01*
X142423458Y-56563793D01*
X142425000Y-56595176D01*
X142425000Y-57779824D01*
X142423458Y-57811207D01*
X142418848Y-57842287D01*
X142411213Y-57872766D01*
X142400628Y-57902350D01*
X142387194Y-57930754D01*
X142371041Y-57957704D01*
X142352323Y-57982942D01*
X142331223Y-58006223D01*
X142307942Y-58027323D01*
X142282704Y-58046041D01*
X142255754Y-58062194D01*
X142227350Y-58075628D01*
X142197766Y-58086213D01*
X142167287Y-58093848D01*
X142136207Y-58098458D01*
X142104824Y-58100000D01*
X139695176Y-58100000D01*
X139663793Y-58098458D01*
X139632713Y-58093848D01*
X139602234Y-58086213D01*
X139572650Y-58075628D01*
X139544246Y-58062194D01*
X139517296Y-58046041D01*
X139492058Y-58027323D01*
X139468777Y-58006223D01*
X139447677Y-57982942D01*
X139428959Y-57957704D01*
X139412806Y-57930754D01*
X139399372Y-57902350D01*
X139388787Y-57872766D01*
X139381152Y-57842287D01*
X139376542Y-57811207D01*
X139375000Y-57779824D01*
X139375000Y-56595176D01*
X139376542Y-56563793D01*
X139381152Y-56532713D01*
X139388787Y-56502234D01*
X139399372Y-56472650D01*
X139412806Y-56444246D01*
X139428959Y-56417296D01*
X139447677Y-56392058D01*
X139468777Y-56368777D01*
X139492058Y-56347677D01*
X139517296Y-56328959D01*
X139544246Y-56312806D01*
X139572650Y-56299372D01*
X139602234Y-56288787D01*
X139632713Y-56281152D01*
X139663793Y-56276542D01*
X139695176Y-56275000D01*
X142104824Y-56275000D01*
X142136207Y-56276542D01*
X142136207Y-56276542D01*
G37*
D11*
X140900000Y-57187500D03*
G04 #@! TD*
D10*
G04 #@! TO.C,R6*
G36*
X155470581Y-46901625D02*
X155503343Y-46906485D01*
X155535471Y-46914533D01*
X155566656Y-46925691D01*
X155596596Y-46939852D01*
X155625005Y-46956879D01*
X155651608Y-46976609D01*
X155676149Y-46998851D01*
X155698391Y-47023392D01*
X155718121Y-47049995D01*
X155735148Y-47078404D01*
X155749309Y-47108344D01*
X155760467Y-47139529D01*
X155768515Y-47171657D01*
X155773375Y-47204419D01*
X155775000Y-47237500D01*
X155775000Y-48012500D01*
X155773375Y-48045581D01*
X155768515Y-48078343D01*
X155760467Y-48110471D01*
X155749309Y-48141656D01*
X155735148Y-48171596D01*
X155718121Y-48200005D01*
X155698391Y-48226608D01*
X155676149Y-48251149D01*
X155651608Y-48273391D01*
X155625005Y-48293121D01*
X155596596Y-48310148D01*
X155566656Y-48324309D01*
X155535471Y-48335467D01*
X155503343Y-48343515D01*
X155470581Y-48348375D01*
X155437500Y-48350000D01*
X154762500Y-48350000D01*
X154729419Y-48348375D01*
X154696657Y-48343515D01*
X154664529Y-48335467D01*
X154633344Y-48324309D01*
X154603404Y-48310148D01*
X154574995Y-48293121D01*
X154548392Y-48273391D01*
X154523851Y-48251149D01*
X154501609Y-48226608D01*
X154481879Y-48200005D01*
X154464852Y-48171596D01*
X154450691Y-48141656D01*
X154439533Y-48110471D01*
X154431485Y-48078343D01*
X154426625Y-48045581D01*
X154425000Y-48012500D01*
X154425000Y-47237500D01*
X154426625Y-47204419D01*
X154431485Y-47171657D01*
X154439533Y-47139529D01*
X154450691Y-47108344D01*
X154464852Y-47078404D01*
X154481879Y-47049995D01*
X154501609Y-47023392D01*
X154523851Y-46998851D01*
X154548392Y-46976609D01*
X154574995Y-46956879D01*
X154603404Y-46939852D01*
X154633344Y-46925691D01*
X154664529Y-46914533D01*
X154696657Y-46906485D01*
X154729419Y-46901625D01*
X154762500Y-46900000D01*
X155437500Y-46900000D01*
X155470581Y-46901625D01*
X155470581Y-46901625D01*
G37*
D12*
X155100000Y-47625000D03*
D10*
G36*
X155470581Y-48651625D02*
X155503343Y-48656485D01*
X155535471Y-48664533D01*
X155566656Y-48675691D01*
X155596596Y-48689852D01*
X155625005Y-48706879D01*
X155651608Y-48726609D01*
X155676149Y-48748851D01*
X155698391Y-48773392D01*
X155718121Y-48799995D01*
X155735148Y-48828404D01*
X155749309Y-48858344D01*
X155760467Y-48889529D01*
X155768515Y-48921657D01*
X155773375Y-48954419D01*
X155775000Y-48987500D01*
X155775000Y-49762500D01*
X155773375Y-49795581D01*
X155768515Y-49828343D01*
X155760467Y-49860471D01*
X155749309Y-49891656D01*
X155735148Y-49921596D01*
X155718121Y-49950005D01*
X155698391Y-49976608D01*
X155676149Y-50001149D01*
X155651608Y-50023391D01*
X155625005Y-50043121D01*
X155596596Y-50060148D01*
X155566656Y-50074309D01*
X155535471Y-50085467D01*
X155503343Y-50093515D01*
X155470581Y-50098375D01*
X155437500Y-50100000D01*
X154762500Y-50100000D01*
X154729419Y-50098375D01*
X154696657Y-50093515D01*
X154664529Y-50085467D01*
X154633344Y-50074309D01*
X154603404Y-50060148D01*
X154574995Y-50043121D01*
X154548392Y-50023391D01*
X154523851Y-50001149D01*
X154501609Y-49976608D01*
X154481879Y-49950005D01*
X154464852Y-49921596D01*
X154450691Y-49891656D01*
X154439533Y-49860471D01*
X154431485Y-49828343D01*
X154426625Y-49795581D01*
X154425000Y-49762500D01*
X154425000Y-48987500D01*
X154426625Y-48954419D01*
X154431485Y-48921657D01*
X154439533Y-48889529D01*
X154450691Y-48858344D01*
X154464852Y-48828404D01*
X154481879Y-48799995D01*
X154501609Y-48773392D01*
X154523851Y-48748851D01*
X154548392Y-48726609D01*
X154574995Y-48706879D01*
X154603404Y-48689852D01*
X154633344Y-48675691D01*
X154664529Y-48664533D01*
X154696657Y-48656485D01*
X154729419Y-48651625D01*
X154762500Y-48650000D01*
X155437500Y-48650000D01*
X155470581Y-48651625D01*
X155470581Y-48651625D01*
G37*
D12*
X155100000Y-49375000D03*
G04 #@! TD*
D10*
G04 #@! TO.C,R4*
G36*
X136470581Y-56651625D02*
X136503343Y-56656485D01*
X136535471Y-56664533D01*
X136566656Y-56675691D01*
X136596596Y-56689852D01*
X136625005Y-56706879D01*
X136651608Y-56726609D01*
X136676149Y-56748851D01*
X136698391Y-56773392D01*
X136718121Y-56799995D01*
X136735148Y-56828404D01*
X136749309Y-56858344D01*
X136760467Y-56889529D01*
X136768515Y-56921657D01*
X136773375Y-56954419D01*
X136775000Y-56987500D01*
X136775000Y-57762500D01*
X136773375Y-57795581D01*
X136768515Y-57828343D01*
X136760467Y-57860471D01*
X136749309Y-57891656D01*
X136735148Y-57921596D01*
X136718121Y-57950005D01*
X136698391Y-57976608D01*
X136676149Y-58001149D01*
X136651608Y-58023391D01*
X136625005Y-58043121D01*
X136596596Y-58060148D01*
X136566656Y-58074309D01*
X136535471Y-58085467D01*
X136503343Y-58093515D01*
X136470581Y-58098375D01*
X136437500Y-58100000D01*
X135762500Y-58100000D01*
X135729419Y-58098375D01*
X135696657Y-58093515D01*
X135664529Y-58085467D01*
X135633344Y-58074309D01*
X135603404Y-58060148D01*
X135574995Y-58043121D01*
X135548392Y-58023391D01*
X135523851Y-58001149D01*
X135501609Y-57976608D01*
X135481879Y-57950005D01*
X135464852Y-57921596D01*
X135450691Y-57891656D01*
X135439533Y-57860471D01*
X135431485Y-57828343D01*
X135426625Y-57795581D01*
X135425000Y-57762500D01*
X135425000Y-56987500D01*
X135426625Y-56954419D01*
X135431485Y-56921657D01*
X135439533Y-56889529D01*
X135450691Y-56858344D01*
X135464852Y-56828404D01*
X135481879Y-56799995D01*
X135501609Y-56773392D01*
X135523851Y-56748851D01*
X135548392Y-56726609D01*
X135574995Y-56706879D01*
X135603404Y-56689852D01*
X135633344Y-56675691D01*
X135664529Y-56664533D01*
X135696657Y-56656485D01*
X135729419Y-56651625D01*
X135762500Y-56650000D01*
X136437500Y-56650000D01*
X136470581Y-56651625D01*
X136470581Y-56651625D01*
G37*
D12*
X136100000Y-57375000D03*
D10*
G36*
X136470581Y-54901625D02*
X136503343Y-54906485D01*
X136535471Y-54914533D01*
X136566656Y-54925691D01*
X136596596Y-54939852D01*
X136625005Y-54956879D01*
X136651608Y-54976609D01*
X136676149Y-54998851D01*
X136698391Y-55023392D01*
X136718121Y-55049995D01*
X136735148Y-55078404D01*
X136749309Y-55108344D01*
X136760467Y-55139529D01*
X136768515Y-55171657D01*
X136773375Y-55204419D01*
X136775000Y-55237500D01*
X136775000Y-56012500D01*
X136773375Y-56045581D01*
X136768515Y-56078343D01*
X136760467Y-56110471D01*
X136749309Y-56141656D01*
X136735148Y-56171596D01*
X136718121Y-56200005D01*
X136698391Y-56226608D01*
X136676149Y-56251149D01*
X136651608Y-56273391D01*
X136625005Y-56293121D01*
X136596596Y-56310148D01*
X136566656Y-56324309D01*
X136535471Y-56335467D01*
X136503343Y-56343515D01*
X136470581Y-56348375D01*
X136437500Y-56350000D01*
X135762500Y-56350000D01*
X135729419Y-56348375D01*
X135696657Y-56343515D01*
X135664529Y-56335467D01*
X135633344Y-56324309D01*
X135603404Y-56310148D01*
X135574995Y-56293121D01*
X135548392Y-56273391D01*
X135523851Y-56251149D01*
X135501609Y-56226608D01*
X135481879Y-56200005D01*
X135464852Y-56171596D01*
X135450691Y-56141656D01*
X135439533Y-56110471D01*
X135431485Y-56078343D01*
X135426625Y-56045581D01*
X135425000Y-56012500D01*
X135425000Y-55237500D01*
X135426625Y-55204419D01*
X135431485Y-55171657D01*
X135439533Y-55139529D01*
X135450691Y-55108344D01*
X135464852Y-55078404D01*
X135481879Y-55049995D01*
X135501609Y-55023392D01*
X135523851Y-54998851D01*
X135548392Y-54976609D01*
X135574995Y-54956879D01*
X135603404Y-54939852D01*
X135633344Y-54925691D01*
X135664529Y-54914533D01*
X135696657Y-54906485D01*
X135729419Y-54901625D01*
X135762500Y-54900000D01*
X136437500Y-54900000D01*
X136470581Y-54901625D01*
X136470581Y-54901625D01*
G37*
D12*
X136100000Y-55625000D03*
G04 #@! TD*
D13*
G04 #@! TO.C,Q2*
X153000000Y-48600000D03*
X150000000Y-49550000D03*
X150000000Y-47650000D03*
G04 #@! TD*
D14*
G04 #@! TO.C,J4*
X148050000Y-58850000D03*
D15*
X145510000Y-58850000D03*
G04 #@! TD*
D16*
G04 #@! TO.C,C5*
X148950000Y-53950000D03*
X144550000Y-53950000D03*
G04 #@! TD*
D10*
G04 #@! TO.C,C4*
G36*
X136545581Y-53226625D02*
X136578343Y-53231485D01*
X136610471Y-53239533D01*
X136641656Y-53250691D01*
X136671596Y-53264852D01*
X136700005Y-53281879D01*
X136726608Y-53301609D01*
X136751149Y-53323851D01*
X136773391Y-53348392D01*
X136793121Y-53374995D01*
X136810148Y-53403404D01*
X136824309Y-53433344D01*
X136835467Y-53464529D01*
X136843515Y-53496657D01*
X136848375Y-53529419D01*
X136850000Y-53562500D01*
X136850000Y-54237500D01*
X136848375Y-54270581D01*
X136843515Y-54303343D01*
X136835467Y-54335471D01*
X136824309Y-54366656D01*
X136810148Y-54396596D01*
X136793121Y-54425005D01*
X136773391Y-54451608D01*
X136751149Y-54476149D01*
X136726608Y-54498391D01*
X136700005Y-54518121D01*
X136671596Y-54535148D01*
X136641656Y-54549309D01*
X136610471Y-54560467D01*
X136578343Y-54568515D01*
X136545581Y-54573375D01*
X136512500Y-54575000D01*
X135737500Y-54575000D01*
X135704419Y-54573375D01*
X135671657Y-54568515D01*
X135639529Y-54560467D01*
X135608344Y-54549309D01*
X135578404Y-54535148D01*
X135549995Y-54518121D01*
X135523392Y-54498391D01*
X135498851Y-54476149D01*
X135476609Y-54451608D01*
X135456879Y-54425005D01*
X135439852Y-54396596D01*
X135425691Y-54366656D01*
X135414533Y-54335471D01*
X135406485Y-54303343D01*
X135401625Y-54270581D01*
X135400000Y-54237500D01*
X135400000Y-53562500D01*
X135401625Y-53529419D01*
X135406485Y-53496657D01*
X135414533Y-53464529D01*
X135425691Y-53433344D01*
X135439852Y-53403404D01*
X135456879Y-53374995D01*
X135476609Y-53348392D01*
X135498851Y-53323851D01*
X135523392Y-53301609D01*
X135549995Y-53281879D01*
X135578404Y-53264852D01*
X135608344Y-53250691D01*
X135639529Y-53239533D01*
X135671657Y-53231485D01*
X135704419Y-53226625D01*
X135737500Y-53225000D01*
X136512500Y-53225000D01*
X136545581Y-53226625D01*
X136545581Y-53226625D01*
G37*
D12*
X136125000Y-53900000D03*
D10*
G36*
X138295581Y-53226625D02*
X138328343Y-53231485D01*
X138360471Y-53239533D01*
X138391656Y-53250691D01*
X138421596Y-53264852D01*
X138450005Y-53281879D01*
X138476608Y-53301609D01*
X138501149Y-53323851D01*
X138523391Y-53348392D01*
X138543121Y-53374995D01*
X138560148Y-53403404D01*
X138574309Y-53433344D01*
X138585467Y-53464529D01*
X138593515Y-53496657D01*
X138598375Y-53529419D01*
X138600000Y-53562500D01*
X138600000Y-54237500D01*
X138598375Y-54270581D01*
X138593515Y-54303343D01*
X138585467Y-54335471D01*
X138574309Y-54366656D01*
X138560148Y-54396596D01*
X138543121Y-54425005D01*
X138523391Y-54451608D01*
X138501149Y-54476149D01*
X138476608Y-54498391D01*
X138450005Y-54518121D01*
X138421596Y-54535148D01*
X138391656Y-54549309D01*
X138360471Y-54560467D01*
X138328343Y-54568515D01*
X138295581Y-54573375D01*
X138262500Y-54575000D01*
X137487500Y-54575000D01*
X137454419Y-54573375D01*
X137421657Y-54568515D01*
X137389529Y-54560467D01*
X137358344Y-54549309D01*
X137328404Y-54535148D01*
X137299995Y-54518121D01*
X137273392Y-54498391D01*
X137248851Y-54476149D01*
X137226609Y-54451608D01*
X137206879Y-54425005D01*
X137189852Y-54396596D01*
X137175691Y-54366656D01*
X137164533Y-54335471D01*
X137156485Y-54303343D01*
X137151625Y-54270581D01*
X137150000Y-54237500D01*
X137150000Y-53562500D01*
X137151625Y-53529419D01*
X137156485Y-53496657D01*
X137164533Y-53464529D01*
X137175691Y-53433344D01*
X137189852Y-53403404D01*
X137206879Y-53374995D01*
X137226609Y-53348392D01*
X137248851Y-53323851D01*
X137273392Y-53301609D01*
X137299995Y-53281879D01*
X137328404Y-53264852D01*
X137358344Y-53250691D01*
X137389529Y-53239533D01*
X137421657Y-53231485D01*
X137454419Y-53226625D01*
X137487500Y-53225000D01*
X138262500Y-53225000D01*
X138295581Y-53226625D01*
X138295581Y-53226625D01*
G37*
D12*
X137875000Y-53900000D03*
G04 #@! TD*
D10*
G04 #@! TO.C,R5*
G36*
X138670581Y-56651625D02*
X138703343Y-56656485D01*
X138735471Y-56664533D01*
X138766656Y-56675691D01*
X138796596Y-56689852D01*
X138825005Y-56706879D01*
X138851608Y-56726609D01*
X138876149Y-56748851D01*
X138898391Y-56773392D01*
X138918121Y-56799995D01*
X138935148Y-56828404D01*
X138949309Y-56858344D01*
X138960467Y-56889529D01*
X138968515Y-56921657D01*
X138973375Y-56954419D01*
X138975000Y-56987500D01*
X138975000Y-57762500D01*
X138973375Y-57795581D01*
X138968515Y-57828343D01*
X138960467Y-57860471D01*
X138949309Y-57891656D01*
X138935148Y-57921596D01*
X138918121Y-57950005D01*
X138898391Y-57976608D01*
X138876149Y-58001149D01*
X138851608Y-58023391D01*
X138825005Y-58043121D01*
X138796596Y-58060148D01*
X138766656Y-58074309D01*
X138735471Y-58085467D01*
X138703343Y-58093515D01*
X138670581Y-58098375D01*
X138637500Y-58100000D01*
X137962500Y-58100000D01*
X137929419Y-58098375D01*
X137896657Y-58093515D01*
X137864529Y-58085467D01*
X137833344Y-58074309D01*
X137803404Y-58060148D01*
X137774995Y-58043121D01*
X137748392Y-58023391D01*
X137723851Y-58001149D01*
X137701609Y-57976608D01*
X137681879Y-57950005D01*
X137664852Y-57921596D01*
X137650691Y-57891656D01*
X137639533Y-57860471D01*
X137631485Y-57828343D01*
X137626625Y-57795581D01*
X137625000Y-57762500D01*
X137625000Y-56987500D01*
X137626625Y-56954419D01*
X137631485Y-56921657D01*
X137639533Y-56889529D01*
X137650691Y-56858344D01*
X137664852Y-56828404D01*
X137681879Y-56799995D01*
X137701609Y-56773392D01*
X137723851Y-56748851D01*
X137748392Y-56726609D01*
X137774995Y-56706879D01*
X137803404Y-56689852D01*
X137833344Y-56675691D01*
X137864529Y-56664533D01*
X137896657Y-56656485D01*
X137929419Y-56651625D01*
X137962500Y-56650000D01*
X138637500Y-56650000D01*
X138670581Y-56651625D01*
X138670581Y-56651625D01*
G37*
D12*
X138300000Y-57375000D03*
D10*
G36*
X138670581Y-54901625D02*
X138703343Y-54906485D01*
X138735471Y-54914533D01*
X138766656Y-54925691D01*
X138796596Y-54939852D01*
X138825005Y-54956879D01*
X138851608Y-54976609D01*
X138876149Y-54998851D01*
X138898391Y-55023392D01*
X138918121Y-55049995D01*
X138935148Y-55078404D01*
X138949309Y-55108344D01*
X138960467Y-55139529D01*
X138968515Y-55171657D01*
X138973375Y-55204419D01*
X138975000Y-55237500D01*
X138975000Y-56012500D01*
X138973375Y-56045581D01*
X138968515Y-56078343D01*
X138960467Y-56110471D01*
X138949309Y-56141656D01*
X138935148Y-56171596D01*
X138918121Y-56200005D01*
X138898391Y-56226608D01*
X138876149Y-56251149D01*
X138851608Y-56273391D01*
X138825005Y-56293121D01*
X138796596Y-56310148D01*
X138766656Y-56324309D01*
X138735471Y-56335467D01*
X138703343Y-56343515D01*
X138670581Y-56348375D01*
X138637500Y-56350000D01*
X137962500Y-56350000D01*
X137929419Y-56348375D01*
X137896657Y-56343515D01*
X137864529Y-56335467D01*
X137833344Y-56324309D01*
X137803404Y-56310148D01*
X137774995Y-56293121D01*
X137748392Y-56273391D01*
X137723851Y-56251149D01*
X137701609Y-56226608D01*
X137681879Y-56200005D01*
X137664852Y-56171596D01*
X137650691Y-56141656D01*
X137639533Y-56110471D01*
X137631485Y-56078343D01*
X137626625Y-56045581D01*
X137625000Y-56012500D01*
X137625000Y-55237500D01*
X137626625Y-55204419D01*
X137631485Y-55171657D01*
X137639533Y-55139529D01*
X137650691Y-55108344D01*
X137664852Y-55078404D01*
X137681879Y-55049995D01*
X137701609Y-55023392D01*
X137723851Y-54998851D01*
X137748392Y-54976609D01*
X137774995Y-54956879D01*
X137803404Y-54939852D01*
X137833344Y-54925691D01*
X137864529Y-54914533D01*
X137896657Y-54906485D01*
X137929419Y-54901625D01*
X137962500Y-54900000D01*
X138637500Y-54900000D01*
X138670581Y-54901625D01*
X138670581Y-54901625D01*
G37*
D12*
X138300000Y-55625000D03*
G04 #@! TD*
D10*
G04 #@! TO.C,C2*
G36*
X138295581Y-43226625D02*
X138328343Y-43231485D01*
X138360471Y-43239533D01*
X138391656Y-43250691D01*
X138421596Y-43264852D01*
X138450005Y-43281879D01*
X138476608Y-43301609D01*
X138501149Y-43323851D01*
X138523391Y-43348392D01*
X138543121Y-43374995D01*
X138560148Y-43403404D01*
X138574309Y-43433344D01*
X138585467Y-43464529D01*
X138593515Y-43496657D01*
X138598375Y-43529419D01*
X138600000Y-43562500D01*
X138600000Y-44237500D01*
X138598375Y-44270581D01*
X138593515Y-44303343D01*
X138585467Y-44335471D01*
X138574309Y-44366656D01*
X138560148Y-44396596D01*
X138543121Y-44425005D01*
X138523391Y-44451608D01*
X138501149Y-44476149D01*
X138476608Y-44498391D01*
X138450005Y-44518121D01*
X138421596Y-44535148D01*
X138391656Y-44549309D01*
X138360471Y-44560467D01*
X138328343Y-44568515D01*
X138295581Y-44573375D01*
X138262500Y-44575000D01*
X137487500Y-44575000D01*
X137454419Y-44573375D01*
X137421657Y-44568515D01*
X137389529Y-44560467D01*
X137358344Y-44549309D01*
X137328404Y-44535148D01*
X137299995Y-44518121D01*
X137273392Y-44498391D01*
X137248851Y-44476149D01*
X137226609Y-44451608D01*
X137206879Y-44425005D01*
X137189852Y-44396596D01*
X137175691Y-44366656D01*
X137164533Y-44335471D01*
X137156485Y-44303343D01*
X137151625Y-44270581D01*
X137150000Y-44237500D01*
X137150000Y-43562500D01*
X137151625Y-43529419D01*
X137156485Y-43496657D01*
X137164533Y-43464529D01*
X137175691Y-43433344D01*
X137189852Y-43403404D01*
X137206879Y-43374995D01*
X137226609Y-43348392D01*
X137248851Y-43323851D01*
X137273392Y-43301609D01*
X137299995Y-43281879D01*
X137328404Y-43264852D01*
X137358344Y-43250691D01*
X137389529Y-43239533D01*
X137421657Y-43231485D01*
X137454419Y-43226625D01*
X137487500Y-43225000D01*
X138262500Y-43225000D01*
X138295581Y-43226625D01*
X138295581Y-43226625D01*
G37*
D12*
X137875000Y-43900000D03*
D10*
G36*
X136545581Y-43226625D02*
X136578343Y-43231485D01*
X136610471Y-43239533D01*
X136641656Y-43250691D01*
X136671596Y-43264852D01*
X136700005Y-43281879D01*
X136726608Y-43301609D01*
X136751149Y-43323851D01*
X136773391Y-43348392D01*
X136793121Y-43374995D01*
X136810148Y-43403404D01*
X136824309Y-43433344D01*
X136835467Y-43464529D01*
X136843515Y-43496657D01*
X136848375Y-43529419D01*
X136850000Y-43562500D01*
X136850000Y-44237500D01*
X136848375Y-44270581D01*
X136843515Y-44303343D01*
X136835467Y-44335471D01*
X136824309Y-44366656D01*
X136810148Y-44396596D01*
X136793121Y-44425005D01*
X136773391Y-44451608D01*
X136751149Y-44476149D01*
X136726608Y-44498391D01*
X136700005Y-44518121D01*
X136671596Y-44535148D01*
X136641656Y-44549309D01*
X136610471Y-44560467D01*
X136578343Y-44568515D01*
X136545581Y-44573375D01*
X136512500Y-44575000D01*
X135737500Y-44575000D01*
X135704419Y-44573375D01*
X135671657Y-44568515D01*
X135639529Y-44560467D01*
X135608344Y-44549309D01*
X135578404Y-44535148D01*
X135549995Y-44518121D01*
X135523392Y-44498391D01*
X135498851Y-44476149D01*
X135476609Y-44451608D01*
X135456879Y-44425005D01*
X135439852Y-44396596D01*
X135425691Y-44366656D01*
X135414533Y-44335471D01*
X135406485Y-44303343D01*
X135401625Y-44270581D01*
X135400000Y-44237500D01*
X135400000Y-43562500D01*
X135401625Y-43529419D01*
X135406485Y-43496657D01*
X135414533Y-43464529D01*
X135425691Y-43433344D01*
X135439852Y-43403404D01*
X135456879Y-43374995D01*
X135476609Y-43348392D01*
X135498851Y-43323851D01*
X135523392Y-43301609D01*
X135549995Y-43281879D01*
X135578404Y-43264852D01*
X135608344Y-43250691D01*
X135639529Y-43239533D01*
X135671657Y-43231485D01*
X135704419Y-43226625D01*
X135737500Y-43225000D01*
X136512500Y-43225000D01*
X136545581Y-43226625D01*
X136545581Y-43226625D01*
G37*
D12*
X136125000Y-43900000D03*
G04 #@! TD*
D16*
G04 #@! TO.C,C3*
X152900000Y-53950000D03*
X157300000Y-53950000D03*
G04 #@! TD*
D15*
G04 #@! TO.C,J1*
X153860000Y-58850000D03*
D14*
X156400000Y-58850000D03*
G04 #@! TD*
D10*
G04 #@! TO.C,L1*
G36*
X142136207Y-46276542D02*
X142167287Y-46281152D01*
X142197766Y-46288787D01*
X142227350Y-46299372D01*
X142255754Y-46312806D01*
X142282704Y-46328959D01*
X142307942Y-46347677D01*
X142331223Y-46368777D01*
X142352323Y-46392058D01*
X142371041Y-46417296D01*
X142387194Y-46444246D01*
X142400628Y-46472650D01*
X142411213Y-46502234D01*
X142418848Y-46532713D01*
X142423458Y-46563793D01*
X142425000Y-46595176D01*
X142425000Y-47779824D01*
X142423458Y-47811207D01*
X142418848Y-47842287D01*
X142411213Y-47872766D01*
X142400628Y-47902350D01*
X142387194Y-47930754D01*
X142371041Y-47957704D01*
X142352323Y-47982942D01*
X142331223Y-48006223D01*
X142307942Y-48027323D01*
X142282704Y-48046041D01*
X142255754Y-48062194D01*
X142227350Y-48075628D01*
X142197766Y-48086213D01*
X142167287Y-48093848D01*
X142136207Y-48098458D01*
X142104824Y-48100000D01*
X139695176Y-48100000D01*
X139663793Y-48098458D01*
X139632713Y-48093848D01*
X139602234Y-48086213D01*
X139572650Y-48075628D01*
X139544246Y-48062194D01*
X139517296Y-48046041D01*
X139492058Y-48027323D01*
X139468777Y-48006223D01*
X139447677Y-47982942D01*
X139428959Y-47957704D01*
X139412806Y-47930754D01*
X139399372Y-47902350D01*
X139388787Y-47872766D01*
X139381152Y-47842287D01*
X139376542Y-47811207D01*
X139375000Y-47779824D01*
X139375000Y-46595176D01*
X139376542Y-46563793D01*
X139381152Y-46532713D01*
X139388787Y-46502234D01*
X139399372Y-46472650D01*
X139412806Y-46444246D01*
X139428959Y-46417296D01*
X139447677Y-46392058D01*
X139468777Y-46368777D01*
X139492058Y-46347677D01*
X139517296Y-46328959D01*
X139544246Y-46312806D01*
X139572650Y-46299372D01*
X139602234Y-46288787D01*
X139632713Y-46281152D01*
X139663793Y-46276542D01*
X139695176Y-46275000D01*
X142104824Y-46275000D01*
X142136207Y-46276542D01*
X142136207Y-46276542D01*
G37*
D11*
X140900000Y-47187500D03*
D10*
G36*
X142136207Y-43301542D02*
X142167287Y-43306152D01*
X142197766Y-43313787D01*
X142227350Y-43324372D01*
X142255754Y-43337806D01*
X142282704Y-43353959D01*
X142307942Y-43372677D01*
X142331223Y-43393777D01*
X142352323Y-43417058D01*
X142371041Y-43442296D01*
X142387194Y-43469246D01*
X142400628Y-43497650D01*
X142411213Y-43527234D01*
X142418848Y-43557713D01*
X142423458Y-43588793D01*
X142425000Y-43620176D01*
X142425000Y-44804824D01*
X142423458Y-44836207D01*
X142418848Y-44867287D01*
X142411213Y-44897766D01*
X142400628Y-44927350D01*
X142387194Y-44955754D01*
X142371041Y-44982704D01*
X142352323Y-45007942D01*
X142331223Y-45031223D01*
X142307942Y-45052323D01*
X142282704Y-45071041D01*
X142255754Y-45087194D01*
X142227350Y-45100628D01*
X142197766Y-45111213D01*
X142167287Y-45118848D01*
X142136207Y-45123458D01*
X142104824Y-45125000D01*
X139695176Y-45125000D01*
X139663793Y-45123458D01*
X139632713Y-45118848D01*
X139602234Y-45111213D01*
X139572650Y-45100628D01*
X139544246Y-45087194D01*
X139517296Y-45071041D01*
X139492058Y-45052323D01*
X139468777Y-45031223D01*
X139447677Y-45007942D01*
X139428959Y-44982704D01*
X139412806Y-44955754D01*
X139399372Y-44927350D01*
X139388787Y-44897766D01*
X139381152Y-44867287D01*
X139376542Y-44836207D01*
X139375000Y-44804824D01*
X139375000Y-43620176D01*
X139376542Y-43588793D01*
X139381152Y-43557713D01*
X139388787Y-43527234D01*
X139399372Y-43497650D01*
X139412806Y-43469246D01*
X139428959Y-43442296D01*
X139447677Y-43417058D01*
X139468777Y-43393777D01*
X139492058Y-43372677D01*
X139517296Y-43353959D01*
X139544246Y-43337806D01*
X139572650Y-43324372D01*
X139602234Y-43313787D01*
X139632713Y-43306152D01*
X139663793Y-43301542D01*
X139695176Y-43300000D01*
X142104824Y-43300000D01*
X142136207Y-43301542D01*
X142136207Y-43301542D01*
G37*
D11*
X140900000Y-44212500D03*
G04 #@! TD*
D13*
G04 #@! TO.C,Q1*
X150000000Y-42150000D03*
X150000000Y-44050000D03*
X153000000Y-43100000D03*
G04 #@! TD*
D10*
G04 #@! TO.C,R1*
G36*
X136470581Y-44901625D02*
X136503343Y-44906485D01*
X136535471Y-44914533D01*
X136566656Y-44925691D01*
X136596596Y-44939852D01*
X136625005Y-44956879D01*
X136651608Y-44976609D01*
X136676149Y-44998851D01*
X136698391Y-45023392D01*
X136718121Y-45049995D01*
X136735148Y-45078404D01*
X136749309Y-45108344D01*
X136760467Y-45139529D01*
X136768515Y-45171657D01*
X136773375Y-45204419D01*
X136775000Y-45237500D01*
X136775000Y-46012500D01*
X136773375Y-46045581D01*
X136768515Y-46078343D01*
X136760467Y-46110471D01*
X136749309Y-46141656D01*
X136735148Y-46171596D01*
X136718121Y-46200005D01*
X136698391Y-46226608D01*
X136676149Y-46251149D01*
X136651608Y-46273391D01*
X136625005Y-46293121D01*
X136596596Y-46310148D01*
X136566656Y-46324309D01*
X136535471Y-46335467D01*
X136503343Y-46343515D01*
X136470581Y-46348375D01*
X136437500Y-46350000D01*
X135762500Y-46350000D01*
X135729419Y-46348375D01*
X135696657Y-46343515D01*
X135664529Y-46335467D01*
X135633344Y-46324309D01*
X135603404Y-46310148D01*
X135574995Y-46293121D01*
X135548392Y-46273391D01*
X135523851Y-46251149D01*
X135501609Y-46226608D01*
X135481879Y-46200005D01*
X135464852Y-46171596D01*
X135450691Y-46141656D01*
X135439533Y-46110471D01*
X135431485Y-46078343D01*
X135426625Y-46045581D01*
X135425000Y-46012500D01*
X135425000Y-45237500D01*
X135426625Y-45204419D01*
X135431485Y-45171657D01*
X135439533Y-45139529D01*
X135450691Y-45108344D01*
X135464852Y-45078404D01*
X135481879Y-45049995D01*
X135501609Y-45023392D01*
X135523851Y-44998851D01*
X135548392Y-44976609D01*
X135574995Y-44956879D01*
X135603404Y-44939852D01*
X135633344Y-44925691D01*
X135664529Y-44914533D01*
X135696657Y-44906485D01*
X135729419Y-44901625D01*
X135762500Y-44900000D01*
X136437500Y-44900000D01*
X136470581Y-44901625D01*
X136470581Y-44901625D01*
G37*
D12*
X136100000Y-45625000D03*
D10*
G36*
X136470581Y-46651625D02*
X136503343Y-46656485D01*
X136535471Y-46664533D01*
X136566656Y-46675691D01*
X136596596Y-46689852D01*
X136625005Y-46706879D01*
X136651608Y-46726609D01*
X136676149Y-46748851D01*
X136698391Y-46773392D01*
X136718121Y-46799995D01*
X136735148Y-46828404D01*
X136749309Y-46858344D01*
X136760467Y-46889529D01*
X136768515Y-46921657D01*
X136773375Y-46954419D01*
X136775000Y-46987500D01*
X136775000Y-47762500D01*
X136773375Y-47795581D01*
X136768515Y-47828343D01*
X136760467Y-47860471D01*
X136749309Y-47891656D01*
X136735148Y-47921596D01*
X136718121Y-47950005D01*
X136698391Y-47976608D01*
X136676149Y-48001149D01*
X136651608Y-48023391D01*
X136625005Y-48043121D01*
X136596596Y-48060148D01*
X136566656Y-48074309D01*
X136535471Y-48085467D01*
X136503343Y-48093515D01*
X136470581Y-48098375D01*
X136437500Y-48100000D01*
X135762500Y-48100000D01*
X135729419Y-48098375D01*
X135696657Y-48093515D01*
X135664529Y-48085467D01*
X135633344Y-48074309D01*
X135603404Y-48060148D01*
X135574995Y-48043121D01*
X135548392Y-48023391D01*
X135523851Y-48001149D01*
X135501609Y-47976608D01*
X135481879Y-47950005D01*
X135464852Y-47921596D01*
X135450691Y-47891656D01*
X135439533Y-47860471D01*
X135431485Y-47828343D01*
X135426625Y-47795581D01*
X135425000Y-47762500D01*
X135425000Y-46987500D01*
X135426625Y-46954419D01*
X135431485Y-46921657D01*
X135439533Y-46889529D01*
X135450691Y-46858344D01*
X135464852Y-46828404D01*
X135481879Y-46799995D01*
X135501609Y-46773392D01*
X135523851Y-46748851D01*
X135548392Y-46726609D01*
X135574995Y-46706879D01*
X135603404Y-46689852D01*
X135633344Y-46675691D01*
X135664529Y-46664533D01*
X135696657Y-46656485D01*
X135729419Y-46651625D01*
X135762500Y-46650000D01*
X136437500Y-46650000D01*
X136470581Y-46651625D01*
X136470581Y-46651625D01*
G37*
D12*
X136100000Y-47375000D03*
G04 #@! TD*
D10*
G04 #@! TO.C,R2*
G36*
X138670581Y-44901625D02*
X138703343Y-44906485D01*
X138735471Y-44914533D01*
X138766656Y-44925691D01*
X138796596Y-44939852D01*
X138825005Y-44956879D01*
X138851608Y-44976609D01*
X138876149Y-44998851D01*
X138898391Y-45023392D01*
X138918121Y-45049995D01*
X138935148Y-45078404D01*
X138949309Y-45108344D01*
X138960467Y-45139529D01*
X138968515Y-45171657D01*
X138973375Y-45204419D01*
X138975000Y-45237500D01*
X138975000Y-46012500D01*
X138973375Y-46045581D01*
X138968515Y-46078343D01*
X138960467Y-46110471D01*
X138949309Y-46141656D01*
X138935148Y-46171596D01*
X138918121Y-46200005D01*
X138898391Y-46226608D01*
X138876149Y-46251149D01*
X138851608Y-46273391D01*
X138825005Y-46293121D01*
X138796596Y-46310148D01*
X138766656Y-46324309D01*
X138735471Y-46335467D01*
X138703343Y-46343515D01*
X138670581Y-46348375D01*
X138637500Y-46350000D01*
X137962500Y-46350000D01*
X137929419Y-46348375D01*
X137896657Y-46343515D01*
X137864529Y-46335467D01*
X137833344Y-46324309D01*
X137803404Y-46310148D01*
X137774995Y-46293121D01*
X137748392Y-46273391D01*
X137723851Y-46251149D01*
X137701609Y-46226608D01*
X137681879Y-46200005D01*
X137664852Y-46171596D01*
X137650691Y-46141656D01*
X137639533Y-46110471D01*
X137631485Y-46078343D01*
X137626625Y-46045581D01*
X137625000Y-46012500D01*
X137625000Y-45237500D01*
X137626625Y-45204419D01*
X137631485Y-45171657D01*
X137639533Y-45139529D01*
X137650691Y-45108344D01*
X137664852Y-45078404D01*
X137681879Y-45049995D01*
X137701609Y-45023392D01*
X137723851Y-44998851D01*
X137748392Y-44976609D01*
X137774995Y-44956879D01*
X137803404Y-44939852D01*
X137833344Y-44925691D01*
X137864529Y-44914533D01*
X137896657Y-44906485D01*
X137929419Y-44901625D01*
X137962500Y-44900000D01*
X138637500Y-44900000D01*
X138670581Y-44901625D01*
X138670581Y-44901625D01*
G37*
D12*
X138300000Y-45625000D03*
D10*
G36*
X138670581Y-46651625D02*
X138703343Y-46656485D01*
X138735471Y-46664533D01*
X138766656Y-46675691D01*
X138796596Y-46689852D01*
X138825005Y-46706879D01*
X138851608Y-46726609D01*
X138876149Y-46748851D01*
X138898391Y-46773392D01*
X138918121Y-46799995D01*
X138935148Y-46828404D01*
X138949309Y-46858344D01*
X138960467Y-46889529D01*
X138968515Y-46921657D01*
X138973375Y-46954419D01*
X138975000Y-46987500D01*
X138975000Y-47762500D01*
X138973375Y-47795581D01*
X138968515Y-47828343D01*
X138960467Y-47860471D01*
X138949309Y-47891656D01*
X138935148Y-47921596D01*
X138918121Y-47950005D01*
X138898391Y-47976608D01*
X138876149Y-48001149D01*
X138851608Y-48023391D01*
X138825005Y-48043121D01*
X138796596Y-48060148D01*
X138766656Y-48074309D01*
X138735471Y-48085467D01*
X138703343Y-48093515D01*
X138670581Y-48098375D01*
X138637500Y-48100000D01*
X137962500Y-48100000D01*
X137929419Y-48098375D01*
X137896657Y-48093515D01*
X137864529Y-48085467D01*
X137833344Y-48074309D01*
X137803404Y-48060148D01*
X137774995Y-48043121D01*
X137748392Y-48023391D01*
X137723851Y-48001149D01*
X137701609Y-47976608D01*
X137681879Y-47950005D01*
X137664852Y-47921596D01*
X137650691Y-47891656D01*
X137639533Y-47860471D01*
X137631485Y-47828343D01*
X137626625Y-47795581D01*
X137625000Y-47762500D01*
X137625000Y-46987500D01*
X137626625Y-46954419D01*
X137631485Y-46921657D01*
X137639533Y-46889529D01*
X137650691Y-46858344D01*
X137664852Y-46828404D01*
X137681879Y-46799995D01*
X137701609Y-46773392D01*
X137723851Y-46748851D01*
X137748392Y-46726609D01*
X137774995Y-46706879D01*
X137803404Y-46689852D01*
X137833344Y-46675691D01*
X137864529Y-46664533D01*
X137896657Y-46656485D01*
X137929419Y-46651625D01*
X137962500Y-46650000D01*
X138637500Y-46650000D01*
X138670581Y-46651625D01*
X138670581Y-46651625D01*
G37*
D12*
X138300000Y-47375000D03*
G04 #@! TD*
D10*
G04 #@! TO.C,R3*
G36*
X155470581Y-43151625D02*
X155503343Y-43156485D01*
X155535471Y-43164533D01*
X155566656Y-43175691D01*
X155596596Y-43189852D01*
X155625005Y-43206879D01*
X155651608Y-43226609D01*
X155676149Y-43248851D01*
X155698391Y-43273392D01*
X155718121Y-43299995D01*
X155735148Y-43328404D01*
X155749309Y-43358344D01*
X155760467Y-43389529D01*
X155768515Y-43421657D01*
X155773375Y-43454419D01*
X155775000Y-43487500D01*
X155775000Y-44262500D01*
X155773375Y-44295581D01*
X155768515Y-44328343D01*
X155760467Y-44360471D01*
X155749309Y-44391656D01*
X155735148Y-44421596D01*
X155718121Y-44450005D01*
X155698391Y-44476608D01*
X155676149Y-44501149D01*
X155651608Y-44523391D01*
X155625005Y-44543121D01*
X155596596Y-44560148D01*
X155566656Y-44574309D01*
X155535471Y-44585467D01*
X155503343Y-44593515D01*
X155470581Y-44598375D01*
X155437500Y-44600000D01*
X154762500Y-44600000D01*
X154729419Y-44598375D01*
X154696657Y-44593515D01*
X154664529Y-44585467D01*
X154633344Y-44574309D01*
X154603404Y-44560148D01*
X154574995Y-44543121D01*
X154548392Y-44523391D01*
X154523851Y-44501149D01*
X154501609Y-44476608D01*
X154481879Y-44450005D01*
X154464852Y-44421596D01*
X154450691Y-44391656D01*
X154439533Y-44360471D01*
X154431485Y-44328343D01*
X154426625Y-44295581D01*
X154425000Y-44262500D01*
X154425000Y-43487500D01*
X154426625Y-43454419D01*
X154431485Y-43421657D01*
X154439533Y-43389529D01*
X154450691Y-43358344D01*
X154464852Y-43328404D01*
X154481879Y-43299995D01*
X154501609Y-43273392D01*
X154523851Y-43248851D01*
X154548392Y-43226609D01*
X154574995Y-43206879D01*
X154603404Y-43189852D01*
X154633344Y-43175691D01*
X154664529Y-43164533D01*
X154696657Y-43156485D01*
X154729419Y-43151625D01*
X154762500Y-43150000D01*
X155437500Y-43150000D01*
X155470581Y-43151625D01*
X155470581Y-43151625D01*
G37*
D12*
X155100000Y-43875000D03*
D10*
G36*
X155470581Y-41401625D02*
X155503343Y-41406485D01*
X155535471Y-41414533D01*
X155566656Y-41425691D01*
X155596596Y-41439852D01*
X155625005Y-41456879D01*
X155651608Y-41476609D01*
X155676149Y-41498851D01*
X155698391Y-41523392D01*
X155718121Y-41549995D01*
X155735148Y-41578404D01*
X155749309Y-41608344D01*
X155760467Y-41639529D01*
X155768515Y-41671657D01*
X155773375Y-41704419D01*
X155775000Y-41737500D01*
X155775000Y-42512500D01*
X155773375Y-42545581D01*
X155768515Y-42578343D01*
X155760467Y-42610471D01*
X155749309Y-42641656D01*
X155735148Y-42671596D01*
X155718121Y-42700005D01*
X155698391Y-42726608D01*
X155676149Y-42751149D01*
X155651608Y-42773391D01*
X155625005Y-42793121D01*
X155596596Y-42810148D01*
X155566656Y-42824309D01*
X155535471Y-42835467D01*
X155503343Y-42843515D01*
X155470581Y-42848375D01*
X155437500Y-42850000D01*
X154762500Y-42850000D01*
X154729419Y-42848375D01*
X154696657Y-42843515D01*
X154664529Y-42835467D01*
X154633344Y-42824309D01*
X154603404Y-42810148D01*
X154574995Y-42793121D01*
X154548392Y-42773391D01*
X154523851Y-42751149D01*
X154501609Y-42726608D01*
X154481879Y-42700005D01*
X154464852Y-42671596D01*
X154450691Y-42641656D01*
X154439533Y-42610471D01*
X154431485Y-42578343D01*
X154426625Y-42545581D01*
X154425000Y-42512500D01*
X154425000Y-41737500D01*
X154426625Y-41704419D01*
X154431485Y-41671657D01*
X154439533Y-41639529D01*
X154450691Y-41608344D01*
X154464852Y-41578404D01*
X154481879Y-41549995D01*
X154501609Y-41523392D01*
X154523851Y-41498851D01*
X154548392Y-41476609D01*
X154574995Y-41456879D01*
X154603404Y-41439852D01*
X154633344Y-41425691D01*
X154664529Y-41414533D01*
X154696657Y-41406485D01*
X154729419Y-41401625D01*
X154762500Y-41400000D01*
X155437500Y-41400000D01*
X155470581Y-41401625D01*
X155470581Y-41401625D01*
G37*
D12*
X155100000Y-42125000D03*
G04 #@! TD*
D17*
G04 #@! TO.C,U1*
X147805000Y-42400000D03*
X146535000Y-42400000D03*
X145265000Y-42400000D03*
X143995000Y-42400000D03*
X143995000Y-47800000D03*
X145265000Y-47800000D03*
X146535000Y-47800000D03*
X147805000Y-47800000D03*
G04 #@! TD*
D10*
G04 #@! TO.C,C1*
G36*
X144395581Y-49226625D02*
X144428343Y-49231485D01*
X144460471Y-49239533D01*
X144491656Y-49250691D01*
X144521596Y-49264852D01*
X144550005Y-49281879D01*
X144576608Y-49301609D01*
X144601149Y-49323851D01*
X144623391Y-49348392D01*
X144643121Y-49374995D01*
X144660148Y-49403404D01*
X144674309Y-49433344D01*
X144685467Y-49464529D01*
X144693515Y-49496657D01*
X144698375Y-49529419D01*
X144700000Y-49562500D01*
X144700000Y-50237500D01*
X144698375Y-50270581D01*
X144693515Y-50303343D01*
X144685467Y-50335471D01*
X144674309Y-50366656D01*
X144660148Y-50396596D01*
X144643121Y-50425005D01*
X144623391Y-50451608D01*
X144601149Y-50476149D01*
X144576608Y-50498391D01*
X144550005Y-50518121D01*
X144521596Y-50535148D01*
X144491656Y-50549309D01*
X144460471Y-50560467D01*
X144428343Y-50568515D01*
X144395581Y-50573375D01*
X144362500Y-50575000D01*
X143587500Y-50575000D01*
X143554419Y-50573375D01*
X143521657Y-50568515D01*
X143489529Y-50560467D01*
X143458344Y-50549309D01*
X143428404Y-50535148D01*
X143399995Y-50518121D01*
X143373392Y-50498391D01*
X143348851Y-50476149D01*
X143326609Y-50451608D01*
X143306879Y-50425005D01*
X143289852Y-50396596D01*
X143275691Y-50366656D01*
X143264533Y-50335471D01*
X143256485Y-50303343D01*
X143251625Y-50270581D01*
X143250000Y-50237500D01*
X143250000Y-49562500D01*
X143251625Y-49529419D01*
X143256485Y-49496657D01*
X143264533Y-49464529D01*
X143275691Y-49433344D01*
X143289852Y-49403404D01*
X143306879Y-49374995D01*
X143326609Y-49348392D01*
X143348851Y-49323851D01*
X143373392Y-49301609D01*
X143399995Y-49281879D01*
X143428404Y-49264852D01*
X143458344Y-49250691D01*
X143489529Y-49239533D01*
X143521657Y-49231485D01*
X143554419Y-49226625D01*
X143587500Y-49225000D01*
X144362500Y-49225000D01*
X144395581Y-49226625D01*
X144395581Y-49226625D01*
G37*
D12*
X143975000Y-49900000D03*
D10*
G36*
X146145581Y-49226625D02*
X146178343Y-49231485D01*
X146210471Y-49239533D01*
X146241656Y-49250691D01*
X146271596Y-49264852D01*
X146300005Y-49281879D01*
X146326608Y-49301609D01*
X146351149Y-49323851D01*
X146373391Y-49348392D01*
X146393121Y-49374995D01*
X146410148Y-49403404D01*
X146424309Y-49433344D01*
X146435467Y-49464529D01*
X146443515Y-49496657D01*
X146448375Y-49529419D01*
X146450000Y-49562500D01*
X146450000Y-50237500D01*
X146448375Y-50270581D01*
X146443515Y-50303343D01*
X146435467Y-50335471D01*
X146424309Y-50366656D01*
X146410148Y-50396596D01*
X146393121Y-50425005D01*
X146373391Y-50451608D01*
X146351149Y-50476149D01*
X146326608Y-50498391D01*
X146300005Y-50518121D01*
X146271596Y-50535148D01*
X146241656Y-50549309D01*
X146210471Y-50560467D01*
X146178343Y-50568515D01*
X146145581Y-50573375D01*
X146112500Y-50575000D01*
X145337500Y-50575000D01*
X145304419Y-50573375D01*
X145271657Y-50568515D01*
X145239529Y-50560467D01*
X145208344Y-50549309D01*
X145178404Y-50535148D01*
X145149995Y-50518121D01*
X145123392Y-50498391D01*
X145098851Y-50476149D01*
X145076609Y-50451608D01*
X145056879Y-50425005D01*
X145039852Y-50396596D01*
X145025691Y-50366656D01*
X145014533Y-50335471D01*
X145006485Y-50303343D01*
X145001625Y-50270581D01*
X145000000Y-50237500D01*
X145000000Y-49562500D01*
X145001625Y-49529419D01*
X145006485Y-49496657D01*
X145014533Y-49464529D01*
X145025691Y-49433344D01*
X145039852Y-49403404D01*
X145056879Y-49374995D01*
X145076609Y-49348392D01*
X145098851Y-49323851D01*
X145123392Y-49301609D01*
X145149995Y-49281879D01*
X145178404Y-49264852D01*
X145208344Y-49250691D01*
X145239529Y-49239533D01*
X145271657Y-49231485D01*
X145304419Y-49226625D01*
X145337500Y-49225000D01*
X146112500Y-49225000D01*
X146145581Y-49226625D01*
X146145581Y-49226625D01*
G37*
D12*
X145725000Y-49900000D03*
G04 #@! TD*
D15*
G04 #@! TO.C,J2*
X132650000Y-42500000D03*
D14*
X132650000Y-45040000D03*
X132650000Y-47580000D03*
X132650000Y-50120000D03*
G04 #@! TD*
M02*
