G04 #@! TF.GenerationSoftware,KiCad,Pcbnew,(5.0.1-dev-70-gb7b125d83)*
G04 #@! TF.CreationDate,2018-10-12T22:01:22+02:00*
G04 #@! TF.ProjectId,pwm-fan-control,70776D2D66616E2D636F6E74726F6C2E,rev?*
G04 #@! TF.SameCoordinates,Original*
G04 #@! TF.FileFunction,Paste,Top*
G04 #@! TF.FilePolarity,Positive*
%FSLAX46Y46*%
G04 Gerber Fmt 4.6, Leading zero omitted, Abs format (unit mm)*
G04 Created by KiCad (PCBNEW (5.0.1-dev-70-gb7b125d83)) date 10/12/18 22:01:22*
%MOMM*%
%LPD*%
G01*
G04 APERTURE LIST*
%ADD10R,3.050000X2.750000*%
%ADD11R,2.200000X1.200000*%
%ADD12C,0.100000*%
%ADD13C,1.425000*%
%ADD14C,0.950000*%
%ADD15R,0.600000X1.550000*%
G04 APERTURE END LIST*
D10*
G04 #@! TO.C,Q2*
X231575000Y-46675000D03*
X228225000Y-49725000D03*
X231575000Y-49725000D03*
X228225000Y-46675000D03*
D11*
X236200000Y-45920000D03*
X236200000Y-50480000D03*
G04 #@! TD*
D12*
G04 #@! TO.C,R12*
G36*
X225849504Y-49976204D02*
X225873773Y-49979804D01*
X225897571Y-49985765D01*
X225920671Y-49994030D01*
X225942849Y-50004520D01*
X225963893Y-50017133D01*
X225983598Y-50031747D01*
X226001777Y-50048223D01*
X226018253Y-50066402D01*
X226032867Y-50086107D01*
X226045480Y-50107151D01*
X226055970Y-50129329D01*
X226064235Y-50152429D01*
X226070196Y-50176227D01*
X226073796Y-50200496D01*
X226075000Y-50225000D01*
X226075000Y-51150000D01*
X226073796Y-51174504D01*
X226070196Y-51198773D01*
X226064235Y-51222571D01*
X226055970Y-51245671D01*
X226045480Y-51267849D01*
X226032867Y-51288893D01*
X226018253Y-51308598D01*
X226001777Y-51326777D01*
X225983598Y-51343253D01*
X225963893Y-51357867D01*
X225942849Y-51370480D01*
X225920671Y-51380970D01*
X225897571Y-51389235D01*
X225873773Y-51395196D01*
X225849504Y-51398796D01*
X225825000Y-51400000D01*
X224575000Y-51400000D01*
X224550496Y-51398796D01*
X224526227Y-51395196D01*
X224502429Y-51389235D01*
X224479329Y-51380970D01*
X224457151Y-51370480D01*
X224436107Y-51357867D01*
X224416402Y-51343253D01*
X224398223Y-51326777D01*
X224381747Y-51308598D01*
X224367133Y-51288893D01*
X224354520Y-51267849D01*
X224344030Y-51245671D01*
X224335765Y-51222571D01*
X224329804Y-51198773D01*
X224326204Y-51174504D01*
X224325000Y-51150000D01*
X224325000Y-50225000D01*
X224326204Y-50200496D01*
X224329804Y-50176227D01*
X224335765Y-50152429D01*
X224344030Y-50129329D01*
X224354520Y-50107151D01*
X224367133Y-50086107D01*
X224381747Y-50066402D01*
X224398223Y-50048223D01*
X224416402Y-50031747D01*
X224436107Y-50017133D01*
X224457151Y-50004520D01*
X224479329Y-49994030D01*
X224502429Y-49985765D01*
X224526227Y-49979804D01*
X224550496Y-49976204D01*
X224575000Y-49975000D01*
X225825000Y-49975000D01*
X225849504Y-49976204D01*
X225849504Y-49976204D01*
G37*
D13*
X225200000Y-50687500D03*
D12*
G36*
X225849504Y-47001204D02*
X225873773Y-47004804D01*
X225897571Y-47010765D01*
X225920671Y-47019030D01*
X225942849Y-47029520D01*
X225963893Y-47042133D01*
X225983598Y-47056747D01*
X226001777Y-47073223D01*
X226018253Y-47091402D01*
X226032867Y-47111107D01*
X226045480Y-47132151D01*
X226055970Y-47154329D01*
X226064235Y-47177429D01*
X226070196Y-47201227D01*
X226073796Y-47225496D01*
X226075000Y-47250000D01*
X226075000Y-48175000D01*
X226073796Y-48199504D01*
X226070196Y-48223773D01*
X226064235Y-48247571D01*
X226055970Y-48270671D01*
X226045480Y-48292849D01*
X226032867Y-48313893D01*
X226018253Y-48333598D01*
X226001777Y-48351777D01*
X225983598Y-48368253D01*
X225963893Y-48382867D01*
X225942849Y-48395480D01*
X225920671Y-48405970D01*
X225897571Y-48414235D01*
X225873773Y-48420196D01*
X225849504Y-48423796D01*
X225825000Y-48425000D01*
X224575000Y-48425000D01*
X224550496Y-48423796D01*
X224526227Y-48420196D01*
X224502429Y-48414235D01*
X224479329Y-48405970D01*
X224457151Y-48395480D01*
X224436107Y-48382867D01*
X224416402Y-48368253D01*
X224398223Y-48351777D01*
X224381747Y-48333598D01*
X224367133Y-48313893D01*
X224354520Y-48292849D01*
X224344030Y-48270671D01*
X224335765Y-48247571D01*
X224329804Y-48223773D01*
X224326204Y-48199504D01*
X224325000Y-48175000D01*
X224325000Y-47250000D01*
X224326204Y-47225496D01*
X224329804Y-47201227D01*
X224335765Y-47177429D01*
X224344030Y-47154329D01*
X224354520Y-47132151D01*
X224367133Y-47111107D01*
X224381747Y-47091402D01*
X224398223Y-47073223D01*
X224416402Y-47056747D01*
X224436107Y-47042133D01*
X224457151Y-47029520D01*
X224479329Y-47019030D01*
X224502429Y-47010765D01*
X224526227Y-47004804D01*
X224550496Y-47001204D01*
X224575000Y-47000000D01*
X225825000Y-47000000D01*
X225849504Y-47001204D01*
X225849504Y-47001204D01*
G37*
D13*
X225200000Y-47712500D03*
G04 #@! TD*
D12*
G04 #@! TO.C,R10*
G36*
X223460779Y-49801144D02*
X223483834Y-49804563D01*
X223506443Y-49810227D01*
X223528387Y-49818079D01*
X223549457Y-49828044D01*
X223569448Y-49840026D01*
X223588168Y-49853910D01*
X223605438Y-49869562D01*
X223621090Y-49886832D01*
X223634974Y-49905552D01*
X223646956Y-49925543D01*
X223656921Y-49946613D01*
X223664773Y-49968557D01*
X223670437Y-49991166D01*
X223673856Y-50014221D01*
X223675000Y-50037500D01*
X223675000Y-50612500D01*
X223673856Y-50635779D01*
X223670437Y-50658834D01*
X223664773Y-50681443D01*
X223656921Y-50703387D01*
X223646956Y-50724457D01*
X223634974Y-50744448D01*
X223621090Y-50763168D01*
X223605438Y-50780438D01*
X223588168Y-50796090D01*
X223569448Y-50809974D01*
X223549457Y-50821956D01*
X223528387Y-50831921D01*
X223506443Y-50839773D01*
X223483834Y-50845437D01*
X223460779Y-50848856D01*
X223437500Y-50850000D01*
X222962500Y-50850000D01*
X222939221Y-50848856D01*
X222916166Y-50845437D01*
X222893557Y-50839773D01*
X222871613Y-50831921D01*
X222850543Y-50821956D01*
X222830552Y-50809974D01*
X222811832Y-50796090D01*
X222794562Y-50780438D01*
X222778910Y-50763168D01*
X222765026Y-50744448D01*
X222753044Y-50724457D01*
X222743079Y-50703387D01*
X222735227Y-50681443D01*
X222729563Y-50658834D01*
X222726144Y-50635779D01*
X222725000Y-50612500D01*
X222725000Y-50037500D01*
X222726144Y-50014221D01*
X222729563Y-49991166D01*
X222735227Y-49968557D01*
X222743079Y-49946613D01*
X222753044Y-49925543D01*
X222765026Y-49905552D01*
X222778910Y-49886832D01*
X222794562Y-49869562D01*
X222811832Y-49853910D01*
X222830552Y-49840026D01*
X222850543Y-49828044D01*
X222871613Y-49818079D01*
X222893557Y-49810227D01*
X222916166Y-49804563D01*
X222939221Y-49801144D01*
X222962500Y-49800000D01*
X223437500Y-49800000D01*
X223460779Y-49801144D01*
X223460779Y-49801144D01*
G37*
D14*
X223200000Y-50325000D03*
D12*
G36*
X223460779Y-51551144D02*
X223483834Y-51554563D01*
X223506443Y-51560227D01*
X223528387Y-51568079D01*
X223549457Y-51578044D01*
X223569448Y-51590026D01*
X223588168Y-51603910D01*
X223605438Y-51619562D01*
X223621090Y-51636832D01*
X223634974Y-51655552D01*
X223646956Y-51675543D01*
X223656921Y-51696613D01*
X223664773Y-51718557D01*
X223670437Y-51741166D01*
X223673856Y-51764221D01*
X223675000Y-51787500D01*
X223675000Y-52362500D01*
X223673856Y-52385779D01*
X223670437Y-52408834D01*
X223664773Y-52431443D01*
X223656921Y-52453387D01*
X223646956Y-52474457D01*
X223634974Y-52494448D01*
X223621090Y-52513168D01*
X223605438Y-52530438D01*
X223588168Y-52546090D01*
X223569448Y-52559974D01*
X223549457Y-52571956D01*
X223528387Y-52581921D01*
X223506443Y-52589773D01*
X223483834Y-52595437D01*
X223460779Y-52598856D01*
X223437500Y-52600000D01*
X222962500Y-52600000D01*
X222939221Y-52598856D01*
X222916166Y-52595437D01*
X222893557Y-52589773D01*
X222871613Y-52581921D01*
X222850543Y-52571956D01*
X222830552Y-52559974D01*
X222811832Y-52546090D01*
X222794562Y-52530438D01*
X222778910Y-52513168D01*
X222765026Y-52494448D01*
X222753044Y-52474457D01*
X222743079Y-52453387D01*
X222735227Y-52431443D01*
X222729563Y-52408834D01*
X222726144Y-52385779D01*
X222725000Y-52362500D01*
X222725000Y-51787500D01*
X222726144Y-51764221D01*
X222729563Y-51741166D01*
X222735227Y-51718557D01*
X222743079Y-51696613D01*
X222753044Y-51675543D01*
X222765026Y-51655552D01*
X222778910Y-51636832D01*
X222794562Y-51619562D01*
X222811832Y-51603910D01*
X222830552Y-51590026D01*
X222850543Y-51578044D01*
X222871613Y-51568079D01*
X222893557Y-51560227D01*
X222916166Y-51554563D01*
X222939221Y-51551144D01*
X222962500Y-51550000D01*
X223437500Y-51550000D01*
X223460779Y-51551144D01*
X223460779Y-51551144D01*
G37*
D14*
X223200000Y-52075000D03*
G04 #@! TD*
D12*
G04 #@! TO.C,R9*
G36*
X218573674Y-45126144D02*
X218596729Y-45129563D01*
X218619338Y-45135227D01*
X218641282Y-45143079D01*
X218662352Y-45153044D01*
X218682343Y-45165026D01*
X218701063Y-45178910D01*
X218718333Y-45194562D01*
X218733985Y-45211832D01*
X218747869Y-45230552D01*
X218759851Y-45250543D01*
X218769816Y-45271613D01*
X218777668Y-45293557D01*
X218783332Y-45316166D01*
X218786751Y-45339221D01*
X218787895Y-45362500D01*
X218787895Y-45837500D01*
X218786751Y-45860779D01*
X218783332Y-45883834D01*
X218777668Y-45906443D01*
X218769816Y-45928387D01*
X218759851Y-45949457D01*
X218747869Y-45969448D01*
X218733985Y-45988168D01*
X218718333Y-46005438D01*
X218701063Y-46021090D01*
X218682343Y-46034974D01*
X218662352Y-46046956D01*
X218641282Y-46056921D01*
X218619338Y-46064773D01*
X218596729Y-46070437D01*
X218573674Y-46073856D01*
X218550395Y-46075000D01*
X217975395Y-46075000D01*
X217952116Y-46073856D01*
X217929061Y-46070437D01*
X217906452Y-46064773D01*
X217884508Y-46056921D01*
X217863438Y-46046956D01*
X217843447Y-46034974D01*
X217824727Y-46021090D01*
X217807457Y-46005438D01*
X217791805Y-45988168D01*
X217777921Y-45969448D01*
X217765939Y-45949457D01*
X217755974Y-45928387D01*
X217748122Y-45906443D01*
X217742458Y-45883834D01*
X217739039Y-45860779D01*
X217737895Y-45837500D01*
X217737895Y-45362500D01*
X217739039Y-45339221D01*
X217742458Y-45316166D01*
X217748122Y-45293557D01*
X217755974Y-45271613D01*
X217765939Y-45250543D01*
X217777921Y-45230552D01*
X217791805Y-45211832D01*
X217807457Y-45194562D01*
X217824727Y-45178910D01*
X217843447Y-45165026D01*
X217863438Y-45153044D01*
X217884508Y-45143079D01*
X217906452Y-45135227D01*
X217929061Y-45129563D01*
X217952116Y-45126144D01*
X217975395Y-45125000D01*
X218550395Y-45125000D01*
X218573674Y-45126144D01*
X218573674Y-45126144D01*
G37*
D14*
X218262895Y-45600000D03*
D12*
G36*
X220323674Y-45126144D02*
X220346729Y-45129563D01*
X220369338Y-45135227D01*
X220391282Y-45143079D01*
X220412352Y-45153044D01*
X220432343Y-45165026D01*
X220451063Y-45178910D01*
X220468333Y-45194562D01*
X220483985Y-45211832D01*
X220497869Y-45230552D01*
X220509851Y-45250543D01*
X220519816Y-45271613D01*
X220527668Y-45293557D01*
X220533332Y-45316166D01*
X220536751Y-45339221D01*
X220537895Y-45362500D01*
X220537895Y-45837500D01*
X220536751Y-45860779D01*
X220533332Y-45883834D01*
X220527668Y-45906443D01*
X220519816Y-45928387D01*
X220509851Y-45949457D01*
X220497869Y-45969448D01*
X220483985Y-45988168D01*
X220468333Y-46005438D01*
X220451063Y-46021090D01*
X220432343Y-46034974D01*
X220412352Y-46046956D01*
X220391282Y-46056921D01*
X220369338Y-46064773D01*
X220346729Y-46070437D01*
X220323674Y-46073856D01*
X220300395Y-46075000D01*
X219725395Y-46075000D01*
X219702116Y-46073856D01*
X219679061Y-46070437D01*
X219656452Y-46064773D01*
X219634508Y-46056921D01*
X219613438Y-46046956D01*
X219593447Y-46034974D01*
X219574727Y-46021090D01*
X219557457Y-46005438D01*
X219541805Y-45988168D01*
X219527921Y-45969448D01*
X219515939Y-45949457D01*
X219505974Y-45928387D01*
X219498122Y-45906443D01*
X219492458Y-45883834D01*
X219489039Y-45860779D01*
X219487895Y-45837500D01*
X219487895Y-45362500D01*
X219489039Y-45339221D01*
X219492458Y-45316166D01*
X219498122Y-45293557D01*
X219505974Y-45271613D01*
X219515939Y-45250543D01*
X219527921Y-45230552D01*
X219541805Y-45211832D01*
X219557457Y-45194562D01*
X219574727Y-45178910D01*
X219593447Y-45165026D01*
X219613438Y-45153044D01*
X219634508Y-45143079D01*
X219656452Y-45135227D01*
X219679061Y-45129563D01*
X219702116Y-45126144D01*
X219725395Y-45125000D01*
X220300395Y-45125000D01*
X220323674Y-45126144D01*
X220323674Y-45126144D01*
G37*
D14*
X220012895Y-45600000D03*
G04 #@! TD*
D12*
G04 #@! TO.C,C3*
G36*
X218573674Y-46726144D02*
X218596729Y-46729563D01*
X218619338Y-46735227D01*
X218641282Y-46743079D01*
X218662352Y-46753044D01*
X218682343Y-46765026D01*
X218701063Y-46778910D01*
X218718333Y-46794562D01*
X218733985Y-46811832D01*
X218747869Y-46830552D01*
X218759851Y-46850543D01*
X218769816Y-46871613D01*
X218777668Y-46893557D01*
X218783332Y-46916166D01*
X218786751Y-46939221D01*
X218787895Y-46962500D01*
X218787895Y-47437500D01*
X218786751Y-47460779D01*
X218783332Y-47483834D01*
X218777668Y-47506443D01*
X218769816Y-47528387D01*
X218759851Y-47549457D01*
X218747869Y-47569448D01*
X218733985Y-47588168D01*
X218718333Y-47605438D01*
X218701063Y-47621090D01*
X218682343Y-47634974D01*
X218662352Y-47646956D01*
X218641282Y-47656921D01*
X218619338Y-47664773D01*
X218596729Y-47670437D01*
X218573674Y-47673856D01*
X218550395Y-47675000D01*
X217975395Y-47675000D01*
X217952116Y-47673856D01*
X217929061Y-47670437D01*
X217906452Y-47664773D01*
X217884508Y-47656921D01*
X217863438Y-47646956D01*
X217843447Y-47634974D01*
X217824727Y-47621090D01*
X217807457Y-47605438D01*
X217791805Y-47588168D01*
X217777921Y-47569448D01*
X217765939Y-47549457D01*
X217755974Y-47528387D01*
X217748122Y-47506443D01*
X217742458Y-47483834D01*
X217739039Y-47460779D01*
X217737895Y-47437500D01*
X217737895Y-46962500D01*
X217739039Y-46939221D01*
X217742458Y-46916166D01*
X217748122Y-46893557D01*
X217755974Y-46871613D01*
X217765939Y-46850543D01*
X217777921Y-46830552D01*
X217791805Y-46811832D01*
X217807457Y-46794562D01*
X217824727Y-46778910D01*
X217843447Y-46765026D01*
X217863438Y-46753044D01*
X217884508Y-46743079D01*
X217906452Y-46735227D01*
X217929061Y-46729563D01*
X217952116Y-46726144D01*
X217975395Y-46725000D01*
X218550395Y-46725000D01*
X218573674Y-46726144D01*
X218573674Y-46726144D01*
G37*
D14*
X218262895Y-47200000D03*
D12*
G36*
X220323674Y-46726144D02*
X220346729Y-46729563D01*
X220369338Y-46735227D01*
X220391282Y-46743079D01*
X220412352Y-46753044D01*
X220432343Y-46765026D01*
X220451063Y-46778910D01*
X220468333Y-46794562D01*
X220483985Y-46811832D01*
X220497869Y-46830552D01*
X220509851Y-46850543D01*
X220519816Y-46871613D01*
X220527668Y-46893557D01*
X220533332Y-46916166D01*
X220536751Y-46939221D01*
X220537895Y-46962500D01*
X220537895Y-47437500D01*
X220536751Y-47460779D01*
X220533332Y-47483834D01*
X220527668Y-47506443D01*
X220519816Y-47528387D01*
X220509851Y-47549457D01*
X220497869Y-47569448D01*
X220483985Y-47588168D01*
X220468333Y-47605438D01*
X220451063Y-47621090D01*
X220432343Y-47634974D01*
X220412352Y-47646956D01*
X220391282Y-47656921D01*
X220369338Y-47664773D01*
X220346729Y-47670437D01*
X220323674Y-47673856D01*
X220300395Y-47675000D01*
X219725395Y-47675000D01*
X219702116Y-47673856D01*
X219679061Y-47670437D01*
X219656452Y-47664773D01*
X219634508Y-47656921D01*
X219613438Y-47646956D01*
X219593447Y-47634974D01*
X219574727Y-47621090D01*
X219557457Y-47605438D01*
X219541805Y-47588168D01*
X219527921Y-47569448D01*
X219515939Y-47549457D01*
X219505974Y-47528387D01*
X219498122Y-47506443D01*
X219492458Y-47483834D01*
X219489039Y-47460779D01*
X219487895Y-47437500D01*
X219487895Y-46962500D01*
X219489039Y-46939221D01*
X219492458Y-46916166D01*
X219498122Y-46893557D01*
X219505974Y-46871613D01*
X219515939Y-46850543D01*
X219527921Y-46830552D01*
X219541805Y-46811832D01*
X219557457Y-46794562D01*
X219574727Y-46778910D01*
X219593447Y-46765026D01*
X219613438Y-46753044D01*
X219634508Y-46743079D01*
X219656452Y-46735227D01*
X219679061Y-46729563D01*
X219702116Y-46726144D01*
X219725395Y-46725000D01*
X220300395Y-46725000D01*
X220323674Y-46726144D01*
X220323674Y-46726144D01*
G37*
D14*
X220012895Y-47200000D03*
G04 #@! TD*
D12*
G04 #@! TO.C,L2*
G36*
X213937399Y-45076204D02*
X213961668Y-45079804D01*
X213985466Y-45085765D01*
X214008566Y-45094030D01*
X214030744Y-45104520D01*
X214051788Y-45117133D01*
X214071493Y-45131747D01*
X214089672Y-45148223D01*
X214106148Y-45166402D01*
X214120762Y-45186107D01*
X214133375Y-45207151D01*
X214143865Y-45229329D01*
X214152130Y-45252429D01*
X214158091Y-45276227D01*
X214161691Y-45300496D01*
X214162895Y-45325000D01*
X214162895Y-47475000D01*
X214161691Y-47499504D01*
X214158091Y-47523773D01*
X214152130Y-47547571D01*
X214143865Y-47570671D01*
X214133375Y-47592849D01*
X214120762Y-47613893D01*
X214106148Y-47633598D01*
X214089672Y-47651777D01*
X214071493Y-47668253D01*
X214051788Y-47682867D01*
X214030744Y-47695480D01*
X214008566Y-47705970D01*
X213985466Y-47714235D01*
X213961668Y-47720196D01*
X213937399Y-47723796D01*
X213912895Y-47725000D01*
X212987895Y-47725000D01*
X212963391Y-47723796D01*
X212939122Y-47720196D01*
X212915324Y-47714235D01*
X212892224Y-47705970D01*
X212870046Y-47695480D01*
X212849002Y-47682867D01*
X212829297Y-47668253D01*
X212811118Y-47651777D01*
X212794642Y-47633598D01*
X212780028Y-47613893D01*
X212767415Y-47592849D01*
X212756925Y-47570671D01*
X212748660Y-47547571D01*
X212742699Y-47523773D01*
X212739099Y-47499504D01*
X212737895Y-47475000D01*
X212737895Y-45325000D01*
X212739099Y-45300496D01*
X212742699Y-45276227D01*
X212748660Y-45252429D01*
X212756925Y-45229329D01*
X212767415Y-45207151D01*
X212780028Y-45186107D01*
X212794642Y-45166402D01*
X212811118Y-45148223D01*
X212829297Y-45131747D01*
X212849002Y-45117133D01*
X212870046Y-45104520D01*
X212892224Y-45094030D01*
X212915324Y-45085765D01*
X212939122Y-45079804D01*
X212963391Y-45076204D01*
X212987895Y-45075000D01*
X213912895Y-45075000D01*
X213937399Y-45076204D01*
X213937399Y-45076204D01*
G37*
D13*
X213450395Y-46400000D03*
D12*
G36*
X216912399Y-45076204D02*
X216936668Y-45079804D01*
X216960466Y-45085765D01*
X216983566Y-45094030D01*
X217005744Y-45104520D01*
X217026788Y-45117133D01*
X217046493Y-45131747D01*
X217064672Y-45148223D01*
X217081148Y-45166402D01*
X217095762Y-45186107D01*
X217108375Y-45207151D01*
X217118865Y-45229329D01*
X217127130Y-45252429D01*
X217133091Y-45276227D01*
X217136691Y-45300496D01*
X217137895Y-45325000D01*
X217137895Y-47475000D01*
X217136691Y-47499504D01*
X217133091Y-47523773D01*
X217127130Y-47547571D01*
X217118865Y-47570671D01*
X217108375Y-47592849D01*
X217095762Y-47613893D01*
X217081148Y-47633598D01*
X217064672Y-47651777D01*
X217046493Y-47668253D01*
X217026788Y-47682867D01*
X217005744Y-47695480D01*
X216983566Y-47705970D01*
X216960466Y-47714235D01*
X216936668Y-47720196D01*
X216912399Y-47723796D01*
X216887895Y-47725000D01*
X215962895Y-47725000D01*
X215938391Y-47723796D01*
X215914122Y-47720196D01*
X215890324Y-47714235D01*
X215867224Y-47705970D01*
X215845046Y-47695480D01*
X215824002Y-47682867D01*
X215804297Y-47668253D01*
X215786118Y-47651777D01*
X215769642Y-47633598D01*
X215755028Y-47613893D01*
X215742415Y-47592849D01*
X215731925Y-47570671D01*
X215723660Y-47547571D01*
X215717699Y-47523773D01*
X215714099Y-47499504D01*
X215712895Y-47475000D01*
X215712895Y-45325000D01*
X215714099Y-45300496D01*
X215717699Y-45276227D01*
X215723660Y-45252429D01*
X215731925Y-45229329D01*
X215742415Y-45207151D01*
X215755028Y-45186107D01*
X215769642Y-45166402D01*
X215786118Y-45148223D01*
X215804297Y-45131747D01*
X215824002Y-45117133D01*
X215845046Y-45104520D01*
X215867224Y-45094030D01*
X215890324Y-45085765D01*
X215914122Y-45079804D01*
X215938391Y-45076204D01*
X215962895Y-45075000D01*
X216887895Y-45075000D01*
X216912399Y-45076204D01*
X216912399Y-45076204D01*
G37*
D13*
X216425395Y-46400000D03*
G04 #@! TD*
D12*
G04 #@! TO.C,R11*
G36*
X221898674Y-46751144D02*
X221921729Y-46754563D01*
X221944338Y-46760227D01*
X221966282Y-46768079D01*
X221987352Y-46778044D01*
X222007343Y-46790026D01*
X222026063Y-46803910D01*
X222043333Y-46819562D01*
X222058985Y-46836832D01*
X222072869Y-46855552D01*
X222084851Y-46875543D01*
X222094816Y-46896613D01*
X222102668Y-46918557D01*
X222108332Y-46941166D01*
X222111751Y-46964221D01*
X222112895Y-46987500D01*
X222112895Y-47562500D01*
X222111751Y-47585779D01*
X222108332Y-47608834D01*
X222102668Y-47631443D01*
X222094816Y-47653387D01*
X222084851Y-47674457D01*
X222072869Y-47694448D01*
X222058985Y-47713168D01*
X222043333Y-47730438D01*
X222026063Y-47746090D01*
X222007343Y-47759974D01*
X221987352Y-47771956D01*
X221966282Y-47781921D01*
X221944338Y-47789773D01*
X221921729Y-47795437D01*
X221898674Y-47798856D01*
X221875395Y-47800000D01*
X221400395Y-47800000D01*
X221377116Y-47798856D01*
X221354061Y-47795437D01*
X221331452Y-47789773D01*
X221309508Y-47781921D01*
X221288438Y-47771956D01*
X221268447Y-47759974D01*
X221249727Y-47746090D01*
X221232457Y-47730438D01*
X221216805Y-47713168D01*
X221202921Y-47694448D01*
X221190939Y-47674457D01*
X221180974Y-47653387D01*
X221173122Y-47631443D01*
X221167458Y-47608834D01*
X221164039Y-47585779D01*
X221162895Y-47562500D01*
X221162895Y-46987500D01*
X221164039Y-46964221D01*
X221167458Y-46941166D01*
X221173122Y-46918557D01*
X221180974Y-46896613D01*
X221190939Y-46875543D01*
X221202921Y-46855552D01*
X221216805Y-46836832D01*
X221232457Y-46819562D01*
X221249727Y-46803910D01*
X221268447Y-46790026D01*
X221288438Y-46778044D01*
X221309508Y-46768079D01*
X221331452Y-46760227D01*
X221354061Y-46754563D01*
X221377116Y-46751144D01*
X221400395Y-46750000D01*
X221875395Y-46750000D01*
X221898674Y-46751144D01*
X221898674Y-46751144D01*
G37*
D14*
X221637895Y-47275000D03*
D12*
G36*
X221898674Y-45001144D02*
X221921729Y-45004563D01*
X221944338Y-45010227D01*
X221966282Y-45018079D01*
X221987352Y-45028044D01*
X222007343Y-45040026D01*
X222026063Y-45053910D01*
X222043333Y-45069562D01*
X222058985Y-45086832D01*
X222072869Y-45105552D01*
X222084851Y-45125543D01*
X222094816Y-45146613D01*
X222102668Y-45168557D01*
X222108332Y-45191166D01*
X222111751Y-45214221D01*
X222112895Y-45237500D01*
X222112895Y-45812500D01*
X222111751Y-45835779D01*
X222108332Y-45858834D01*
X222102668Y-45881443D01*
X222094816Y-45903387D01*
X222084851Y-45924457D01*
X222072869Y-45944448D01*
X222058985Y-45963168D01*
X222043333Y-45980438D01*
X222026063Y-45996090D01*
X222007343Y-46009974D01*
X221987352Y-46021956D01*
X221966282Y-46031921D01*
X221944338Y-46039773D01*
X221921729Y-46045437D01*
X221898674Y-46048856D01*
X221875395Y-46050000D01*
X221400395Y-46050000D01*
X221377116Y-46048856D01*
X221354061Y-46045437D01*
X221331452Y-46039773D01*
X221309508Y-46031921D01*
X221288438Y-46021956D01*
X221268447Y-46009974D01*
X221249727Y-45996090D01*
X221232457Y-45980438D01*
X221216805Y-45963168D01*
X221202921Y-45944448D01*
X221190939Y-45924457D01*
X221180974Y-45903387D01*
X221173122Y-45881443D01*
X221167458Y-45858834D01*
X221164039Y-45835779D01*
X221162895Y-45812500D01*
X221162895Y-45237500D01*
X221164039Y-45214221D01*
X221167458Y-45191166D01*
X221173122Y-45168557D01*
X221180974Y-45146613D01*
X221190939Y-45125543D01*
X221202921Y-45105552D01*
X221216805Y-45086832D01*
X221232457Y-45069562D01*
X221249727Y-45053910D01*
X221268447Y-45040026D01*
X221288438Y-45028044D01*
X221309508Y-45018079D01*
X221331452Y-45010227D01*
X221354061Y-45004563D01*
X221377116Y-45001144D01*
X221400395Y-45000000D01*
X221875395Y-45000000D01*
X221898674Y-45001144D01*
X221898674Y-45001144D01*
G37*
D14*
X221637895Y-45525000D03*
G04 #@! TD*
D12*
G04 #@! TO.C,R8*
G36*
X211798674Y-45001144D02*
X211821729Y-45004563D01*
X211844338Y-45010227D01*
X211866282Y-45018079D01*
X211887352Y-45028044D01*
X211907343Y-45040026D01*
X211926063Y-45053910D01*
X211943333Y-45069562D01*
X211958985Y-45086832D01*
X211972869Y-45105552D01*
X211984851Y-45125543D01*
X211994816Y-45146613D01*
X212002668Y-45168557D01*
X212008332Y-45191166D01*
X212011751Y-45214221D01*
X212012895Y-45237500D01*
X212012895Y-45812500D01*
X212011751Y-45835779D01*
X212008332Y-45858834D01*
X212002668Y-45881443D01*
X211994816Y-45903387D01*
X211984851Y-45924457D01*
X211972869Y-45944448D01*
X211958985Y-45963168D01*
X211943333Y-45980438D01*
X211926063Y-45996090D01*
X211907343Y-46009974D01*
X211887352Y-46021956D01*
X211866282Y-46031921D01*
X211844338Y-46039773D01*
X211821729Y-46045437D01*
X211798674Y-46048856D01*
X211775395Y-46050000D01*
X211300395Y-46050000D01*
X211277116Y-46048856D01*
X211254061Y-46045437D01*
X211231452Y-46039773D01*
X211209508Y-46031921D01*
X211188438Y-46021956D01*
X211168447Y-46009974D01*
X211149727Y-45996090D01*
X211132457Y-45980438D01*
X211116805Y-45963168D01*
X211102921Y-45944448D01*
X211090939Y-45924457D01*
X211080974Y-45903387D01*
X211073122Y-45881443D01*
X211067458Y-45858834D01*
X211064039Y-45835779D01*
X211062895Y-45812500D01*
X211062895Y-45237500D01*
X211064039Y-45214221D01*
X211067458Y-45191166D01*
X211073122Y-45168557D01*
X211080974Y-45146613D01*
X211090939Y-45125543D01*
X211102921Y-45105552D01*
X211116805Y-45086832D01*
X211132457Y-45069562D01*
X211149727Y-45053910D01*
X211168447Y-45040026D01*
X211188438Y-45028044D01*
X211209508Y-45018079D01*
X211231452Y-45010227D01*
X211254061Y-45004563D01*
X211277116Y-45001144D01*
X211300395Y-45000000D01*
X211775395Y-45000000D01*
X211798674Y-45001144D01*
X211798674Y-45001144D01*
G37*
D14*
X211537895Y-45525000D03*
D12*
G36*
X211798674Y-46751144D02*
X211821729Y-46754563D01*
X211844338Y-46760227D01*
X211866282Y-46768079D01*
X211887352Y-46778044D01*
X211907343Y-46790026D01*
X211926063Y-46803910D01*
X211943333Y-46819562D01*
X211958985Y-46836832D01*
X211972869Y-46855552D01*
X211984851Y-46875543D01*
X211994816Y-46896613D01*
X212002668Y-46918557D01*
X212008332Y-46941166D01*
X212011751Y-46964221D01*
X212012895Y-46987500D01*
X212012895Y-47562500D01*
X212011751Y-47585779D01*
X212008332Y-47608834D01*
X212002668Y-47631443D01*
X211994816Y-47653387D01*
X211984851Y-47674457D01*
X211972869Y-47694448D01*
X211958985Y-47713168D01*
X211943333Y-47730438D01*
X211926063Y-47746090D01*
X211907343Y-47759974D01*
X211887352Y-47771956D01*
X211866282Y-47781921D01*
X211844338Y-47789773D01*
X211821729Y-47795437D01*
X211798674Y-47798856D01*
X211775395Y-47800000D01*
X211300395Y-47800000D01*
X211277116Y-47798856D01*
X211254061Y-47795437D01*
X211231452Y-47789773D01*
X211209508Y-47781921D01*
X211188438Y-47771956D01*
X211168447Y-47759974D01*
X211149727Y-47746090D01*
X211132457Y-47730438D01*
X211116805Y-47713168D01*
X211102921Y-47694448D01*
X211090939Y-47674457D01*
X211080974Y-47653387D01*
X211073122Y-47631443D01*
X211067458Y-47608834D01*
X211064039Y-47585779D01*
X211062895Y-47562500D01*
X211062895Y-46987500D01*
X211064039Y-46964221D01*
X211067458Y-46941166D01*
X211073122Y-46918557D01*
X211080974Y-46896613D01*
X211090939Y-46875543D01*
X211102921Y-46855552D01*
X211116805Y-46836832D01*
X211132457Y-46819562D01*
X211149727Y-46803910D01*
X211168447Y-46790026D01*
X211188438Y-46778044D01*
X211209508Y-46768079D01*
X211231452Y-46760227D01*
X211254061Y-46754563D01*
X211277116Y-46751144D01*
X211300395Y-46750000D01*
X211775395Y-46750000D01*
X211798674Y-46751144D01*
X211798674Y-46751144D01*
G37*
D14*
X211537895Y-47275000D03*
G04 #@! TD*
D12*
G04 #@! TO.C,R7*
G36*
X210198674Y-45001144D02*
X210221729Y-45004563D01*
X210244338Y-45010227D01*
X210266282Y-45018079D01*
X210287352Y-45028044D01*
X210307343Y-45040026D01*
X210326063Y-45053910D01*
X210343333Y-45069562D01*
X210358985Y-45086832D01*
X210372869Y-45105552D01*
X210384851Y-45125543D01*
X210394816Y-45146613D01*
X210402668Y-45168557D01*
X210408332Y-45191166D01*
X210411751Y-45214221D01*
X210412895Y-45237500D01*
X210412895Y-45812500D01*
X210411751Y-45835779D01*
X210408332Y-45858834D01*
X210402668Y-45881443D01*
X210394816Y-45903387D01*
X210384851Y-45924457D01*
X210372869Y-45944448D01*
X210358985Y-45963168D01*
X210343333Y-45980438D01*
X210326063Y-45996090D01*
X210307343Y-46009974D01*
X210287352Y-46021956D01*
X210266282Y-46031921D01*
X210244338Y-46039773D01*
X210221729Y-46045437D01*
X210198674Y-46048856D01*
X210175395Y-46050000D01*
X209700395Y-46050000D01*
X209677116Y-46048856D01*
X209654061Y-46045437D01*
X209631452Y-46039773D01*
X209609508Y-46031921D01*
X209588438Y-46021956D01*
X209568447Y-46009974D01*
X209549727Y-45996090D01*
X209532457Y-45980438D01*
X209516805Y-45963168D01*
X209502921Y-45944448D01*
X209490939Y-45924457D01*
X209480974Y-45903387D01*
X209473122Y-45881443D01*
X209467458Y-45858834D01*
X209464039Y-45835779D01*
X209462895Y-45812500D01*
X209462895Y-45237500D01*
X209464039Y-45214221D01*
X209467458Y-45191166D01*
X209473122Y-45168557D01*
X209480974Y-45146613D01*
X209490939Y-45125543D01*
X209502921Y-45105552D01*
X209516805Y-45086832D01*
X209532457Y-45069562D01*
X209549727Y-45053910D01*
X209568447Y-45040026D01*
X209588438Y-45028044D01*
X209609508Y-45018079D01*
X209631452Y-45010227D01*
X209654061Y-45004563D01*
X209677116Y-45001144D01*
X209700395Y-45000000D01*
X210175395Y-45000000D01*
X210198674Y-45001144D01*
X210198674Y-45001144D01*
G37*
D14*
X209937895Y-45525000D03*
D12*
G36*
X210198674Y-46751144D02*
X210221729Y-46754563D01*
X210244338Y-46760227D01*
X210266282Y-46768079D01*
X210287352Y-46778044D01*
X210307343Y-46790026D01*
X210326063Y-46803910D01*
X210343333Y-46819562D01*
X210358985Y-46836832D01*
X210372869Y-46855552D01*
X210384851Y-46875543D01*
X210394816Y-46896613D01*
X210402668Y-46918557D01*
X210408332Y-46941166D01*
X210411751Y-46964221D01*
X210412895Y-46987500D01*
X210412895Y-47562500D01*
X210411751Y-47585779D01*
X210408332Y-47608834D01*
X210402668Y-47631443D01*
X210394816Y-47653387D01*
X210384851Y-47674457D01*
X210372869Y-47694448D01*
X210358985Y-47713168D01*
X210343333Y-47730438D01*
X210326063Y-47746090D01*
X210307343Y-47759974D01*
X210287352Y-47771956D01*
X210266282Y-47781921D01*
X210244338Y-47789773D01*
X210221729Y-47795437D01*
X210198674Y-47798856D01*
X210175395Y-47800000D01*
X209700395Y-47800000D01*
X209677116Y-47798856D01*
X209654061Y-47795437D01*
X209631452Y-47789773D01*
X209609508Y-47781921D01*
X209588438Y-47771956D01*
X209568447Y-47759974D01*
X209549727Y-47746090D01*
X209532457Y-47730438D01*
X209516805Y-47713168D01*
X209502921Y-47694448D01*
X209490939Y-47674457D01*
X209480974Y-47653387D01*
X209473122Y-47631443D01*
X209467458Y-47608834D01*
X209464039Y-47585779D01*
X209462895Y-47562500D01*
X209462895Y-46987500D01*
X209464039Y-46964221D01*
X209467458Y-46941166D01*
X209473122Y-46918557D01*
X209480974Y-46896613D01*
X209490939Y-46875543D01*
X209502921Y-46855552D01*
X209516805Y-46836832D01*
X209532457Y-46819562D01*
X209549727Y-46803910D01*
X209568447Y-46790026D01*
X209588438Y-46778044D01*
X209609508Y-46768079D01*
X209631452Y-46760227D01*
X209654061Y-46754563D01*
X209677116Y-46751144D01*
X209700395Y-46750000D01*
X210175395Y-46750000D01*
X210198674Y-46751144D01*
X210198674Y-46751144D01*
G37*
D14*
X209937895Y-47275000D03*
G04 #@! TD*
D12*
G04 #@! TO.C,C1*
G36*
X214860779Y-49201144D02*
X214883834Y-49204563D01*
X214906443Y-49210227D01*
X214928387Y-49218079D01*
X214949457Y-49228044D01*
X214969448Y-49240026D01*
X214988168Y-49253910D01*
X215005438Y-49269562D01*
X215021090Y-49286832D01*
X215034974Y-49305552D01*
X215046956Y-49325543D01*
X215056921Y-49346613D01*
X215064773Y-49368557D01*
X215070437Y-49391166D01*
X215073856Y-49414221D01*
X215075000Y-49437500D01*
X215075000Y-50012500D01*
X215073856Y-50035779D01*
X215070437Y-50058834D01*
X215064773Y-50081443D01*
X215056921Y-50103387D01*
X215046956Y-50124457D01*
X215034974Y-50144448D01*
X215021090Y-50163168D01*
X215005438Y-50180438D01*
X214988168Y-50196090D01*
X214969448Y-50209974D01*
X214949457Y-50221956D01*
X214928387Y-50231921D01*
X214906443Y-50239773D01*
X214883834Y-50245437D01*
X214860779Y-50248856D01*
X214837500Y-50250000D01*
X214362500Y-50250000D01*
X214339221Y-50248856D01*
X214316166Y-50245437D01*
X214293557Y-50239773D01*
X214271613Y-50231921D01*
X214250543Y-50221956D01*
X214230552Y-50209974D01*
X214211832Y-50196090D01*
X214194562Y-50180438D01*
X214178910Y-50163168D01*
X214165026Y-50144448D01*
X214153044Y-50124457D01*
X214143079Y-50103387D01*
X214135227Y-50081443D01*
X214129563Y-50058834D01*
X214126144Y-50035779D01*
X214125000Y-50012500D01*
X214125000Y-49437500D01*
X214126144Y-49414221D01*
X214129563Y-49391166D01*
X214135227Y-49368557D01*
X214143079Y-49346613D01*
X214153044Y-49325543D01*
X214165026Y-49305552D01*
X214178910Y-49286832D01*
X214194562Y-49269562D01*
X214211832Y-49253910D01*
X214230552Y-49240026D01*
X214250543Y-49228044D01*
X214271613Y-49218079D01*
X214293557Y-49210227D01*
X214316166Y-49204563D01*
X214339221Y-49201144D01*
X214362500Y-49200000D01*
X214837500Y-49200000D01*
X214860779Y-49201144D01*
X214860779Y-49201144D01*
G37*
D14*
X214600000Y-49725000D03*
D12*
G36*
X214860779Y-50951144D02*
X214883834Y-50954563D01*
X214906443Y-50960227D01*
X214928387Y-50968079D01*
X214949457Y-50978044D01*
X214969448Y-50990026D01*
X214988168Y-51003910D01*
X215005438Y-51019562D01*
X215021090Y-51036832D01*
X215034974Y-51055552D01*
X215046956Y-51075543D01*
X215056921Y-51096613D01*
X215064773Y-51118557D01*
X215070437Y-51141166D01*
X215073856Y-51164221D01*
X215075000Y-51187500D01*
X215075000Y-51762500D01*
X215073856Y-51785779D01*
X215070437Y-51808834D01*
X215064773Y-51831443D01*
X215056921Y-51853387D01*
X215046956Y-51874457D01*
X215034974Y-51894448D01*
X215021090Y-51913168D01*
X215005438Y-51930438D01*
X214988168Y-51946090D01*
X214969448Y-51959974D01*
X214949457Y-51971956D01*
X214928387Y-51981921D01*
X214906443Y-51989773D01*
X214883834Y-51995437D01*
X214860779Y-51998856D01*
X214837500Y-52000000D01*
X214362500Y-52000000D01*
X214339221Y-51998856D01*
X214316166Y-51995437D01*
X214293557Y-51989773D01*
X214271613Y-51981921D01*
X214250543Y-51971956D01*
X214230552Y-51959974D01*
X214211832Y-51946090D01*
X214194562Y-51930438D01*
X214178910Y-51913168D01*
X214165026Y-51894448D01*
X214153044Y-51874457D01*
X214143079Y-51853387D01*
X214135227Y-51831443D01*
X214129563Y-51808834D01*
X214126144Y-51785779D01*
X214125000Y-51762500D01*
X214125000Y-51187500D01*
X214126144Y-51164221D01*
X214129563Y-51141166D01*
X214135227Y-51118557D01*
X214143079Y-51096613D01*
X214153044Y-51075543D01*
X214165026Y-51055552D01*
X214178910Y-51036832D01*
X214194562Y-51019562D01*
X214211832Y-51003910D01*
X214230552Y-50990026D01*
X214250543Y-50978044D01*
X214271613Y-50968079D01*
X214293557Y-50960227D01*
X214316166Y-50954563D01*
X214339221Y-50951144D01*
X214362500Y-50950000D01*
X214837500Y-50950000D01*
X214860779Y-50951144D01*
X214860779Y-50951144D01*
G37*
D14*
X214600000Y-51475000D03*
G04 #@! TD*
D12*
G04 #@! TO.C,C2*
G36*
X221185779Y-60826144D02*
X221208834Y-60829563D01*
X221231443Y-60835227D01*
X221253387Y-60843079D01*
X221274457Y-60853044D01*
X221294448Y-60865026D01*
X221313168Y-60878910D01*
X221330438Y-60894562D01*
X221346090Y-60911832D01*
X221359974Y-60930552D01*
X221371956Y-60950543D01*
X221381921Y-60971613D01*
X221389773Y-60993557D01*
X221395437Y-61016166D01*
X221398856Y-61039221D01*
X221400000Y-61062500D01*
X221400000Y-61537500D01*
X221398856Y-61560779D01*
X221395437Y-61583834D01*
X221389773Y-61606443D01*
X221381921Y-61628387D01*
X221371956Y-61649457D01*
X221359974Y-61669448D01*
X221346090Y-61688168D01*
X221330438Y-61705438D01*
X221313168Y-61721090D01*
X221294448Y-61734974D01*
X221274457Y-61746956D01*
X221253387Y-61756921D01*
X221231443Y-61764773D01*
X221208834Y-61770437D01*
X221185779Y-61773856D01*
X221162500Y-61775000D01*
X220587500Y-61775000D01*
X220564221Y-61773856D01*
X220541166Y-61770437D01*
X220518557Y-61764773D01*
X220496613Y-61756921D01*
X220475543Y-61746956D01*
X220455552Y-61734974D01*
X220436832Y-61721090D01*
X220419562Y-61705438D01*
X220403910Y-61688168D01*
X220390026Y-61669448D01*
X220378044Y-61649457D01*
X220368079Y-61628387D01*
X220360227Y-61606443D01*
X220354563Y-61583834D01*
X220351144Y-61560779D01*
X220350000Y-61537500D01*
X220350000Y-61062500D01*
X220351144Y-61039221D01*
X220354563Y-61016166D01*
X220360227Y-60993557D01*
X220368079Y-60971613D01*
X220378044Y-60950543D01*
X220390026Y-60930552D01*
X220403910Y-60911832D01*
X220419562Y-60894562D01*
X220436832Y-60878910D01*
X220455552Y-60865026D01*
X220475543Y-60853044D01*
X220496613Y-60843079D01*
X220518557Y-60835227D01*
X220541166Y-60829563D01*
X220564221Y-60826144D01*
X220587500Y-60825000D01*
X221162500Y-60825000D01*
X221185779Y-60826144D01*
X221185779Y-60826144D01*
G37*
D14*
X220875000Y-61300000D03*
D12*
G36*
X219435779Y-60826144D02*
X219458834Y-60829563D01*
X219481443Y-60835227D01*
X219503387Y-60843079D01*
X219524457Y-60853044D01*
X219544448Y-60865026D01*
X219563168Y-60878910D01*
X219580438Y-60894562D01*
X219596090Y-60911832D01*
X219609974Y-60930552D01*
X219621956Y-60950543D01*
X219631921Y-60971613D01*
X219639773Y-60993557D01*
X219645437Y-61016166D01*
X219648856Y-61039221D01*
X219650000Y-61062500D01*
X219650000Y-61537500D01*
X219648856Y-61560779D01*
X219645437Y-61583834D01*
X219639773Y-61606443D01*
X219631921Y-61628387D01*
X219621956Y-61649457D01*
X219609974Y-61669448D01*
X219596090Y-61688168D01*
X219580438Y-61705438D01*
X219563168Y-61721090D01*
X219544448Y-61734974D01*
X219524457Y-61746956D01*
X219503387Y-61756921D01*
X219481443Y-61764773D01*
X219458834Y-61770437D01*
X219435779Y-61773856D01*
X219412500Y-61775000D01*
X218837500Y-61775000D01*
X218814221Y-61773856D01*
X218791166Y-61770437D01*
X218768557Y-61764773D01*
X218746613Y-61756921D01*
X218725543Y-61746956D01*
X218705552Y-61734974D01*
X218686832Y-61721090D01*
X218669562Y-61705438D01*
X218653910Y-61688168D01*
X218640026Y-61669448D01*
X218628044Y-61649457D01*
X218618079Y-61628387D01*
X218610227Y-61606443D01*
X218604563Y-61583834D01*
X218601144Y-61560779D01*
X218600000Y-61537500D01*
X218600000Y-61062500D01*
X218601144Y-61039221D01*
X218604563Y-61016166D01*
X218610227Y-60993557D01*
X218618079Y-60971613D01*
X218628044Y-60950543D01*
X218640026Y-60930552D01*
X218653910Y-60911832D01*
X218669562Y-60894562D01*
X218686832Y-60878910D01*
X218705552Y-60865026D01*
X218725543Y-60853044D01*
X218746613Y-60843079D01*
X218768557Y-60835227D01*
X218791166Y-60829563D01*
X218814221Y-60826144D01*
X218837500Y-60825000D01*
X219412500Y-60825000D01*
X219435779Y-60826144D01*
X219435779Y-60826144D01*
G37*
D14*
X219125000Y-61300000D03*
G04 #@! TD*
D12*
G04 #@! TO.C,L1*
G36*
X217774504Y-59176204D02*
X217798773Y-59179804D01*
X217822571Y-59185765D01*
X217845671Y-59194030D01*
X217867849Y-59204520D01*
X217888893Y-59217133D01*
X217908598Y-59231747D01*
X217926777Y-59248223D01*
X217943253Y-59266402D01*
X217957867Y-59286107D01*
X217970480Y-59307151D01*
X217980970Y-59329329D01*
X217989235Y-59352429D01*
X217995196Y-59376227D01*
X217998796Y-59400496D01*
X218000000Y-59425000D01*
X218000000Y-61575000D01*
X217998796Y-61599504D01*
X217995196Y-61623773D01*
X217989235Y-61647571D01*
X217980970Y-61670671D01*
X217970480Y-61692849D01*
X217957867Y-61713893D01*
X217943253Y-61733598D01*
X217926777Y-61751777D01*
X217908598Y-61768253D01*
X217888893Y-61782867D01*
X217867849Y-61795480D01*
X217845671Y-61805970D01*
X217822571Y-61814235D01*
X217798773Y-61820196D01*
X217774504Y-61823796D01*
X217750000Y-61825000D01*
X216825000Y-61825000D01*
X216800496Y-61823796D01*
X216776227Y-61820196D01*
X216752429Y-61814235D01*
X216729329Y-61805970D01*
X216707151Y-61795480D01*
X216686107Y-61782867D01*
X216666402Y-61768253D01*
X216648223Y-61751777D01*
X216631747Y-61733598D01*
X216617133Y-61713893D01*
X216604520Y-61692849D01*
X216594030Y-61670671D01*
X216585765Y-61647571D01*
X216579804Y-61623773D01*
X216576204Y-61599504D01*
X216575000Y-61575000D01*
X216575000Y-59425000D01*
X216576204Y-59400496D01*
X216579804Y-59376227D01*
X216585765Y-59352429D01*
X216594030Y-59329329D01*
X216604520Y-59307151D01*
X216617133Y-59286107D01*
X216631747Y-59266402D01*
X216648223Y-59248223D01*
X216666402Y-59231747D01*
X216686107Y-59217133D01*
X216707151Y-59204520D01*
X216729329Y-59194030D01*
X216752429Y-59185765D01*
X216776227Y-59179804D01*
X216800496Y-59176204D01*
X216825000Y-59175000D01*
X217750000Y-59175000D01*
X217774504Y-59176204D01*
X217774504Y-59176204D01*
G37*
D13*
X217287500Y-60500000D03*
D12*
G36*
X214799504Y-59176204D02*
X214823773Y-59179804D01*
X214847571Y-59185765D01*
X214870671Y-59194030D01*
X214892849Y-59204520D01*
X214913893Y-59217133D01*
X214933598Y-59231747D01*
X214951777Y-59248223D01*
X214968253Y-59266402D01*
X214982867Y-59286107D01*
X214995480Y-59307151D01*
X215005970Y-59329329D01*
X215014235Y-59352429D01*
X215020196Y-59376227D01*
X215023796Y-59400496D01*
X215025000Y-59425000D01*
X215025000Y-61575000D01*
X215023796Y-61599504D01*
X215020196Y-61623773D01*
X215014235Y-61647571D01*
X215005970Y-61670671D01*
X214995480Y-61692849D01*
X214982867Y-61713893D01*
X214968253Y-61733598D01*
X214951777Y-61751777D01*
X214933598Y-61768253D01*
X214913893Y-61782867D01*
X214892849Y-61795480D01*
X214870671Y-61805970D01*
X214847571Y-61814235D01*
X214823773Y-61820196D01*
X214799504Y-61823796D01*
X214775000Y-61825000D01*
X213850000Y-61825000D01*
X213825496Y-61823796D01*
X213801227Y-61820196D01*
X213777429Y-61814235D01*
X213754329Y-61805970D01*
X213732151Y-61795480D01*
X213711107Y-61782867D01*
X213691402Y-61768253D01*
X213673223Y-61751777D01*
X213656747Y-61733598D01*
X213642133Y-61713893D01*
X213629520Y-61692849D01*
X213619030Y-61670671D01*
X213610765Y-61647571D01*
X213604804Y-61623773D01*
X213601204Y-61599504D01*
X213600000Y-61575000D01*
X213600000Y-59425000D01*
X213601204Y-59400496D01*
X213604804Y-59376227D01*
X213610765Y-59352429D01*
X213619030Y-59329329D01*
X213629520Y-59307151D01*
X213642133Y-59286107D01*
X213656747Y-59266402D01*
X213673223Y-59248223D01*
X213691402Y-59231747D01*
X213711107Y-59217133D01*
X213732151Y-59204520D01*
X213754329Y-59194030D01*
X213777429Y-59185765D01*
X213801227Y-59179804D01*
X213825496Y-59176204D01*
X213850000Y-59175000D01*
X214775000Y-59175000D01*
X214799504Y-59176204D01*
X214799504Y-59176204D01*
G37*
D13*
X214312500Y-60500000D03*
G04 #@! TD*
D11*
G04 #@! TO.C,Q1*
X225400000Y-54520000D03*
X225400000Y-59080000D03*
D10*
X233375000Y-58325000D03*
X230025000Y-55275000D03*
X233375000Y-55275000D03*
X230025000Y-58325000D03*
G04 #@! TD*
D12*
G04 #@! TO.C,R1*
G36*
X214460779Y-54201144D02*
X214483834Y-54204563D01*
X214506443Y-54210227D01*
X214528387Y-54218079D01*
X214549457Y-54228044D01*
X214569448Y-54240026D01*
X214588168Y-54253910D01*
X214605438Y-54269562D01*
X214621090Y-54286832D01*
X214634974Y-54305552D01*
X214646956Y-54325543D01*
X214656921Y-54346613D01*
X214664773Y-54368557D01*
X214670437Y-54391166D01*
X214673856Y-54414221D01*
X214675000Y-54437500D01*
X214675000Y-55012500D01*
X214673856Y-55035779D01*
X214670437Y-55058834D01*
X214664773Y-55081443D01*
X214656921Y-55103387D01*
X214646956Y-55124457D01*
X214634974Y-55144448D01*
X214621090Y-55163168D01*
X214605438Y-55180438D01*
X214588168Y-55196090D01*
X214569448Y-55209974D01*
X214549457Y-55221956D01*
X214528387Y-55231921D01*
X214506443Y-55239773D01*
X214483834Y-55245437D01*
X214460779Y-55248856D01*
X214437500Y-55250000D01*
X213962500Y-55250000D01*
X213939221Y-55248856D01*
X213916166Y-55245437D01*
X213893557Y-55239773D01*
X213871613Y-55231921D01*
X213850543Y-55221956D01*
X213830552Y-55209974D01*
X213811832Y-55196090D01*
X213794562Y-55180438D01*
X213778910Y-55163168D01*
X213765026Y-55144448D01*
X213753044Y-55124457D01*
X213743079Y-55103387D01*
X213735227Y-55081443D01*
X213729563Y-55058834D01*
X213726144Y-55035779D01*
X213725000Y-55012500D01*
X213725000Y-54437500D01*
X213726144Y-54414221D01*
X213729563Y-54391166D01*
X213735227Y-54368557D01*
X213743079Y-54346613D01*
X213753044Y-54325543D01*
X213765026Y-54305552D01*
X213778910Y-54286832D01*
X213794562Y-54269562D01*
X213811832Y-54253910D01*
X213830552Y-54240026D01*
X213850543Y-54228044D01*
X213871613Y-54218079D01*
X213893557Y-54210227D01*
X213916166Y-54204563D01*
X213939221Y-54201144D01*
X213962500Y-54200000D01*
X214437500Y-54200000D01*
X214460779Y-54201144D01*
X214460779Y-54201144D01*
G37*
D14*
X214200000Y-54725000D03*
D12*
G36*
X214460779Y-55951144D02*
X214483834Y-55954563D01*
X214506443Y-55960227D01*
X214528387Y-55968079D01*
X214549457Y-55978044D01*
X214569448Y-55990026D01*
X214588168Y-56003910D01*
X214605438Y-56019562D01*
X214621090Y-56036832D01*
X214634974Y-56055552D01*
X214646956Y-56075543D01*
X214656921Y-56096613D01*
X214664773Y-56118557D01*
X214670437Y-56141166D01*
X214673856Y-56164221D01*
X214675000Y-56187500D01*
X214675000Y-56762500D01*
X214673856Y-56785779D01*
X214670437Y-56808834D01*
X214664773Y-56831443D01*
X214656921Y-56853387D01*
X214646956Y-56874457D01*
X214634974Y-56894448D01*
X214621090Y-56913168D01*
X214605438Y-56930438D01*
X214588168Y-56946090D01*
X214569448Y-56959974D01*
X214549457Y-56971956D01*
X214528387Y-56981921D01*
X214506443Y-56989773D01*
X214483834Y-56995437D01*
X214460779Y-56998856D01*
X214437500Y-57000000D01*
X213962500Y-57000000D01*
X213939221Y-56998856D01*
X213916166Y-56995437D01*
X213893557Y-56989773D01*
X213871613Y-56981921D01*
X213850543Y-56971956D01*
X213830552Y-56959974D01*
X213811832Y-56946090D01*
X213794562Y-56930438D01*
X213778910Y-56913168D01*
X213765026Y-56894448D01*
X213753044Y-56874457D01*
X213743079Y-56853387D01*
X213735227Y-56831443D01*
X213729563Y-56808834D01*
X213726144Y-56785779D01*
X213725000Y-56762500D01*
X213725000Y-56187500D01*
X213726144Y-56164221D01*
X213729563Y-56141166D01*
X213735227Y-56118557D01*
X213743079Y-56096613D01*
X213753044Y-56075543D01*
X213765026Y-56055552D01*
X213778910Y-56036832D01*
X213794562Y-56019562D01*
X213811832Y-56003910D01*
X213830552Y-55990026D01*
X213850543Y-55978044D01*
X213871613Y-55968079D01*
X213893557Y-55960227D01*
X213916166Y-55954563D01*
X213939221Y-55951144D01*
X213962500Y-55950000D01*
X214437500Y-55950000D01*
X214460779Y-55951144D01*
X214460779Y-55951144D01*
G37*
D14*
X214200000Y-56475000D03*
G04 #@! TD*
D12*
G04 #@! TO.C,R2*
G36*
X214435779Y-57626144D02*
X214458834Y-57629563D01*
X214481443Y-57635227D01*
X214503387Y-57643079D01*
X214524457Y-57653044D01*
X214544448Y-57665026D01*
X214563168Y-57678910D01*
X214580438Y-57694562D01*
X214596090Y-57711832D01*
X214609974Y-57730552D01*
X214621956Y-57750543D01*
X214631921Y-57771613D01*
X214639773Y-57793557D01*
X214645437Y-57816166D01*
X214648856Y-57839221D01*
X214650000Y-57862500D01*
X214650000Y-58337500D01*
X214648856Y-58360779D01*
X214645437Y-58383834D01*
X214639773Y-58406443D01*
X214631921Y-58428387D01*
X214621956Y-58449457D01*
X214609974Y-58469448D01*
X214596090Y-58488168D01*
X214580438Y-58505438D01*
X214563168Y-58521090D01*
X214544448Y-58534974D01*
X214524457Y-58546956D01*
X214503387Y-58556921D01*
X214481443Y-58564773D01*
X214458834Y-58570437D01*
X214435779Y-58573856D01*
X214412500Y-58575000D01*
X213837500Y-58575000D01*
X213814221Y-58573856D01*
X213791166Y-58570437D01*
X213768557Y-58564773D01*
X213746613Y-58556921D01*
X213725543Y-58546956D01*
X213705552Y-58534974D01*
X213686832Y-58521090D01*
X213669562Y-58505438D01*
X213653910Y-58488168D01*
X213640026Y-58469448D01*
X213628044Y-58449457D01*
X213618079Y-58428387D01*
X213610227Y-58406443D01*
X213604563Y-58383834D01*
X213601144Y-58360779D01*
X213600000Y-58337500D01*
X213600000Y-57862500D01*
X213601144Y-57839221D01*
X213604563Y-57816166D01*
X213610227Y-57793557D01*
X213618079Y-57771613D01*
X213628044Y-57750543D01*
X213640026Y-57730552D01*
X213653910Y-57711832D01*
X213669562Y-57694562D01*
X213686832Y-57678910D01*
X213705552Y-57665026D01*
X213725543Y-57653044D01*
X213746613Y-57643079D01*
X213768557Y-57635227D01*
X213791166Y-57629563D01*
X213814221Y-57626144D01*
X213837500Y-57625000D01*
X214412500Y-57625000D01*
X214435779Y-57626144D01*
X214435779Y-57626144D01*
G37*
D14*
X214125000Y-58100000D03*
D12*
G36*
X216185779Y-57626144D02*
X216208834Y-57629563D01*
X216231443Y-57635227D01*
X216253387Y-57643079D01*
X216274457Y-57653044D01*
X216294448Y-57665026D01*
X216313168Y-57678910D01*
X216330438Y-57694562D01*
X216346090Y-57711832D01*
X216359974Y-57730552D01*
X216371956Y-57750543D01*
X216381921Y-57771613D01*
X216389773Y-57793557D01*
X216395437Y-57816166D01*
X216398856Y-57839221D01*
X216400000Y-57862500D01*
X216400000Y-58337500D01*
X216398856Y-58360779D01*
X216395437Y-58383834D01*
X216389773Y-58406443D01*
X216381921Y-58428387D01*
X216371956Y-58449457D01*
X216359974Y-58469448D01*
X216346090Y-58488168D01*
X216330438Y-58505438D01*
X216313168Y-58521090D01*
X216294448Y-58534974D01*
X216274457Y-58546956D01*
X216253387Y-58556921D01*
X216231443Y-58564773D01*
X216208834Y-58570437D01*
X216185779Y-58573856D01*
X216162500Y-58575000D01*
X215587500Y-58575000D01*
X215564221Y-58573856D01*
X215541166Y-58570437D01*
X215518557Y-58564773D01*
X215496613Y-58556921D01*
X215475543Y-58546956D01*
X215455552Y-58534974D01*
X215436832Y-58521090D01*
X215419562Y-58505438D01*
X215403910Y-58488168D01*
X215390026Y-58469448D01*
X215378044Y-58449457D01*
X215368079Y-58428387D01*
X215360227Y-58406443D01*
X215354563Y-58383834D01*
X215351144Y-58360779D01*
X215350000Y-58337500D01*
X215350000Y-57862500D01*
X215351144Y-57839221D01*
X215354563Y-57816166D01*
X215360227Y-57793557D01*
X215368079Y-57771613D01*
X215378044Y-57750543D01*
X215390026Y-57730552D01*
X215403910Y-57711832D01*
X215419562Y-57694562D01*
X215436832Y-57678910D01*
X215455552Y-57665026D01*
X215475543Y-57653044D01*
X215496613Y-57643079D01*
X215518557Y-57635227D01*
X215541166Y-57629563D01*
X215564221Y-57626144D01*
X215587500Y-57625000D01*
X216162500Y-57625000D01*
X216185779Y-57626144D01*
X216185779Y-57626144D01*
G37*
D14*
X215875000Y-58100000D03*
G04 #@! TD*
D12*
G04 #@! TO.C,R3*
G36*
X223460779Y-55651144D02*
X223483834Y-55654563D01*
X223506443Y-55660227D01*
X223528387Y-55668079D01*
X223549457Y-55678044D01*
X223569448Y-55690026D01*
X223588168Y-55703910D01*
X223605438Y-55719562D01*
X223621090Y-55736832D01*
X223634974Y-55755552D01*
X223646956Y-55775543D01*
X223656921Y-55796613D01*
X223664773Y-55818557D01*
X223670437Y-55841166D01*
X223673856Y-55864221D01*
X223675000Y-55887500D01*
X223675000Y-56462500D01*
X223673856Y-56485779D01*
X223670437Y-56508834D01*
X223664773Y-56531443D01*
X223656921Y-56553387D01*
X223646956Y-56574457D01*
X223634974Y-56594448D01*
X223621090Y-56613168D01*
X223605438Y-56630438D01*
X223588168Y-56646090D01*
X223569448Y-56659974D01*
X223549457Y-56671956D01*
X223528387Y-56681921D01*
X223506443Y-56689773D01*
X223483834Y-56695437D01*
X223460779Y-56698856D01*
X223437500Y-56700000D01*
X222962500Y-56700000D01*
X222939221Y-56698856D01*
X222916166Y-56695437D01*
X222893557Y-56689773D01*
X222871613Y-56681921D01*
X222850543Y-56671956D01*
X222830552Y-56659974D01*
X222811832Y-56646090D01*
X222794562Y-56630438D01*
X222778910Y-56613168D01*
X222765026Y-56594448D01*
X222753044Y-56574457D01*
X222743079Y-56553387D01*
X222735227Y-56531443D01*
X222729563Y-56508834D01*
X222726144Y-56485779D01*
X222725000Y-56462500D01*
X222725000Y-55887500D01*
X222726144Y-55864221D01*
X222729563Y-55841166D01*
X222735227Y-55818557D01*
X222743079Y-55796613D01*
X222753044Y-55775543D01*
X222765026Y-55755552D01*
X222778910Y-55736832D01*
X222794562Y-55719562D01*
X222811832Y-55703910D01*
X222830552Y-55690026D01*
X222850543Y-55678044D01*
X222871613Y-55668079D01*
X222893557Y-55660227D01*
X222916166Y-55654563D01*
X222939221Y-55651144D01*
X222962500Y-55650000D01*
X223437500Y-55650000D01*
X223460779Y-55651144D01*
X223460779Y-55651144D01*
G37*
D14*
X223200000Y-56175000D03*
D12*
G36*
X223460779Y-53901144D02*
X223483834Y-53904563D01*
X223506443Y-53910227D01*
X223528387Y-53918079D01*
X223549457Y-53928044D01*
X223569448Y-53940026D01*
X223588168Y-53953910D01*
X223605438Y-53969562D01*
X223621090Y-53986832D01*
X223634974Y-54005552D01*
X223646956Y-54025543D01*
X223656921Y-54046613D01*
X223664773Y-54068557D01*
X223670437Y-54091166D01*
X223673856Y-54114221D01*
X223675000Y-54137500D01*
X223675000Y-54712500D01*
X223673856Y-54735779D01*
X223670437Y-54758834D01*
X223664773Y-54781443D01*
X223656921Y-54803387D01*
X223646956Y-54824457D01*
X223634974Y-54844448D01*
X223621090Y-54863168D01*
X223605438Y-54880438D01*
X223588168Y-54896090D01*
X223569448Y-54909974D01*
X223549457Y-54921956D01*
X223528387Y-54931921D01*
X223506443Y-54939773D01*
X223483834Y-54945437D01*
X223460779Y-54948856D01*
X223437500Y-54950000D01*
X222962500Y-54950000D01*
X222939221Y-54948856D01*
X222916166Y-54945437D01*
X222893557Y-54939773D01*
X222871613Y-54931921D01*
X222850543Y-54921956D01*
X222830552Y-54909974D01*
X222811832Y-54896090D01*
X222794562Y-54880438D01*
X222778910Y-54863168D01*
X222765026Y-54844448D01*
X222753044Y-54824457D01*
X222743079Y-54803387D01*
X222735227Y-54781443D01*
X222729563Y-54758834D01*
X222726144Y-54735779D01*
X222725000Y-54712500D01*
X222725000Y-54137500D01*
X222726144Y-54114221D01*
X222729563Y-54091166D01*
X222735227Y-54068557D01*
X222743079Y-54046613D01*
X222753044Y-54025543D01*
X222765026Y-54005552D01*
X222778910Y-53986832D01*
X222794562Y-53969562D01*
X222811832Y-53953910D01*
X222830552Y-53940026D01*
X222850543Y-53928044D01*
X222871613Y-53918079D01*
X222893557Y-53910227D01*
X222916166Y-53904563D01*
X222939221Y-53901144D01*
X222962500Y-53900000D01*
X223437500Y-53900000D01*
X223460779Y-53901144D01*
X223460779Y-53901144D01*
G37*
D14*
X223200000Y-54425000D03*
G04 #@! TD*
D12*
G04 #@! TO.C,R4*
G36*
X221185779Y-59226144D02*
X221208834Y-59229563D01*
X221231443Y-59235227D01*
X221253387Y-59243079D01*
X221274457Y-59253044D01*
X221294448Y-59265026D01*
X221313168Y-59278910D01*
X221330438Y-59294562D01*
X221346090Y-59311832D01*
X221359974Y-59330552D01*
X221371956Y-59350543D01*
X221381921Y-59371613D01*
X221389773Y-59393557D01*
X221395437Y-59416166D01*
X221398856Y-59439221D01*
X221400000Y-59462500D01*
X221400000Y-59937500D01*
X221398856Y-59960779D01*
X221395437Y-59983834D01*
X221389773Y-60006443D01*
X221381921Y-60028387D01*
X221371956Y-60049457D01*
X221359974Y-60069448D01*
X221346090Y-60088168D01*
X221330438Y-60105438D01*
X221313168Y-60121090D01*
X221294448Y-60134974D01*
X221274457Y-60146956D01*
X221253387Y-60156921D01*
X221231443Y-60164773D01*
X221208834Y-60170437D01*
X221185779Y-60173856D01*
X221162500Y-60175000D01*
X220587500Y-60175000D01*
X220564221Y-60173856D01*
X220541166Y-60170437D01*
X220518557Y-60164773D01*
X220496613Y-60156921D01*
X220475543Y-60146956D01*
X220455552Y-60134974D01*
X220436832Y-60121090D01*
X220419562Y-60105438D01*
X220403910Y-60088168D01*
X220390026Y-60069448D01*
X220378044Y-60049457D01*
X220368079Y-60028387D01*
X220360227Y-60006443D01*
X220354563Y-59983834D01*
X220351144Y-59960779D01*
X220350000Y-59937500D01*
X220350000Y-59462500D01*
X220351144Y-59439221D01*
X220354563Y-59416166D01*
X220360227Y-59393557D01*
X220368079Y-59371613D01*
X220378044Y-59350543D01*
X220390026Y-59330552D01*
X220403910Y-59311832D01*
X220419562Y-59294562D01*
X220436832Y-59278910D01*
X220455552Y-59265026D01*
X220475543Y-59253044D01*
X220496613Y-59243079D01*
X220518557Y-59235227D01*
X220541166Y-59229563D01*
X220564221Y-59226144D01*
X220587500Y-59225000D01*
X221162500Y-59225000D01*
X221185779Y-59226144D01*
X221185779Y-59226144D01*
G37*
D14*
X220875000Y-59700000D03*
D12*
G36*
X219435779Y-59226144D02*
X219458834Y-59229563D01*
X219481443Y-59235227D01*
X219503387Y-59243079D01*
X219524457Y-59253044D01*
X219544448Y-59265026D01*
X219563168Y-59278910D01*
X219580438Y-59294562D01*
X219596090Y-59311832D01*
X219609974Y-59330552D01*
X219621956Y-59350543D01*
X219631921Y-59371613D01*
X219639773Y-59393557D01*
X219645437Y-59416166D01*
X219648856Y-59439221D01*
X219650000Y-59462500D01*
X219650000Y-59937500D01*
X219648856Y-59960779D01*
X219645437Y-59983834D01*
X219639773Y-60006443D01*
X219631921Y-60028387D01*
X219621956Y-60049457D01*
X219609974Y-60069448D01*
X219596090Y-60088168D01*
X219580438Y-60105438D01*
X219563168Y-60121090D01*
X219544448Y-60134974D01*
X219524457Y-60146956D01*
X219503387Y-60156921D01*
X219481443Y-60164773D01*
X219458834Y-60170437D01*
X219435779Y-60173856D01*
X219412500Y-60175000D01*
X218837500Y-60175000D01*
X218814221Y-60173856D01*
X218791166Y-60170437D01*
X218768557Y-60164773D01*
X218746613Y-60156921D01*
X218725543Y-60146956D01*
X218705552Y-60134974D01*
X218686832Y-60121090D01*
X218669562Y-60105438D01*
X218653910Y-60088168D01*
X218640026Y-60069448D01*
X218628044Y-60049457D01*
X218618079Y-60028387D01*
X218610227Y-60006443D01*
X218604563Y-59983834D01*
X218601144Y-59960779D01*
X218600000Y-59937500D01*
X218600000Y-59462500D01*
X218601144Y-59439221D01*
X218604563Y-59416166D01*
X218610227Y-59393557D01*
X218618079Y-59371613D01*
X218628044Y-59350543D01*
X218640026Y-59330552D01*
X218653910Y-59311832D01*
X218669562Y-59294562D01*
X218686832Y-59278910D01*
X218705552Y-59265026D01*
X218725543Y-59253044D01*
X218746613Y-59243079D01*
X218768557Y-59235227D01*
X218791166Y-59229563D01*
X218814221Y-59226144D01*
X218837500Y-59225000D01*
X219412500Y-59225000D01*
X219435779Y-59226144D01*
X219435779Y-59226144D01*
G37*
D14*
X219125000Y-59700000D03*
G04 #@! TD*
D12*
G04 #@! TO.C,R5*
G36*
X222760779Y-59101144D02*
X222783834Y-59104563D01*
X222806443Y-59110227D01*
X222828387Y-59118079D01*
X222849457Y-59128044D01*
X222869448Y-59140026D01*
X222888168Y-59153910D01*
X222905438Y-59169562D01*
X222921090Y-59186832D01*
X222934974Y-59205552D01*
X222946956Y-59225543D01*
X222956921Y-59246613D01*
X222964773Y-59268557D01*
X222970437Y-59291166D01*
X222973856Y-59314221D01*
X222975000Y-59337500D01*
X222975000Y-59912500D01*
X222973856Y-59935779D01*
X222970437Y-59958834D01*
X222964773Y-59981443D01*
X222956921Y-60003387D01*
X222946956Y-60024457D01*
X222934974Y-60044448D01*
X222921090Y-60063168D01*
X222905438Y-60080438D01*
X222888168Y-60096090D01*
X222869448Y-60109974D01*
X222849457Y-60121956D01*
X222828387Y-60131921D01*
X222806443Y-60139773D01*
X222783834Y-60145437D01*
X222760779Y-60148856D01*
X222737500Y-60150000D01*
X222262500Y-60150000D01*
X222239221Y-60148856D01*
X222216166Y-60145437D01*
X222193557Y-60139773D01*
X222171613Y-60131921D01*
X222150543Y-60121956D01*
X222130552Y-60109974D01*
X222111832Y-60096090D01*
X222094562Y-60080438D01*
X222078910Y-60063168D01*
X222065026Y-60044448D01*
X222053044Y-60024457D01*
X222043079Y-60003387D01*
X222035227Y-59981443D01*
X222029563Y-59958834D01*
X222026144Y-59935779D01*
X222025000Y-59912500D01*
X222025000Y-59337500D01*
X222026144Y-59314221D01*
X222029563Y-59291166D01*
X222035227Y-59268557D01*
X222043079Y-59246613D01*
X222053044Y-59225543D01*
X222065026Y-59205552D01*
X222078910Y-59186832D01*
X222094562Y-59169562D01*
X222111832Y-59153910D01*
X222130552Y-59140026D01*
X222150543Y-59128044D01*
X222171613Y-59118079D01*
X222193557Y-59110227D01*
X222216166Y-59104563D01*
X222239221Y-59101144D01*
X222262500Y-59100000D01*
X222737500Y-59100000D01*
X222760779Y-59101144D01*
X222760779Y-59101144D01*
G37*
D14*
X222500000Y-59625000D03*
D12*
G36*
X222760779Y-60851144D02*
X222783834Y-60854563D01*
X222806443Y-60860227D01*
X222828387Y-60868079D01*
X222849457Y-60878044D01*
X222869448Y-60890026D01*
X222888168Y-60903910D01*
X222905438Y-60919562D01*
X222921090Y-60936832D01*
X222934974Y-60955552D01*
X222946956Y-60975543D01*
X222956921Y-60996613D01*
X222964773Y-61018557D01*
X222970437Y-61041166D01*
X222973856Y-61064221D01*
X222975000Y-61087500D01*
X222975000Y-61662500D01*
X222973856Y-61685779D01*
X222970437Y-61708834D01*
X222964773Y-61731443D01*
X222956921Y-61753387D01*
X222946956Y-61774457D01*
X222934974Y-61794448D01*
X222921090Y-61813168D01*
X222905438Y-61830438D01*
X222888168Y-61846090D01*
X222869448Y-61859974D01*
X222849457Y-61871956D01*
X222828387Y-61881921D01*
X222806443Y-61889773D01*
X222783834Y-61895437D01*
X222760779Y-61898856D01*
X222737500Y-61900000D01*
X222262500Y-61900000D01*
X222239221Y-61898856D01*
X222216166Y-61895437D01*
X222193557Y-61889773D01*
X222171613Y-61881921D01*
X222150543Y-61871956D01*
X222130552Y-61859974D01*
X222111832Y-61846090D01*
X222094562Y-61830438D01*
X222078910Y-61813168D01*
X222065026Y-61794448D01*
X222053044Y-61774457D01*
X222043079Y-61753387D01*
X222035227Y-61731443D01*
X222029563Y-61708834D01*
X222026144Y-61685779D01*
X222025000Y-61662500D01*
X222025000Y-61087500D01*
X222026144Y-61064221D01*
X222029563Y-61041166D01*
X222035227Y-61018557D01*
X222043079Y-60996613D01*
X222053044Y-60975543D01*
X222065026Y-60955552D01*
X222078910Y-60936832D01*
X222094562Y-60919562D01*
X222111832Y-60903910D01*
X222130552Y-60890026D01*
X222150543Y-60878044D01*
X222171613Y-60868079D01*
X222193557Y-60860227D01*
X222216166Y-60854563D01*
X222239221Y-60851144D01*
X222262500Y-60850000D01*
X222737500Y-60850000D01*
X222760779Y-60851144D01*
X222760779Y-60851144D01*
G37*
D14*
X222500000Y-61375000D03*
G04 #@! TD*
D12*
G04 #@! TO.C,R6*
G36*
X237049504Y-56576204D02*
X237073773Y-56579804D01*
X237097571Y-56585765D01*
X237120671Y-56594030D01*
X237142849Y-56604520D01*
X237163893Y-56617133D01*
X237183598Y-56631747D01*
X237201777Y-56648223D01*
X237218253Y-56666402D01*
X237232867Y-56686107D01*
X237245480Y-56707151D01*
X237255970Y-56729329D01*
X237264235Y-56752429D01*
X237270196Y-56776227D01*
X237273796Y-56800496D01*
X237275000Y-56825000D01*
X237275000Y-57750000D01*
X237273796Y-57774504D01*
X237270196Y-57798773D01*
X237264235Y-57822571D01*
X237255970Y-57845671D01*
X237245480Y-57867849D01*
X237232867Y-57888893D01*
X237218253Y-57908598D01*
X237201777Y-57926777D01*
X237183598Y-57943253D01*
X237163893Y-57957867D01*
X237142849Y-57970480D01*
X237120671Y-57980970D01*
X237097571Y-57989235D01*
X237073773Y-57995196D01*
X237049504Y-57998796D01*
X237025000Y-58000000D01*
X235775000Y-58000000D01*
X235750496Y-57998796D01*
X235726227Y-57995196D01*
X235702429Y-57989235D01*
X235679329Y-57980970D01*
X235657151Y-57970480D01*
X235636107Y-57957867D01*
X235616402Y-57943253D01*
X235598223Y-57926777D01*
X235581747Y-57908598D01*
X235567133Y-57888893D01*
X235554520Y-57867849D01*
X235544030Y-57845671D01*
X235535765Y-57822571D01*
X235529804Y-57798773D01*
X235526204Y-57774504D01*
X235525000Y-57750000D01*
X235525000Y-56825000D01*
X235526204Y-56800496D01*
X235529804Y-56776227D01*
X235535765Y-56752429D01*
X235544030Y-56729329D01*
X235554520Y-56707151D01*
X235567133Y-56686107D01*
X235581747Y-56666402D01*
X235598223Y-56648223D01*
X235616402Y-56631747D01*
X235636107Y-56617133D01*
X235657151Y-56604520D01*
X235679329Y-56594030D01*
X235702429Y-56585765D01*
X235726227Y-56579804D01*
X235750496Y-56576204D01*
X235775000Y-56575000D01*
X237025000Y-56575000D01*
X237049504Y-56576204D01*
X237049504Y-56576204D01*
G37*
D13*
X236400000Y-57287500D03*
D12*
G36*
X237049504Y-53601204D02*
X237073773Y-53604804D01*
X237097571Y-53610765D01*
X237120671Y-53619030D01*
X237142849Y-53629520D01*
X237163893Y-53642133D01*
X237183598Y-53656747D01*
X237201777Y-53673223D01*
X237218253Y-53691402D01*
X237232867Y-53711107D01*
X237245480Y-53732151D01*
X237255970Y-53754329D01*
X237264235Y-53777429D01*
X237270196Y-53801227D01*
X237273796Y-53825496D01*
X237275000Y-53850000D01*
X237275000Y-54775000D01*
X237273796Y-54799504D01*
X237270196Y-54823773D01*
X237264235Y-54847571D01*
X237255970Y-54870671D01*
X237245480Y-54892849D01*
X237232867Y-54913893D01*
X237218253Y-54933598D01*
X237201777Y-54951777D01*
X237183598Y-54968253D01*
X237163893Y-54982867D01*
X237142849Y-54995480D01*
X237120671Y-55005970D01*
X237097571Y-55014235D01*
X237073773Y-55020196D01*
X237049504Y-55023796D01*
X237025000Y-55025000D01*
X235775000Y-55025000D01*
X235750496Y-55023796D01*
X235726227Y-55020196D01*
X235702429Y-55014235D01*
X235679329Y-55005970D01*
X235657151Y-54995480D01*
X235636107Y-54982867D01*
X235616402Y-54968253D01*
X235598223Y-54951777D01*
X235581747Y-54933598D01*
X235567133Y-54913893D01*
X235554520Y-54892849D01*
X235544030Y-54870671D01*
X235535765Y-54847571D01*
X235529804Y-54823773D01*
X235526204Y-54799504D01*
X235525000Y-54775000D01*
X235525000Y-53850000D01*
X235526204Y-53825496D01*
X235529804Y-53801227D01*
X235535765Y-53777429D01*
X235544030Y-53754329D01*
X235554520Y-53732151D01*
X235567133Y-53711107D01*
X235581747Y-53691402D01*
X235598223Y-53673223D01*
X235616402Y-53656747D01*
X235636107Y-53642133D01*
X235657151Y-53629520D01*
X235679329Y-53619030D01*
X235702429Y-53610765D01*
X235726227Y-53604804D01*
X235750496Y-53601204D01*
X235775000Y-53600000D01*
X237025000Y-53600000D01*
X237049504Y-53601204D01*
X237049504Y-53601204D01*
G37*
D13*
X236400000Y-54312500D03*
G04 #@! TD*
D15*
G04 #@! TO.C,U1*
X216295000Y-55300000D03*
X217565000Y-55300000D03*
X218835000Y-55300000D03*
X220105000Y-55300000D03*
X220105000Y-49900000D03*
X218835000Y-49900000D03*
X217565000Y-49900000D03*
X216295000Y-49900000D03*
G04 #@! TD*
M02*
