G04 #@! TF.GenerationSoftware,KiCad,Pcbnew,(5.0.1-dev-70-gb7b125d83)*
G04 #@! TF.CreationDate,2018-10-12T16:43:48+02:00*
G04 #@! TF.ProjectId,pwm-fan-control,70776D2D66616E2D636F6E74726F6C2E,rev?*
G04 #@! TF.SameCoordinates,Original*
G04 #@! TF.FileFunction,Copper,L2,Bot,Signal*
G04 #@! TF.FilePolarity,Positive*
%FSLAX46Y46*%
G04 Gerber Fmt 4.6, Leading zero omitted, Abs format (unit mm)*
G04 Created by KiCad (PCBNEW (5.0.1-dev-70-gb7b125d83)) date 10/12/18 16:43:48*
%MOMM*%
%LPD*%
G01*
G04 APERTURE LIST*
G04 #@! TA.AperFunction,ComponentPad*
%ADD10O,1.700000X1.700000*%
G04 #@! TD*
G04 #@! TA.AperFunction,ComponentPad*
%ADD11R,1.700000X1.700000*%
G04 #@! TD*
G04 #@! TA.AperFunction,ViaPad*
%ADD12C,0.800000*%
G04 #@! TD*
G04 #@! TA.AperFunction,Conductor*
%ADD13C,0.600000*%
G04 #@! TD*
G04 #@! TA.AperFunction,Conductor*
%ADD14C,0.400000*%
G04 #@! TD*
G04 #@! TA.AperFunction,Conductor*
%ADD15C,0.200000*%
G04 #@! TD*
G04 #@! TA.AperFunction,Conductor*
%ADD16C,0.254000*%
G04 #@! TD*
G04 APERTURE END LIST*
D10*
G04 #@! TO.P,J4,2*
G04 #@! TO.N,GND*
X145510000Y-58850000D03*
D11*
G04 #@! TO.P,J4,1*
G04 #@! TO.N,/VFAN1*
X148050000Y-58850000D03*
G04 #@! TD*
G04 #@! TO.P,J1,1*
G04 #@! TO.N,/VFAN0*
X156400000Y-58850000D03*
D10*
G04 #@! TO.P,J1,2*
G04 #@! TO.N,GND*
X153860000Y-58850000D03*
G04 #@! TD*
D11*
G04 #@! TO.P,J2,1*
G04 #@! TO.N,GND*
X132650000Y-42500000D03*
D10*
G04 #@! TO.P,J2,2*
G04 #@! TO.N,/~PWM0*
X132650000Y-45040000D03*
G04 #@! TO.P,J2,3*
G04 #@! TO.N,/~PWM1*
X132650000Y-47580000D03*
G04 #@! TO.P,J2,4*
G04 #@! TO.N,VCCFan*
X132650000Y-50120000D03*
G04 #@! TD*
D12*
G04 #@! TO.N,GND*
X135700000Y-50100000D03*
X158800000Y-43600000D03*
X158500000Y-50000000D03*
X159000000Y-59500000D03*
X159000000Y-57500000D03*
X153100000Y-46500000D03*
X149000000Y-45400000D03*
X132300000Y-52400000D03*
X132200000Y-59300000D03*
X149900000Y-59400000D03*
X151400000Y-56100000D03*
G04 #@! TO.N,VCCFan*
X147800000Y-46100000D03*
X142200000Y-49700000D03*
G04 #@! TO.N,Net-(C4-Pad2)*
X140150000Y-52600000D03*
X144850000Y-46050000D03*
G04 #@! TO.N,Net-(Q2-Pad1)*
X150000000Y-46300000D03*
X146500000Y-46100000D03*
G04 #@! TO.N,Net-(R6-Pad2)*
X155800000Y-46200000D03*
X144000000Y-45300000D03*
G04 #@! TO.N,/VFAN1*
X153000000Y-50550000D03*
X148950000Y-56050000D03*
G04 #@! TD*
D13*
G04 #@! TO.N,GND*
X135300000Y-42500000D02*
X132650000Y-42500000D01*
X135700000Y-50100000D02*
X135700000Y-42900000D01*
X135700000Y-42900000D02*
X135300000Y-42500000D01*
D14*
G04 #@! TO.N,VCCFan*
X132650000Y-50120000D02*
X134330000Y-51800000D01*
D13*
X132650000Y-50120000D02*
X134230000Y-51700000D01*
X140200000Y-51700000D02*
X142200000Y-49700000D01*
X134230000Y-51700000D02*
X140200000Y-51700000D01*
X142200000Y-45200000D02*
X142200000Y-49700000D01*
X143100000Y-44300000D02*
X142200000Y-45200000D01*
X147300000Y-44300000D02*
X143100000Y-44300000D01*
X147800000Y-46100000D02*
X147800000Y-44800000D01*
X147800000Y-44800000D02*
X147300000Y-44300000D01*
D15*
G04 #@! TO.N,Net-(C4-Pad2)*
X140600000Y-52600000D02*
X140150000Y-52600000D01*
X143200000Y-50000000D02*
X140600000Y-52600000D01*
X143200000Y-46800000D02*
X143200000Y-50000000D01*
X143950000Y-46050000D02*
X143200000Y-46800000D01*
X144850000Y-46050000D02*
X143950000Y-46050000D01*
G04 #@! TO.N,Net-(Q2-Pad1)*
X150000000Y-46300000D02*
X149600001Y-46699999D01*
X149600001Y-46699999D02*
X149200000Y-47100000D01*
X149200000Y-47100000D02*
X147100000Y-47100000D01*
X147100000Y-47100000D02*
X146500000Y-46500000D01*
X146500000Y-46500000D02*
X146500000Y-46100000D01*
G04 #@! TO.N,Net-(R6-Pad2)*
X155234315Y-46200000D02*
X153784315Y-47650000D01*
X155800000Y-46200000D02*
X155234315Y-46200000D01*
X153784315Y-47650000D02*
X146800000Y-47650000D01*
X146800000Y-47650000D02*
X145650000Y-46500000D01*
X145650000Y-46500000D02*
X145650000Y-45600000D01*
X145650000Y-45600000D02*
X145350000Y-45300000D01*
X145350000Y-45300000D02*
X144000000Y-45300000D01*
D13*
G04 #@! TO.N,/VFAN1*
X152600001Y-50949999D02*
X150050001Y-50949999D01*
X153000000Y-50550000D02*
X152600001Y-50949999D01*
X150050001Y-50949999D02*
X148950000Y-52050000D01*
X148950000Y-52050000D02*
X148950000Y-56050000D01*
G04 #@! TD*
D16*
G04 #@! TO.N,GND*
G36*
X159290001Y-59790000D02*
X157879538Y-59790000D01*
X157897440Y-59700000D01*
X157897440Y-58000000D01*
X157848157Y-57752235D01*
X157707809Y-57542191D01*
X157497765Y-57401843D01*
X157250000Y-57352560D01*
X155550000Y-57352560D01*
X155302235Y-57401843D01*
X155092191Y-57542191D01*
X154951843Y-57752235D01*
X154931261Y-57855708D01*
X154626924Y-57578355D01*
X154216890Y-57408524D01*
X153987000Y-57529845D01*
X153987000Y-58723000D01*
X154007000Y-58723000D01*
X154007000Y-58977000D01*
X153987000Y-58977000D01*
X153987000Y-58997000D01*
X153733000Y-58997000D01*
X153733000Y-58977000D01*
X152539181Y-58977000D01*
X152418514Y-59206892D01*
X152664817Y-59731358D01*
X152729164Y-59790000D01*
X149529538Y-59790000D01*
X149547440Y-59700000D01*
X149547440Y-58493108D01*
X152418514Y-58493108D01*
X152539181Y-58723000D01*
X153733000Y-58723000D01*
X153733000Y-57529845D01*
X153503110Y-57408524D01*
X153093076Y-57578355D01*
X152664817Y-57968642D01*
X152418514Y-58493108D01*
X149547440Y-58493108D01*
X149547440Y-58000000D01*
X149498157Y-57752235D01*
X149357809Y-57542191D01*
X149147765Y-57401843D01*
X148900000Y-57352560D01*
X147200000Y-57352560D01*
X146952235Y-57401843D01*
X146742191Y-57542191D01*
X146601843Y-57752235D01*
X146581261Y-57855708D01*
X146276924Y-57578355D01*
X145866890Y-57408524D01*
X145637000Y-57529845D01*
X145637000Y-58723000D01*
X145657000Y-58723000D01*
X145657000Y-58977000D01*
X145637000Y-58977000D01*
X145637000Y-58997000D01*
X145383000Y-58997000D01*
X145383000Y-58977000D01*
X144189181Y-58977000D01*
X144068514Y-59206892D01*
X144314817Y-59731358D01*
X144379164Y-59790000D01*
X131710000Y-59790000D01*
X131710000Y-58493108D01*
X144068514Y-58493108D01*
X144189181Y-58723000D01*
X145383000Y-58723000D01*
X145383000Y-57529845D01*
X145153110Y-57408524D01*
X144743076Y-57578355D01*
X144314817Y-57968642D01*
X144068514Y-58493108D01*
X131710000Y-58493108D01*
X131710000Y-55844126D01*
X147915000Y-55844126D01*
X147915000Y-56255874D01*
X148072569Y-56636280D01*
X148363720Y-56927431D01*
X148744126Y-57085000D01*
X149155874Y-57085000D01*
X149536280Y-56927431D01*
X149827431Y-56636280D01*
X149985000Y-56255874D01*
X149985000Y-55844126D01*
X149885000Y-55602704D01*
X149885000Y-52437289D01*
X150437291Y-51884999D01*
X152507915Y-51884999D01*
X152600001Y-51903316D01*
X152692087Y-51884999D01*
X152964820Y-51830749D01*
X153274098Y-51624096D01*
X153326262Y-51546027D01*
X153344858Y-51527431D01*
X153586280Y-51427431D01*
X153877431Y-51136280D01*
X154035000Y-50755874D01*
X154035000Y-50344126D01*
X153877431Y-49963720D01*
X153586280Y-49672569D01*
X153205874Y-49515000D01*
X152794126Y-49515000D01*
X152413720Y-49672569D01*
X152122569Y-49963720D01*
X152101329Y-50014999D01*
X150142082Y-50014999D01*
X150050000Y-49996683D01*
X149957918Y-50014999D01*
X149957915Y-50014999D01*
X149685182Y-50069249D01*
X149375904Y-50275902D01*
X149323742Y-50353968D01*
X148353972Y-51323739D01*
X148275903Y-51375903D01*
X148122826Y-51605000D01*
X148069250Y-51685182D01*
X147996683Y-52050000D01*
X148015000Y-52142086D01*
X148015001Y-55602702D01*
X147915000Y-55844126D01*
X131710000Y-55844126D01*
X131710000Y-51277906D01*
X132070582Y-51518839D01*
X132503744Y-51605000D01*
X132796256Y-51605000D01*
X132809981Y-51602270D01*
X133503741Y-52296031D01*
X133555903Y-52374097D01*
X133865181Y-52580750D01*
X134137914Y-52635000D01*
X134137918Y-52635000D01*
X134229999Y-52653316D01*
X134284921Y-52642391D01*
X134330000Y-52651358D01*
X134412237Y-52635000D01*
X139115000Y-52635000D01*
X139115000Y-52805874D01*
X139272569Y-53186280D01*
X139563720Y-53477431D01*
X139944126Y-53635000D01*
X140355874Y-53635000D01*
X140736280Y-53477431D01*
X140990978Y-53222733D01*
X141129905Y-53129905D01*
X141170911Y-53068535D01*
X143668537Y-50570909D01*
X143729905Y-50529905D01*
X143892354Y-50286783D01*
X143935000Y-50072388D01*
X143935000Y-50072385D01*
X143949398Y-50000001D01*
X143935000Y-49927617D01*
X143935000Y-47104446D01*
X144187868Y-46851579D01*
X144263720Y-46927431D01*
X144644126Y-47085000D01*
X145055874Y-47085000D01*
X145146420Y-47047495D01*
X145181465Y-47070911D01*
X146229090Y-48118537D01*
X146270095Y-48179905D01*
X146513217Y-48342354D01*
X146727612Y-48385000D01*
X146800000Y-48399399D01*
X146872388Y-48385000D01*
X153711931Y-48385000D01*
X153784315Y-48399398D01*
X153856699Y-48385000D01*
X153856703Y-48385000D01*
X154071098Y-48342354D01*
X154314220Y-48179905D01*
X154355226Y-48118535D01*
X155342845Y-47130916D01*
X155594126Y-47235000D01*
X156005874Y-47235000D01*
X156386280Y-47077431D01*
X156677431Y-46786280D01*
X156835000Y-46405874D01*
X156835000Y-45994126D01*
X156677431Y-45613720D01*
X156386280Y-45322569D01*
X156005874Y-45165000D01*
X155594126Y-45165000D01*
X155213720Y-45322569D01*
X155048783Y-45487506D01*
X154947532Y-45507646D01*
X154704410Y-45670095D01*
X154663405Y-45731463D01*
X153479869Y-46915000D01*
X150848711Y-46915000D01*
X150877431Y-46886280D01*
X151035000Y-46505874D01*
X151035000Y-46094126D01*
X150877431Y-45713720D01*
X150586280Y-45422569D01*
X150205874Y-45265000D01*
X149794126Y-45265000D01*
X149413720Y-45422569D01*
X149122569Y-45713720D01*
X148965000Y-46094126D01*
X148965000Y-46295554D01*
X148895554Y-46365000D01*
X148810509Y-46365000D01*
X148835000Y-46305874D01*
X148835000Y-45894126D01*
X148735000Y-45652704D01*
X148735000Y-44892086D01*
X148753317Y-44800000D01*
X148680750Y-44435181D01*
X148603287Y-44319250D01*
X148474097Y-44125903D01*
X148396028Y-44073739D01*
X148026261Y-43703972D01*
X147974097Y-43625903D01*
X147664819Y-43419250D01*
X147392086Y-43365000D01*
X147300000Y-43346683D01*
X147207914Y-43365000D01*
X143192081Y-43365000D01*
X143099999Y-43346684D01*
X143007917Y-43365000D01*
X143007914Y-43365000D01*
X142735181Y-43419250D01*
X142425903Y-43625903D01*
X142373741Y-43703970D01*
X141603972Y-44473739D01*
X141525903Y-44525903D01*
X141433083Y-44664819D01*
X141319250Y-44835182D01*
X141246683Y-45200000D01*
X141265000Y-45292086D01*
X141265001Y-49252702D01*
X141222569Y-49355141D01*
X139812711Y-50765000D01*
X134617290Y-50765000D01*
X134132270Y-50279980D01*
X134164092Y-50120000D01*
X134048839Y-49540582D01*
X133720625Y-49049375D01*
X133422239Y-48850000D01*
X133720625Y-48650625D01*
X134048839Y-48159418D01*
X134164092Y-47580000D01*
X134048839Y-47000582D01*
X133720625Y-46509375D01*
X133422239Y-46310000D01*
X133720625Y-46110625D01*
X134048839Y-45619418D01*
X134164092Y-45040000D01*
X134048839Y-44460582D01*
X133720625Y-43969375D01*
X133698967Y-43954904D01*
X133859698Y-43888327D01*
X134038327Y-43709699D01*
X134135000Y-43476310D01*
X134135000Y-42785750D01*
X133976250Y-42627000D01*
X132777000Y-42627000D01*
X132777000Y-42647000D01*
X132523000Y-42647000D01*
X132523000Y-42627000D01*
X132503000Y-42627000D01*
X132503000Y-42373000D01*
X132523000Y-42373000D01*
X132523000Y-41173750D01*
X132777000Y-41173750D01*
X132777000Y-42373000D01*
X133976250Y-42373000D01*
X134135000Y-42214250D01*
X134135000Y-41523690D01*
X134038327Y-41290301D01*
X133859698Y-41111673D01*
X133626309Y-41015000D01*
X132935750Y-41015000D01*
X132777000Y-41173750D01*
X132523000Y-41173750D01*
X132364250Y-41015000D01*
X131710000Y-41015000D01*
X131710000Y-40710000D01*
X159290000Y-40710000D01*
X159290001Y-59790000D01*
X159290001Y-59790000D01*
G37*
X159290001Y-59790000D02*
X157879538Y-59790000D01*
X157897440Y-59700000D01*
X157897440Y-58000000D01*
X157848157Y-57752235D01*
X157707809Y-57542191D01*
X157497765Y-57401843D01*
X157250000Y-57352560D01*
X155550000Y-57352560D01*
X155302235Y-57401843D01*
X155092191Y-57542191D01*
X154951843Y-57752235D01*
X154931261Y-57855708D01*
X154626924Y-57578355D01*
X154216890Y-57408524D01*
X153987000Y-57529845D01*
X153987000Y-58723000D01*
X154007000Y-58723000D01*
X154007000Y-58977000D01*
X153987000Y-58977000D01*
X153987000Y-58997000D01*
X153733000Y-58997000D01*
X153733000Y-58977000D01*
X152539181Y-58977000D01*
X152418514Y-59206892D01*
X152664817Y-59731358D01*
X152729164Y-59790000D01*
X149529538Y-59790000D01*
X149547440Y-59700000D01*
X149547440Y-58493108D01*
X152418514Y-58493108D01*
X152539181Y-58723000D01*
X153733000Y-58723000D01*
X153733000Y-57529845D01*
X153503110Y-57408524D01*
X153093076Y-57578355D01*
X152664817Y-57968642D01*
X152418514Y-58493108D01*
X149547440Y-58493108D01*
X149547440Y-58000000D01*
X149498157Y-57752235D01*
X149357809Y-57542191D01*
X149147765Y-57401843D01*
X148900000Y-57352560D01*
X147200000Y-57352560D01*
X146952235Y-57401843D01*
X146742191Y-57542191D01*
X146601843Y-57752235D01*
X146581261Y-57855708D01*
X146276924Y-57578355D01*
X145866890Y-57408524D01*
X145637000Y-57529845D01*
X145637000Y-58723000D01*
X145657000Y-58723000D01*
X145657000Y-58977000D01*
X145637000Y-58977000D01*
X145637000Y-58997000D01*
X145383000Y-58997000D01*
X145383000Y-58977000D01*
X144189181Y-58977000D01*
X144068514Y-59206892D01*
X144314817Y-59731358D01*
X144379164Y-59790000D01*
X131710000Y-59790000D01*
X131710000Y-58493108D01*
X144068514Y-58493108D01*
X144189181Y-58723000D01*
X145383000Y-58723000D01*
X145383000Y-57529845D01*
X145153110Y-57408524D01*
X144743076Y-57578355D01*
X144314817Y-57968642D01*
X144068514Y-58493108D01*
X131710000Y-58493108D01*
X131710000Y-55844126D01*
X147915000Y-55844126D01*
X147915000Y-56255874D01*
X148072569Y-56636280D01*
X148363720Y-56927431D01*
X148744126Y-57085000D01*
X149155874Y-57085000D01*
X149536280Y-56927431D01*
X149827431Y-56636280D01*
X149985000Y-56255874D01*
X149985000Y-55844126D01*
X149885000Y-55602704D01*
X149885000Y-52437289D01*
X150437291Y-51884999D01*
X152507915Y-51884999D01*
X152600001Y-51903316D01*
X152692087Y-51884999D01*
X152964820Y-51830749D01*
X153274098Y-51624096D01*
X153326262Y-51546027D01*
X153344858Y-51527431D01*
X153586280Y-51427431D01*
X153877431Y-51136280D01*
X154035000Y-50755874D01*
X154035000Y-50344126D01*
X153877431Y-49963720D01*
X153586280Y-49672569D01*
X153205874Y-49515000D01*
X152794126Y-49515000D01*
X152413720Y-49672569D01*
X152122569Y-49963720D01*
X152101329Y-50014999D01*
X150142082Y-50014999D01*
X150050000Y-49996683D01*
X149957918Y-50014999D01*
X149957915Y-50014999D01*
X149685182Y-50069249D01*
X149375904Y-50275902D01*
X149323742Y-50353968D01*
X148353972Y-51323739D01*
X148275903Y-51375903D01*
X148122826Y-51605000D01*
X148069250Y-51685182D01*
X147996683Y-52050000D01*
X148015000Y-52142086D01*
X148015001Y-55602702D01*
X147915000Y-55844126D01*
X131710000Y-55844126D01*
X131710000Y-51277906D01*
X132070582Y-51518839D01*
X132503744Y-51605000D01*
X132796256Y-51605000D01*
X132809981Y-51602270D01*
X133503741Y-52296031D01*
X133555903Y-52374097D01*
X133865181Y-52580750D01*
X134137914Y-52635000D01*
X134137918Y-52635000D01*
X134229999Y-52653316D01*
X134284921Y-52642391D01*
X134330000Y-52651358D01*
X134412237Y-52635000D01*
X139115000Y-52635000D01*
X139115000Y-52805874D01*
X139272569Y-53186280D01*
X139563720Y-53477431D01*
X139944126Y-53635000D01*
X140355874Y-53635000D01*
X140736280Y-53477431D01*
X140990978Y-53222733D01*
X141129905Y-53129905D01*
X141170911Y-53068535D01*
X143668537Y-50570909D01*
X143729905Y-50529905D01*
X143892354Y-50286783D01*
X143935000Y-50072388D01*
X143935000Y-50072385D01*
X143949398Y-50000001D01*
X143935000Y-49927617D01*
X143935000Y-47104446D01*
X144187868Y-46851579D01*
X144263720Y-46927431D01*
X144644126Y-47085000D01*
X145055874Y-47085000D01*
X145146420Y-47047495D01*
X145181465Y-47070911D01*
X146229090Y-48118537D01*
X146270095Y-48179905D01*
X146513217Y-48342354D01*
X146727612Y-48385000D01*
X146800000Y-48399399D01*
X146872388Y-48385000D01*
X153711931Y-48385000D01*
X153784315Y-48399398D01*
X153856699Y-48385000D01*
X153856703Y-48385000D01*
X154071098Y-48342354D01*
X154314220Y-48179905D01*
X154355226Y-48118535D01*
X155342845Y-47130916D01*
X155594126Y-47235000D01*
X156005874Y-47235000D01*
X156386280Y-47077431D01*
X156677431Y-46786280D01*
X156835000Y-46405874D01*
X156835000Y-45994126D01*
X156677431Y-45613720D01*
X156386280Y-45322569D01*
X156005874Y-45165000D01*
X155594126Y-45165000D01*
X155213720Y-45322569D01*
X155048783Y-45487506D01*
X154947532Y-45507646D01*
X154704410Y-45670095D01*
X154663405Y-45731463D01*
X153479869Y-46915000D01*
X150848711Y-46915000D01*
X150877431Y-46886280D01*
X151035000Y-46505874D01*
X151035000Y-46094126D01*
X150877431Y-45713720D01*
X150586280Y-45422569D01*
X150205874Y-45265000D01*
X149794126Y-45265000D01*
X149413720Y-45422569D01*
X149122569Y-45713720D01*
X148965000Y-46094126D01*
X148965000Y-46295554D01*
X148895554Y-46365000D01*
X148810509Y-46365000D01*
X148835000Y-46305874D01*
X148835000Y-45894126D01*
X148735000Y-45652704D01*
X148735000Y-44892086D01*
X148753317Y-44800000D01*
X148680750Y-44435181D01*
X148603287Y-44319250D01*
X148474097Y-44125903D01*
X148396028Y-44073739D01*
X148026261Y-43703972D01*
X147974097Y-43625903D01*
X147664819Y-43419250D01*
X147392086Y-43365000D01*
X147300000Y-43346683D01*
X147207914Y-43365000D01*
X143192081Y-43365000D01*
X143099999Y-43346684D01*
X143007917Y-43365000D01*
X143007914Y-43365000D01*
X142735181Y-43419250D01*
X142425903Y-43625903D01*
X142373741Y-43703970D01*
X141603972Y-44473739D01*
X141525903Y-44525903D01*
X141433083Y-44664819D01*
X141319250Y-44835182D01*
X141246683Y-45200000D01*
X141265000Y-45292086D01*
X141265001Y-49252702D01*
X141222569Y-49355141D01*
X139812711Y-50765000D01*
X134617290Y-50765000D01*
X134132270Y-50279980D01*
X134164092Y-50120000D01*
X134048839Y-49540582D01*
X133720625Y-49049375D01*
X133422239Y-48850000D01*
X133720625Y-48650625D01*
X134048839Y-48159418D01*
X134164092Y-47580000D01*
X134048839Y-47000582D01*
X133720625Y-46509375D01*
X133422239Y-46310000D01*
X133720625Y-46110625D01*
X134048839Y-45619418D01*
X134164092Y-45040000D01*
X134048839Y-44460582D01*
X133720625Y-43969375D01*
X133698967Y-43954904D01*
X133859698Y-43888327D01*
X134038327Y-43709699D01*
X134135000Y-43476310D01*
X134135000Y-42785750D01*
X133976250Y-42627000D01*
X132777000Y-42627000D01*
X132777000Y-42647000D01*
X132523000Y-42647000D01*
X132523000Y-42627000D01*
X132503000Y-42627000D01*
X132503000Y-42373000D01*
X132523000Y-42373000D01*
X132523000Y-41173750D01*
X132777000Y-41173750D01*
X132777000Y-42373000D01*
X133976250Y-42373000D01*
X134135000Y-42214250D01*
X134135000Y-41523690D01*
X134038327Y-41290301D01*
X133859698Y-41111673D01*
X133626309Y-41015000D01*
X132935750Y-41015000D01*
X132777000Y-41173750D01*
X132523000Y-41173750D01*
X132364250Y-41015000D01*
X131710000Y-41015000D01*
X131710000Y-40710000D01*
X159290000Y-40710000D01*
X159290001Y-59790000D01*
G04 #@! TD*
M02*
