M48
;DRILL file {KiCad (5.0.1-dev-70-gb7b125d83)} date 10/12/18 22:01:23
;FORMAT={2:4/ absolute / inch / suppress leading zeros}
FMAT,2
INCH,TZ
T1C0.0157
T2C0.0394
T3C0.0402
T4C0.1260
%
G90
G05
M72
T1
X83691Y-22087
X84291Y-20748
X86654Y-21142
X87776Y-18760
X87835Y-22835
X88661Y-20591
X89724Y-18189
X89724Y-18583
X89724Y-18976
X89724Y-19370
X89724Y-19764
X90118Y-18189
X90118Y-18583
X90118Y-18976
X90118Y-19370
X90118Y-19764
X90433Y-21575
X90433Y-21969
X90433Y-22362
X90433Y-22756
X90433Y-23150
X90512Y-18189
X90512Y-18583
X90512Y-18976
X90512Y-19370
X90512Y-19764
X90827Y-21575
X90827Y-21969
X90827Y-22362
X90827Y-22756
X90827Y-23150
X90906Y-18189
X90906Y-18583
X90906Y-18976
X90906Y-19370
X90906Y-19764
X91220Y-21575
X91220Y-21969
X91220Y-22362
X91220Y-22756
X91220Y-23150
X91299Y-18189
X91299Y-18583
X91299Y-18976
X91299Y-19370
X91299Y-19764
X91614Y-21575
X91614Y-21969
X91614Y-22362
X91614Y-22756
X91614Y-23150
X92008Y-21575
X92008Y-21969
X92008Y-22362
X92008Y-22756
X92008Y-23150
X93071Y-20669
T2
X82559Y-20669
X82559Y-21669
X82559Y-22669
X82559Y-23669
T3
X94291Y-21260
X95291Y-21260
X96291Y-21260
X94291Y-18504
X95291Y-18504
X96291Y-18504
T4
X95866Y-23622
T0
M30
