G04 #@! TF.GenerationSoftware,KiCad,Pcbnew,(5.0.1-dev-70-gb7b125d83)*
G04 #@! TF.CreationDate,2018-10-12T22:17:07+02:00*
G04 #@! TF.ProjectId,pwm-fan-control,70776D2D66616E2D636F6E74726F6C2E,rev?*
G04 #@! TF.SameCoordinates,Original*
G04 #@! TF.FileFunction,Legend,Top*
G04 #@! TF.FilePolarity,Positive*
%FSLAX46Y46*%
G04 Gerber Fmt 4.6, Leading zero omitted, Abs format (unit mm)*
G04 Created by KiCad (PCBNEW (5.0.1-dev-70-gb7b125d83)) date 10/12/18 22:17:07*
%MOMM*%
%LPD*%
G01*
G04 APERTURE LIST*
%ADD10C,0.200000*%
%ADD11C,0.300000*%
%ADD12C,0.120000*%
%ADD13C,0.150000*%
G04 APERTURE END LIST*
D10*
X211668095Y-60271428D02*
X212430000Y-60271428D01*
X212049047Y-60652380D02*
X212049047Y-59890476D01*
X211668095Y-58052380D02*
X211668095Y-57052380D01*
X212049047Y-57052380D01*
X212144285Y-57100000D01*
X212191904Y-57147619D01*
X212239523Y-57242857D01*
X212239523Y-57385714D01*
X212191904Y-57480952D01*
X212144285Y-57528571D01*
X212049047Y-57576190D01*
X211668095Y-57576190D01*
X212858571Y-57052380D02*
X212953809Y-57052380D01*
X213049047Y-57100000D01*
X213096666Y-57147619D01*
X213144285Y-57242857D01*
X213191904Y-57433333D01*
X213191904Y-57671428D01*
X213144285Y-57861904D01*
X213096666Y-57957142D01*
X213049047Y-58004761D01*
X212953809Y-58052380D01*
X212858571Y-58052380D01*
X212763333Y-58004761D01*
X212715714Y-57957142D01*
X212668095Y-57861904D01*
X212620476Y-57671428D01*
X212620476Y-57433333D01*
X212668095Y-57242857D01*
X212715714Y-57147619D01*
X212763333Y-57100000D01*
X212858571Y-57052380D01*
X211668095Y-55452380D02*
X211668095Y-54452380D01*
X212049047Y-54452380D01*
X212144285Y-54500000D01*
X212191904Y-54547619D01*
X212239523Y-54642857D01*
X212239523Y-54785714D01*
X212191904Y-54880952D01*
X212144285Y-54928571D01*
X212049047Y-54976190D01*
X211668095Y-54976190D01*
X213191904Y-55452380D02*
X212620476Y-55452380D01*
X212906190Y-55452380D02*
X212906190Y-54452380D01*
X212810952Y-54595238D01*
X212715714Y-54690476D01*
X212620476Y-54738095D01*
X211668095Y-52571428D02*
X212430000Y-52571428D01*
D11*
X238300000Y-58817857D02*
X237800000Y-58817857D01*
X237800000Y-59603571D02*
X237800000Y-58103571D01*
X238514285Y-58103571D01*
X239871428Y-59603571D02*
X239014285Y-59603571D01*
X239442857Y-59603571D02*
X239442857Y-58103571D01*
X239300000Y-58317857D01*
X239157142Y-58460714D01*
X239014285Y-58532142D01*
X238300000Y-61367857D02*
X237800000Y-61367857D01*
X237800000Y-62153571D02*
X237800000Y-60653571D01*
X238514285Y-60653571D01*
X239371428Y-60653571D02*
X239514285Y-60653571D01*
X239657142Y-60725000D01*
X239728571Y-60796428D01*
X239800000Y-60939285D01*
X239871428Y-61225000D01*
X239871428Y-61582142D01*
X239800000Y-61867857D01*
X239728571Y-62010714D01*
X239657142Y-62082142D01*
X239514285Y-62153571D01*
X239371428Y-62153571D01*
X239228571Y-62082142D01*
X239157142Y-62010714D01*
X239085714Y-61867857D01*
X239014285Y-61582142D01*
X239014285Y-61225000D01*
X239085714Y-60939285D01*
X239157142Y-60796428D01*
X239228571Y-60725000D01*
X239371428Y-60653571D01*
D10*
X221710000Y-58930000D02*
X221560000Y-58780000D01*
X221710000Y-60480000D02*
X221710000Y-58930000D01*
X221560000Y-60630000D02*
X221710000Y-60480000D01*
X220850000Y-46400000D02*
X220700000Y-46250000D01*
X220850000Y-47950000D02*
X220850000Y-46400000D01*
X220700000Y-48100000D02*
X220850000Y-47950000D01*
D12*
G04 #@! TO.C,Q2*
X234470000Y-45020000D02*
X235570000Y-45020000D01*
X234470000Y-44750000D02*
X234470000Y-45020000D01*
X232970000Y-44750000D02*
X234470000Y-44750000D01*
X234470000Y-51380000D02*
X237300000Y-51380000D01*
X234470000Y-51650000D02*
X234470000Y-51380000D01*
X232970000Y-51650000D02*
X234470000Y-51650000D01*
G04 #@! TO.C,R12*
X224290000Y-49802064D02*
X224290000Y-48597936D01*
X226110000Y-49802064D02*
X226110000Y-48597936D01*
G04 #@! TO.C,R10*
X223710000Y-51371267D02*
X223710000Y-51028733D01*
X222690000Y-51371267D02*
X222690000Y-51028733D01*
G04 #@! TO.C,R9*
X219309162Y-45090000D02*
X218966628Y-45090000D01*
X219309162Y-46110000D02*
X218966628Y-46110000D01*
G04 #@! TO.C,C3*
X219309162Y-46690000D02*
X218966628Y-46690000D01*
X219309162Y-47710000D02*
X218966628Y-47710000D01*
G04 #@! TO.C,L2*
X214335831Y-45040000D02*
X215539959Y-45040000D01*
X214335831Y-47760000D02*
X215539959Y-47760000D01*
G04 #@! TO.C,R11*
X221127895Y-46571267D02*
X221127895Y-46228733D01*
X222147895Y-46571267D02*
X222147895Y-46228733D01*
G04 #@! TO.C,R8*
X212047895Y-46571267D02*
X212047895Y-46228733D01*
X211027895Y-46571267D02*
X211027895Y-46228733D01*
G04 #@! TO.C,R7*
X210447895Y-46228733D02*
X210447895Y-46571267D01*
X209427895Y-46228733D02*
X209427895Y-46571267D01*
G04 #@! TO.C,C1*
X215110000Y-50771267D02*
X215110000Y-50428733D01*
X214090000Y-50771267D02*
X214090000Y-50428733D01*
G04 #@! TO.C,C2*
X220171267Y-61810000D02*
X219828733Y-61810000D01*
X220171267Y-60790000D02*
X219828733Y-60790000D01*
G04 #@! TO.C,J1*
X244580000Y-56290000D02*
X244580000Y-57300000D01*
X239500000Y-56290000D02*
X244580000Y-56290000D01*
X239500000Y-57300000D02*
X239500000Y-56290000D01*
X245950000Y-57400000D02*
X238150000Y-57400000D01*
X245950000Y-51350000D02*
X245950000Y-57400000D01*
X238150000Y-51350000D02*
X245950000Y-51350000D01*
X238150000Y-57400000D02*
X238150000Y-51350000D01*
G04 #@! TO.C,J2*
X208370000Y-61450000D02*
X211030000Y-61450000D01*
X208370000Y-53770000D02*
X208370000Y-61450000D01*
X211030000Y-53770000D02*
X211030000Y-61450000D01*
X208370000Y-53770000D02*
X211030000Y-53770000D01*
X208370000Y-52500000D02*
X208370000Y-51170000D01*
X208370000Y-51170000D02*
X209700000Y-51170000D01*
G04 #@! TO.C,L1*
X215197936Y-61860000D02*
X216402064Y-61860000D01*
X215197936Y-59140000D02*
X216402064Y-59140000D01*
G04 #@! TO.C,Q1*
X228630000Y-53350000D02*
X227130000Y-53350000D01*
X227130000Y-53350000D02*
X227130000Y-53620000D01*
X227130000Y-53620000D02*
X224300000Y-53620000D01*
X228630000Y-60250000D02*
X227130000Y-60250000D01*
X227130000Y-60250000D02*
X227130000Y-59980000D01*
X227130000Y-59980000D02*
X226030000Y-59980000D01*
G04 #@! TO.C,R1*
X214710000Y-55771267D02*
X214710000Y-55428733D01*
X213690000Y-55771267D02*
X213690000Y-55428733D01*
G04 #@! TO.C,R2*
X214828733Y-57590000D02*
X215171267Y-57590000D01*
X214828733Y-58610000D02*
X215171267Y-58610000D01*
G04 #@! TO.C,R3*
X222690000Y-55471267D02*
X222690000Y-55128733D01*
X223710000Y-55471267D02*
X223710000Y-55128733D01*
G04 #@! TO.C,R4*
X220171267Y-60210000D02*
X219828733Y-60210000D01*
X220171267Y-59190000D02*
X219828733Y-59190000D01*
G04 #@! TO.C,R5*
X223010000Y-60671267D02*
X223010000Y-60328733D01*
X221990000Y-60671267D02*
X221990000Y-60328733D01*
G04 #@! TO.C,R6*
X235490000Y-55197936D02*
X235490000Y-56402064D01*
X237310000Y-55197936D02*
X237310000Y-56402064D01*
D13*
G04 #@! TO.C,U1*
X215625000Y-54675000D02*
X215675000Y-54675000D01*
X215625000Y-50525000D02*
X215770000Y-50525000D01*
X220775000Y-50525000D02*
X220630000Y-50525000D01*
X220775000Y-54675000D02*
X220630000Y-54675000D01*
X215625000Y-54675000D02*
X215625000Y-50525000D01*
X220775000Y-54675000D02*
X220775000Y-50525000D01*
X215675000Y-54675000D02*
X215675000Y-56075000D01*
D12*
G04 #@! TO.C,J3*
X238150000Y-50400000D02*
X238150000Y-44350000D01*
X238150000Y-44350000D02*
X245950000Y-44350000D01*
X245950000Y-44350000D02*
X245950000Y-50400000D01*
X245950000Y-50400000D02*
X238150000Y-50400000D01*
X239500000Y-50300000D02*
X239500000Y-49290000D01*
X239500000Y-49290000D02*
X244580000Y-49290000D01*
X244580000Y-49290000D02*
X244580000Y-50300000D01*
G04 #@! TO.C,Q2*
X231933333Y-53083333D02*
X231866666Y-53050000D01*
X231800000Y-52983333D01*
X231700000Y-52883333D01*
X231633333Y-52850000D01*
X231566666Y-52850000D01*
X231600000Y-53016666D02*
X231533333Y-52983333D01*
X231466666Y-52916666D01*
X231433333Y-52783333D01*
X231433333Y-52550000D01*
X231466666Y-52416666D01*
X231533333Y-52350000D01*
X231600000Y-52316666D01*
X231733333Y-52316666D01*
X231800000Y-52350000D01*
X231866666Y-52416666D01*
X231900000Y-52550000D01*
X231900000Y-52783333D01*
X231866666Y-52916666D01*
X231800000Y-52983333D01*
X231733333Y-53016666D01*
X231600000Y-53016666D01*
X232166666Y-52383333D02*
X232200000Y-52350000D01*
X232266666Y-52316666D01*
X232433333Y-52316666D01*
X232500000Y-52350000D01*
X232533333Y-52383333D01*
X232566666Y-52450000D01*
X232566666Y-52516666D01*
X232533333Y-52616666D01*
X232133333Y-53016666D01*
X232566666Y-53016666D01*
G04 #@! TO.C,R12*
X224600000Y-46516666D02*
X224366666Y-46183333D01*
X224200000Y-46516666D02*
X224200000Y-45816666D01*
X224466666Y-45816666D01*
X224533333Y-45850000D01*
X224566666Y-45883333D01*
X224600000Y-45950000D01*
X224600000Y-46050000D01*
X224566666Y-46116666D01*
X224533333Y-46150000D01*
X224466666Y-46183333D01*
X224200000Y-46183333D01*
X225266666Y-46516666D02*
X224866666Y-46516666D01*
X225066666Y-46516666D02*
X225066666Y-45816666D01*
X225000000Y-45916666D01*
X224933333Y-45983333D01*
X224866666Y-46016666D01*
X225533333Y-45883333D02*
X225566666Y-45850000D01*
X225633333Y-45816666D01*
X225800000Y-45816666D01*
X225866666Y-45850000D01*
X225900000Y-45883333D01*
X225933333Y-45950000D01*
X225933333Y-46016666D01*
X225900000Y-46116666D01*
X225500000Y-46516666D01*
X225933333Y-46516666D01*
G04 #@! TO.C,R10*
X222316666Y-51650000D02*
X221983333Y-51883333D01*
X222316666Y-52050000D02*
X221616666Y-52050000D01*
X221616666Y-51783333D01*
X221650000Y-51716666D01*
X221683333Y-51683333D01*
X221750000Y-51650000D01*
X221850000Y-51650000D01*
X221916666Y-51683333D01*
X221950000Y-51716666D01*
X221983333Y-51783333D01*
X221983333Y-52050000D01*
X222316666Y-50983333D02*
X222316666Y-51383333D01*
X222316666Y-51183333D02*
X221616666Y-51183333D01*
X221716666Y-51250000D01*
X221783333Y-51316666D01*
X221816666Y-51383333D01*
X221616666Y-50550000D02*
X221616666Y-50483333D01*
X221650000Y-50416666D01*
X221683333Y-50383333D01*
X221750000Y-50350000D01*
X221883333Y-50316666D01*
X222050000Y-50316666D01*
X222183333Y-50350000D01*
X222250000Y-50383333D01*
X222283333Y-50416666D01*
X222316666Y-50483333D01*
X222316666Y-50550000D01*
X222283333Y-50616666D01*
X222250000Y-50650000D01*
X222183333Y-50683333D01*
X222050000Y-50716666D01*
X221883333Y-50716666D01*
X221750000Y-50683333D01*
X221683333Y-50650000D01*
X221650000Y-50616666D01*
X221616666Y-50550000D01*
G04 #@! TO.C,R9*
X219833333Y-48766666D02*
X219600000Y-48433333D01*
X219433333Y-48766666D02*
X219433333Y-48066666D01*
X219700000Y-48066666D01*
X219766666Y-48100000D01*
X219800000Y-48133333D01*
X219833333Y-48200000D01*
X219833333Y-48300000D01*
X219800000Y-48366666D01*
X219766666Y-48400000D01*
X219700000Y-48433333D01*
X219433333Y-48433333D01*
X220166666Y-48766666D02*
X220300000Y-48766666D01*
X220366666Y-48733333D01*
X220400000Y-48700000D01*
X220466666Y-48600000D01*
X220500000Y-48466666D01*
X220500000Y-48200000D01*
X220466666Y-48133333D01*
X220433333Y-48100000D01*
X220366666Y-48066666D01*
X220233333Y-48066666D01*
X220166666Y-48100000D01*
X220133333Y-48133333D01*
X220100000Y-48200000D01*
X220100000Y-48366666D01*
X220133333Y-48433333D01*
X220166666Y-48466666D01*
X220233333Y-48500000D01*
X220366666Y-48500000D01*
X220433333Y-48466666D01*
X220466666Y-48433333D01*
X220500000Y-48366666D01*
G04 #@! TO.C,C3*
X218133333Y-48700000D02*
X218100000Y-48733333D01*
X218000000Y-48766666D01*
X217933333Y-48766666D01*
X217833333Y-48733333D01*
X217766666Y-48666666D01*
X217733333Y-48600000D01*
X217700000Y-48466666D01*
X217700000Y-48366666D01*
X217733333Y-48233333D01*
X217766666Y-48166666D01*
X217833333Y-48100000D01*
X217933333Y-48066666D01*
X218000000Y-48066666D01*
X218100000Y-48100000D01*
X218133333Y-48133333D01*
X218366666Y-48066666D02*
X218800000Y-48066666D01*
X218566666Y-48333333D01*
X218666666Y-48333333D01*
X218733333Y-48366666D01*
X218766666Y-48400000D01*
X218800000Y-48466666D01*
X218800000Y-48633333D01*
X218766666Y-48700000D01*
X218733333Y-48733333D01*
X218666666Y-48766666D01*
X218466666Y-48766666D01*
X218400000Y-48733333D01*
X218366666Y-48700000D01*
G04 #@! TO.C,L2*
X213466666Y-48916666D02*
X213466666Y-49250000D01*
X212766666Y-49250000D01*
X212833333Y-48716666D02*
X212800000Y-48683333D01*
X212766666Y-48616666D01*
X212766666Y-48450000D01*
X212800000Y-48383333D01*
X212833333Y-48350000D01*
X212900000Y-48316666D01*
X212966666Y-48316666D01*
X213066666Y-48350000D01*
X213466666Y-48750000D01*
X213466666Y-48316666D01*
G04 #@! TO.C,R11*
X223266666Y-46650000D02*
X222933333Y-46883333D01*
X223266666Y-47050000D02*
X222566666Y-47050000D01*
X222566666Y-46783333D01*
X222600000Y-46716666D01*
X222633333Y-46683333D01*
X222700000Y-46650000D01*
X222800000Y-46650000D01*
X222866666Y-46683333D01*
X222900000Y-46716666D01*
X222933333Y-46783333D01*
X222933333Y-47050000D01*
X223266666Y-45983333D02*
X223266666Y-46383333D01*
X223266666Y-46183333D02*
X222566666Y-46183333D01*
X222666666Y-46250000D01*
X222733333Y-46316666D01*
X222766666Y-46383333D01*
X223266666Y-45316666D02*
X223266666Y-45716666D01*
X223266666Y-45516666D02*
X222566666Y-45516666D01*
X222666666Y-45583333D01*
X222733333Y-45650000D01*
X222766666Y-45716666D01*
G04 #@! TO.C,R8*
X211866666Y-49066666D02*
X211533333Y-49300000D01*
X211866666Y-49466666D02*
X211166666Y-49466666D01*
X211166666Y-49200000D01*
X211200000Y-49133333D01*
X211233333Y-49100000D01*
X211300000Y-49066666D01*
X211400000Y-49066666D01*
X211466666Y-49100000D01*
X211500000Y-49133333D01*
X211533333Y-49200000D01*
X211533333Y-49466666D01*
X211466666Y-48666666D02*
X211433333Y-48733333D01*
X211400000Y-48766666D01*
X211333333Y-48800000D01*
X211300000Y-48800000D01*
X211233333Y-48766666D01*
X211200000Y-48733333D01*
X211166666Y-48666666D01*
X211166666Y-48533333D01*
X211200000Y-48466666D01*
X211233333Y-48433333D01*
X211300000Y-48400000D01*
X211333333Y-48400000D01*
X211400000Y-48433333D01*
X211433333Y-48466666D01*
X211466666Y-48533333D01*
X211466666Y-48666666D01*
X211500000Y-48733333D01*
X211533333Y-48766666D01*
X211600000Y-48800000D01*
X211733333Y-48800000D01*
X211800000Y-48766666D01*
X211833333Y-48733333D01*
X211866666Y-48666666D01*
X211866666Y-48533333D01*
X211833333Y-48466666D01*
X211800000Y-48433333D01*
X211733333Y-48400000D01*
X211600000Y-48400000D01*
X211533333Y-48433333D01*
X211500000Y-48466666D01*
X211466666Y-48533333D01*
G04 #@! TO.C,R7*
X210216666Y-49116666D02*
X209883333Y-49350000D01*
X210216666Y-49516666D02*
X209516666Y-49516666D01*
X209516666Y-49250000D01*
X209550000Y-49183333D01*
X209583333Y-49150000D01*
X209650000Y-49116666D01*
X209750000Y-49116666D01*
X209816666Y-49150000D01*
X209850000Y-49183333D01*
X209883333Y-49250000D01*
X209883333Y-49516666D01*
X209516666Y-48883333D02*
X209516666Y-48416666D01*
X210216666Y-48716666D01*
G04 #@! TO.C,C1*
X213550000Y-51616666D02*
X213583333Y-51650000D01*
X213616666Y-51750000D01*
X213616666Y-51816666D01*
X213583333Y-51916666D01*
X213516666Y-51983333D01*
X213450000Y-52016666D01*
X213316666Y-52050000D01*
X213216666Y-52050000D01*
X213083333Y-52016666D01*
X213016666Y-51983333D01*
X212950000Y-51916666D01*
X212916666Y-51816666D01*
X212916666Y-51750000D01*
X212950000Y-51650000D01*
X212983333Y-51616666D01*
X213616666Y-50950000D02*
X213616666Y-51350000D01*
X213616666Y-51150000D02*
X212916666Y-51150000D01*
X213016666Y-51216666D01*
X213083333Y-51283333D01*
X213116666Y-51350000D01*
G04 #@! TO.C,C2*
X220683333Y-58750000D02*
X220650000Y-58783333D01*
X220550000Y-58816666D01*
X220483333Y-58816666D01*
X220383333Y-58783333D01*
X220316666Y-58716666D01*
X220283333Y-58650000D01*
X220250000Y-58516666D01*
X220250000Y-58416666D01*
X220283333Y-58283333D01*
X220316666Y-58216666D01*
X220383333Y-58150000D01*
X220483333Y-58116666D01*
X220550000Y-58116666D01*
X220650000Y-58150000D01*
X220683333Y-58183333D01*
X220950000Y-58183333D02*
X220983333Y-58150000D01*
X221050000Y-58116666D01*
X221216666Y-58116666D01*
X221283333Y-58150000D01*
X221316666Y-58183333D01*
X221350000Y-58250000D01*
X221350000Y-58316666D01*
X221316666Y-58416666D01*
X220916666Y-58816666D01*
X221350000Y-58816666D01*
G04 #@! TO.C,L1*
X217283333Y-58816666D02*
X216950000Y-58816666D01*
X216950000Y-58116666D01*
X217883333Y-58816666D02*
X217483333Y-58816666D01*
X217683333Y-58816666D02*
X217683333Y-58116666D01*
X217616666Y-58216666D01*
X217550000Y-58283333D01*
X217483333Y-58316666D01*
G04 #@! TO.C,Q1*
X229533333Y-52683333D02*
X229466666Y-52650000D01*
X229400000Y-52583333D01*
X229300000Y-52483333D01*
X229233333Y-52450000D01*
X229166666Y-52450000D01*
X229200000Y-52616666D02*
X229133333Y-52583333D01*
X229066666Y-52516666D01*
X229033333Y-52383333D01*
X229033333Y-52150000D01*
X229066666Y-52016666D01*
X229133333Y-51950000D01*
X229200000Y-51916666D01*
X229333333Y-51916666D01*
X229400000Y-51950000D01*
X229466666Y-52016666D01*
X229500000Y-52150000D01*
X229500000Y-52383333D01*
X229466666Y-52516666D01*
X229400000Y-52583333D01*
X229333333Y-52616666D01*
X229200000Y-52616666D01*
X230166666Y-52616666D02*
X229766666Y-52616666D01*
X229966666Y-52616666D02*
X229966666Y-51916666D01*
X229900000Y-52016666D01*
X229833333Y-52083333D01*
X229766666Y-52116666D01*
G04 #@! TO.C,R1*
X214083333Y-53816666D02*
X213850000Y-53483333D01*
X213683333Y-53816666D02*
X213683333Y-53116666D01*
X213950000Y-53116666D01*
X214016666Y-53150000D01*
X214050000Y-53183333D01*
X214083333Y-53250000D01*
X214083333Y-53350000D01*
X214050000Y-53416666D01*
X214016666Y-53450000D01*
X213950000Y-53483333D01*
X213683333Y-53483333D01*
X214750000Y-53816666D02*
X214350000Y-53816666D01*
X214550000Y-53816666D02*
X214550000Y-53116666D01*
X214483333Y-53216666D01*
X214416666Y-53283333D01*
X214350000Y-53316666D01*
G04 #@! TO.C,R2*
X215883333Y-57216666D02*
X215650000Y-56883333D01*
X215483333Y-57216666D02*
X215483333Y-56516666D01*
X215750000Y-56516666D01*
X215816666Y-56550000D01*
X215850000Y-56583333D01*
X215883333Y-56650000D01*
X215883333Y-56750000D01*
X215850000Y-56816666D01*
X215816666Y-56850000D01*
X215750000Y-56883333D01*
X215483333Y-56883333D01*
X216150000Y-56583333D02*
X216183333Y-56550000D01*
X216250000Y-56516666D01*
X216416666Y-56516666D01*
X216483333Y-56550000D01*
X216516666Y-56583333D01*
X216550000Y-56650000D01*
X216550000Y-56716666D01*
X216516666Y-56816666D01*
X216116666Y-57216666D01*
X216550000Y-57216666D01*
G04 #@! TO.C,R3*
X222086666Y-55416666D02*
X221753333Y-55650000D01*
X222086666Y-55816666D02*
X221386666Y-55816666D01*
X221386666Y-55550000D01*
X221420000Y-55483333D01*
X221453333Y-55450000D01*
X221520000Y-55416666D01*
X221620000Y-55416666D01*
X221686666Y-55450000D01*
X221720000Y-55483333D01*
X221753333Y-55550000D01*
X221753333Y-55816666D01*
X221386666Y-55183333D02*
X221386666Y-54750000D01*
X221653333Y-54983333D01*
X221653333Y-54883333D01*
X221686666Y-54816666D01*
X221720000Y-54783333D01*
X221786666Y-54750000D01*
X221953333Y-54750000D01*
X222020000Y-54783333D01*
X222053333Y-54816666D01*
X222086666Y-54883333D01*
X222086666Y-55083333D01*
X222053333Y-55150000D01*
X222020000Y-55183333D01*
G04 #@! TO.C,R4*
X218983333Y-58816666D02*
X218750000Y-58483333D01*
X218583333Y-58816666D02*
X218583333Y-58116666D01*
X218850000Y-58116666D01*
X218916666Y-58150000D01*
X218950000Y-58183333D01*
X218983333Y-58250000D01*
X218983333Y-58350000D01*
X218950000Y-58416666D01*
X218916666Y-58450000D01*
X218850000Y-58483333D01*
X218583333Y-58483333D01*
X219583333Y-58350000D02*
X219583333Y-58816666D01*
X219416666Y-58083333D02*
X219250000Y-58583333D01*
X219683333Y-58583333D01*
G04 #@! TO.C,R5*
X224116666Y-61516666D02*
X223783333Y-61750000D01*
X224116666Y-61916666D02*
X223416666Y-61916666D01*
X223416666Y-61650000D01*
X223450000Y-61583333D01*
X223483333Y-61550000D01*
X223550000Y-61516666D01*
X223650000Y-61516666D01*
X223716666Y-61550000D01*
X223750000Y-61583333D01*
X223783333Y-61650000D01*
X223783333Y-61916666D01*
X223416666Y-60883333D02*
X223416666Y-61216666D01*
X223750000Y-61250000D01*
X223716666Y-61216666D01*
X223683333Y-61150000D01*
X223683333Y-60983333D01*
X223716666Y-60916666D01*
X223750000Y-60883333D01*
X223816666Y-60850000D01*
X223983333Y-60850000D01*
X224050000Y-60883333D01*
X224083333Y-60916666D01*
X224116666Y-60983333D01*
X224116666Y-61150000D01*
X224083333Y-61216666D01*
X224050000Y-61250000D01*
G04 #@! TO.C,R6*
X236283333Y-59116666D02*
X236050000Y-58783333D01*
X235883333Y-59116666D02*
X235883333Y-58416666D01*
X236150000Y-58416666D01*
X236216666Y-58450000D01*
X236250000Y-58483333D01*
X236283333Y-58550000D01*
X236283333Y-58650000D01*
X236250000Y-58716666D01*
X236216666Y-58750000D01*
X236150000Y-58783333D01*
X235883333Y-58783333D01*
X236883333Y-58416666D02*
X236750000Y-58416666D01*
X236683333Y-58450000D01*
X236650000Y-58483333D01*
X236583333Y-58583333D01*
X236550000Y-58716666D01*
X236550000Y-58983333D01*
X236583333Y-59050000D01*
X236616666Y-59083333D01*
X236683333Y-59116666D01*
X236816666Y-59116666D01*
X236883333Y-59083333D01*
X236916666Y-59050000D01*
X236950000Y-58983333D01*
X236950000Y-58816666D01*
X236916666Y-58750000D01*
X236883333Y-58716666D01*
X236816666Y-58683333D01*
X236683333Y-58683333D01*
X236616666Y-58716666D01*
X236583333Y-58750000D01*
X236550000Y-58816666D01*
G04 #@! TO.C,U1*
X219866666Y-56516666D02*
X219866666Y-57083333D01*
X219900000Y-57150000D01*
X219933333Y-57183333D01*
X220000000Y-57216666D01*
X220133333Y-57216666D01*
X220200000Y-57183333D01*
X220233333Y-57150000D01*
X220266666Y-57083333D01*
X220266666Y-56516666D01*
X220966666Y-57216666D02*
X220566666Y-57216666D01*
X220766666Y-57216666D02*
X220766666Y-56516666D01*
X220700000Y-56616666D01*
X220633333Y-56683333D01*
X220566666Y-56716666D01*
G04 #@! TO.C,REF\002A\002A*
D13*
X242166666Y-56252380D02*
X241833333Y-55776190D01*
X241595238Y-56252380D02*
X241595238Y-55252380D01*
X241976190Y-55252380D01*
X242071428Y-55300000D01*
X242119047Y-55347619D01*
X242166666Y-55442857D01*
X242166666Y-55585714D01*
X242119047Y-55680952D01*
X242071428Y-55728571D01*
X241976190Y-55776190D01*
X241595238Y-55776190D01*
X242595238Y-55728571D02*
X242928571Y-55728571D01*
X243071428Y-56252380D02*
X242595238Y-56252380D01*
X242595238Y-55252380D01*
X243071428Y-55252380D01*
X243833333Y-55728571D02*
X243500000Y-55728571D01*
X243500000Y-56252380D02*
X243500000Y-55252380D01*
X243976190Y-55252380D01*
X244500000Y-55252380D02*
X244500000Y-55490476D01*
X244261904Y-55395238D02*
X244500000Y-55490476D01*
X244738095Y-55395238D01*
X244357142Y-55680952D02*
X244500000Y-55490476D01*
X244642857Y-55680952D01*
X245261904Y-55252380D02*
X245261904Y-55490476D01*
X245023809Y-55395238D02*
X245261904Y-55490476D01*
X245500000Y-55395238D01*
X245119047Y-55680952D02*
X245261904Y-55490476D01*
X245404761Y-55680952D01*
G04 #@! TD*
M02*
