G04 #@! TF.GenerationSoftware,KiCad,Pcbnew,(5.0.1-dev-70-gb7b125d83)*
G04 #@! TF.CreationDate,2018-10-12T22:17:07+02:00*
G04 #@! TF.ProjectId,pwm-fan-control,70776D2D66616E2D636F6E74726F6C2E,rev?*
G04 #@! TF.SameCoordinates,Original*
G04 #@! TF.FileFunction,Soldermask,Top*
G04 #@! TF.FilePolarity,Negative*
%FSLAX46Y46*%
G04 Gerber Fmt 4.6, Leading zero omitted, Abs format (unit mm)*
G04 Created by KiCad (PCBNEW (5.0.1-dev-70-gb7b125d83)) date 10/12/18 22:17:07*
%MOMM*%
%LPD*%
G01*
G04 APERTURE LIST*
%ADD10R,6.800000X6.200000*%
%ADD11R,2.600000X1.600000*%
%ADD12C,0.100000*%
%ADD13C,1.825000*%
%ADD14C,1.350000*%
%ADD15O,2.130000X2.430000*%
%ADD16R,2.130000X2.430000*%
%ADD17R,2.100000X2.100000*%
%ADD18O,2.100000X2.100000*%
%ADD19R,1.000000X1.950000*%
%ADD20C,3.600000*%
G04 APERTURE END LIST*
D10*
G04 #@! TO.C,Q2*
X229900000Y-48200000D03*
D11*
X236200000Y-45920000D03*
X236200000Y-50480000D03*
G04 #@! TD*
D12*
G04 #@! TO.C,R12*
G36*
X225986207Y-49776542D02*
X226017287Y-49781152D01*
X226047766Y-49788787D01*
X226077350Y-49799372D01*
X226105754Y-49812806D01*
X226132704Y-49828959D01*
X226157942Y-49847677D01*
X226181223Y-49868777D01*
X226202323Y-49892058D01*
X226221041Y-49917296D01*
X226237194Y-49944246D01*
X226250628Y-49972650D01*
X226261213Y-50002234D01*
X226268848Y-50032713D01*
X226273458Y-50063793D01*
X226275000Y-50095176D01*
X226275000Y-51279824D01*
X226273458Y-51311207D01*
X226268848Y-51342287D01*
X226261213Y-51372766D01*
X226250628Y-51402350D01*
X226237194Y-51430754D01*
X226221041Y-51457704D01*
X226202323Y-51482942D01*
X226181223Y-51506223D01*
X226157942Y-51527323D01*
X226132704Y-51546041D01*
X226105754Y-51562194D01*
X226077350Y-51575628D01*
X226047766Y-51586213D01*
X226017287Y-51593848D01*
X225986207Y-51598458D01*
X225954824Y-51600000D01*
X224445176Y-51600000D01*
X224413793Y-51598458D01*
X224382713Y-51593848D01*
X224352234Y-51586213D01*
X224322650Y-51575628D01*
X224294246Y-51562194D01*
X224267296Y-51546041D01*
X224242058Y-51527323D01*
X224218777Y-51506223D01*
X224197677Y-51482942D01*
X224178959Y-51457704D01*
X224162806Y-51430754D01*
X224149372Y-51402350D01*
X224138787Y-51372766D01*
X224131152Y-51342287D01*
X224126542Y-51311207D01*
X224125000Y-51279824D01*
X224125000Y-50095176D01*
X224126542Y-50063793D01*
X224131152Y-50032713D01*
X224138787Y-50002234D01*
X224149372Y-49972650D01*
X224162806Y-49944246D01*
X224178959Y-49917296D01*
X224197677Y-49892058D01*
X224218777Y-49868777D01*
X224242058Y-49847677D01*
X224267296Y-49828959D01*
X224294246Y-49812806D01*
X224322650Y-49799372D01*
X224352234Y-49788787D01*
X224382713Y-49781152D01*
X224413793Y-49776542D01*
X224445176Y-49775000D01*
X225954824Y-49775000D01*
X225986207Y-49776542D01*
X225986207Y-49776542D01*
G37*
D13*
X225200000Y-50687500D03*
D12*
G36*
X225986207Y-46801542D02*
X226017287Y-46806152D01*
X226047766Y-46813787D01*
X226077350Y-46824372D01*
X226105754Y-46837806D01*
X226132704Y-46853959D01*
X226157942Y-46872677D01*
X226181223Y-46893777D01*
X226202323Y-46917058D01*
X226221041Y-46942296D01*
X226237194Y-46969246D01*
X226250628Y-46997650D01*
X226261213Y-47027234D01*
X226268848Y-47057713D01*
X226273458Y-47088793D01*
X226275000Y-47120176D01*
X226275000Y-48304824D01*
X226273458Y-48336207D01*
X226268848Y-48367287D01*
X226261213Y-48397766D01*
X226250628Y-48427350D01*
X226237194Y-48455754D01*
X226221041Y-48482704D01*
X226202323Y-48507942D01*
X226181223Y-48531223D01*
X226157942Y-48552323D01*
X226132704Y-48571041D01*
X226105754Y-48587194D01*
X226077350Y-48600628D01*
X226047766Y-48611213D01*
X226017287Y-48618848D01*
X225986207Y-48623458D01*
X225954824Y-48625000D01*
X224445176Y-48625000D01*
X224413793Y-48623458D01*
X224382713Y-48618848D01*
X224352234Y-48611213D01*
X224322650Y-48600628D01*
X224294246Y-48587194D01*
X224267296Y-48571041D01*
X224242058Y-48552323D01*
X224218777Y-48531223D01*
X224197677Y-48507942D01*
X224178959Y-48482704D01*
X224162806Y-48455754D01*
X224149372Y-48427350D01*
X224138787Y-48397766D01*
X224131152Y-48367287D01*
X224126542Y-48336207D01*
X224125000Y-48304824D01*
X224125000Y-47120176D01*
X224126542Y-47088793D01*
X224131152Y-47057713D01*
X224138787Y-47027234D01*
X224149372Y-46997650D01*
X224162806Y-46969246D01*
X224178959Y-46942296D01*
X224197677Y-46917058D01*
X224218777Y-46893777D01*
X224242058Y-46872677D01*
X224267296Y-46853959D01*
X224294246Y-46837806D01*
X224322650Y-46824372D01*
X224352234Y-46813787D01*
X224382713Y-46806152D01*
X224413793Y-46801542D01*
X224445176Y-46800000D01*
X225954824Y-46800000D01*
X225986207Y-46801542D01*
X225986207Y-46801542D01*
G37*
D13*
X225200000Y-47712500D03*
G04 #@! TD*
D12*
G04 #@! TO.C,R10*
G36*
X223570581Y-49601625D02*
X223603343Y-49606485D01*
X223635471Y-49614533D01*
X223666656Y-49625691D01*
X223696596Y-49639852D01*
X223725005Y-49656879D01*
X223751608Y-49676609D01*
X223776149Y-49698851D01*
X223798391Y-49723392D01*
X223818121Y-49749995D01*
X223835148Y-49778404D01*
X223849309Y-49808344D01*
X223860467Y-49839529D01*
X223868515Y-49871657D01*
X223873375Y-49904419D01*
X223875000Y-49937500D01*
X223875000Y-50712500D01*
X223873375Y-50745581D01*
X223868515Y-50778343D01*
X223860467Y-50810471D01*
X223849309Y-50841656D01*
X223835148Y-50871596D01*
X223818121Y-50900005D01*
X223798391Y-50926608D01*
X223776149Y-50951149D01*
X223751608Y-50973391D01*
X223725005Y-50993121D01*
X223696596Y-51010148D01*
X223666656Y-51024309D01*
X223635471Y-51035467D01*
X223603343Y-51043515D01*
X223570581Y-51048375D01*
X223537500Y-51050000D01*
X222862500Y-51050000D01*
X222829419Y-51048375D01*
X222796657Y-51043515D01*
X222764529Y-51035467D01*
X222733344Y-51024309D01*
X222703404Y-51010148D01*
X222674995Y-50993121D01*
X222648392Y-50973391D01*
X222623851Y-50951149D01*
X222601609Y-50926608D01*
X222581879Y-50900005D01*
X222564852Y-50871596D01*
X222550691Y-50841656D01*
X222539533Y-50810471D01*
X222531485Y-50778343D01*
X222526625Y-50745581D01*
X222525000Y-50712500D01*
X222525000Y-49937500D01*
X222526625Y-49904419D01*
X222531485Y-49871657D01*
X222539533Y-49839529D01*
X222550691Y-49808344D01*
X222564852Y-49778404D01*
X222581879Y-49749995D01*
X222601609Y-49723392D01*
X222623851Y-49698851D01*
X222648392Y-49676609D01*
X222674995Y-49656879D01*
X222703404Y-49639852D01*
X222733344Y-49625691D01*
X222764529Y-49614533D01*
X222796657Y-49606485D01*
X222829419Y-49601625D01*
X222862500Y-49600000D01*
X223537500Y-49600000D01*
X223570581Y-49601625D01*
X223570581Y-49601625D01*
G37*
D14*
X223200000Y-50325000D03*
D12*
G36*
X223570581Y-51351625D02*
X223603343Y-51356485D01*
X223635471Y-51364533D01*
X223666656Y-51375691D01*
X223696596Y-51389852D01*
X223725005Y-51406879D01*
X223751608Y-51426609D01*
X223776149Y-51448851D01*
X223798391Y-51473392D01*
X223818121Y-51499995D01*
X223835148Y-51528404D01*
X223849309Y-51558344D01*
X223860467Y-51589529D01*
X223868515Y-51621657D01*
X223873375Y-51654419D01*
X223875000Y-51687500D01*
X223875000Y-52462500D01*
X223873375Y-52495581D01*
X223868515Y-52528343D01*
X223860467Y-52560471D01*
X223849309Y-52591656D01*
X223835148Y-52621596D01*
X223818121Y-52650005D01*
X223798391Y-52676608D01*
X223776149Y-52701149D01*
X223751608Y-52723391D01*
X223725005Y-52743121D01*
X223696596Y-52760148D01*
X223666656Y-52774309D01*
X223635471Y-52785467D01*
X223603343Y-52793515D01*
X223570581Y-52798375D01*
X223537500Y-52800000D01*
X222862500Y-52800000D01*
X222829419Y-52798375D01*
X222796657Y-52793515D01*
X222764529Y-52785467D01*
X222733344Y-52774309D01*
X222703404Y-52760148D01*
X222674995Y-52743121D01*
X222648392Y-52723391D01*
X222623851Y-52701149D01*
X222601609Y-52676608D01*
X222581879Y-52650005D01*
X222564852Y-52621596D01*
X222550691Y-52591656D01*
X222539533Y-52560471D01*
X222531485Y-52528343D01*
X222526625Y-52495581D01*
X222525000Y-52462500D01*
X222525000Y-51687500D01*
X222526625Y-51654419D01*
X222531485Y-51621657D01*
X222539533Y-51589529D01*
X222550691Y-51558344D01*
X222564852Y-51528404D01*
X222581879Y-51499995D01*
X222601609Y-51473392D01*
X222623851Y-51448851D01*
X222648392Y-51426609D01*
X222674995Y-51406879D01*
X222703404Y-51389852D01*
X222733344Y-51375691D01*
X222764529Y-51364533D01*
X222796657Y-51356485D01*
X222829419Y-51351625D01*
X222862500Y-51350000D01*
X223537500Y-51350000D01*
X223570581Y-51351625D01*
X223570581Y-51351625D01*
G37*
D14*
X223200000Y-52075000D03*
G04 #@! TD*
D12*
G04 #@! TO.C,R9*
G36*
X218683476Y-44926625D02*
X218716238Y-44931485D01*
X218748366Y-44939533D01*
X218779551Y-44950691D01*
X218809491Y-44964852D01*
X218837900Y-44981879D01*
X218864503Y-45001609D01*
X218889044Y-45023851D01*
X218911286Y-45048392D01*
X218931016Y-45074995D01*
X218948043Y-45103404D01*
X218962204Y-45133344D01*
X218973362Y-45164529D01*
X218981410Y-45196657D01*
X218986270Y-45229419D01*
X218987895Y-45262500D01*
X218987895Y-45937500D01*
X218986270Y-45970581D01*
X218981410Y-46003343D01*
X218973362Y-46035471D01*
X218962204Y-46066656D01*
X218948043Y-46096596D01*
X218931016Y-46125005D01*
X218911286Y-46151608D01*
X218889044Y-46176149D01*
X218864503Y-46198391D01*
X218837900Y-46218121D01*
X218809491Y-46235148D01*
X218779551Y-46249309D01*
X218748366Y-46260467D01*
X218716238Y-46268515D01*
X218683476Y-46273375D01*
X218650395Y-46275000D01*
X217875395Y-46275000D01*
X217842314Y-46273375D01*
X217809552Y-46268515D01*
X217777424Y-46260467D01*
X217746239Y-46249309D01*
X217716299Y-46235148D01*
X217687890Y-46218121D01*
X217661287Y-46198391D01*
X217636746Y-46176149D01*
X217614504Y-46151608D01*
X217594774Y-46125005D01*
X217577747Y-46096596D01*
X217563586Y-46066656D01*
X217552428Y-46035471D01*
X217544380Y-46003343D01*
X217539520Y-45970581D01*
X217537895Y-45937500D01*
X217537895Y-45262500D01*
X217539520Y-45229419D01*
X217544380Y-45196657D01*
X217552428Y-45164529D01*
X217563586Y-45133344D01*
X217577747Y-45103404D01*
X217594774Y-45074995D01*
X217614504Y-45048392D01*
X217636746Y-45023851D01*
X217661287Y-45001609D01*
X217687890Y-44981879D01*
X217716299Y-44964852D01*
X217746239Y-44950691D01*
X217777424Y-44939533D01*
X217809552Y-44931485D01*
X217842314Y-44926625D01*
X217875395Y-44925000D01*
X218650395Y-44925000D01*
X218683476Y-44926625D01*
X218683476Y-44926625D01*
G37*
D14*
X218262895Y-45600000D03*
D12*
G36*
X220433476Y-44926625D02*
X220466238Y-44931485D01*
X220498366Y-44939533D01*
X220529551Y-44950691D01*
X220559491Y-44964852D01*
X220587900Y-44981879D01*
X220614503Y-45001609D01*
X220639044Y-45023851D01*
X220661286Y-45048392D01*
X220681016Y-45074995D01*
X220698043Y-45103404D01*
X220712204Y-45133344D01*
X220723362Y-45164529D01*
X220731410Y-45196657D01*
X220736270Y-45229419D01*
X220737895Y-45262500D01*
X220737895Y-45937500D01*
X220736270Y-45970581D01*
X220731410Y-46003343D01*
X220723362Y-46035471D01*
X220712204Y-46066656D01*
X220698043Y-46096596D01*
X220681016Y-46125005D01*
X220661286Y-46151608D01*
X220639044Y-46176149D01*
X220614503Y-46198391D01*
X220587900Y-46218121D01*
X220559491Y-46235148D01*
X220529551Y-46249309D01*
X220498366Y-46260467D01*
X220466238Y-46268515D01*
X220433476Y-46273375D01*
X220400395Y-46275000D01*
X219625395Y-46275000D01*
X219592314Y-46273375D01*
X219559552Y-46268515D01*
X219527424Y-46260467D01*
X219496239Y-46249309D01*
X219466299Y-46235148D01*
X219437890Y-46218121D01*
X219411287Y-46198391D01*
X219386746Y-46176149D01*
X219364504Y-46151608D01*
X219344774Y-46125005D01*
X219327747Y-46096596D01*
X219313586Y-46066656D01*
X219302428Y-46035471D01*
X219294380Y-46003343D01*
X219289520Y-45970581D01*
X219287895Y-45937500D01*
X219287895Y-45262500D01*
X219289520Y-45229419D01*
X219294380Y-45196657D01*
X219302428Y-45164529D01*
X219313586Y-45133344D01*
X219327747Y-45103404D01*
X219344774Y-45074995D01*
X219364504Y-45048392D01*
X219386746Y-45023851D01*
X219411287Y-45001609D01*
X219437890Y-44981879D01*
X219466299Y-44964852D01*
X219496239Y-44950691D01*
X219527424Y-44939533D01*
X219559552Y-44931485D01*
X219592314Y-44926625D01*
X219625395Y-44925000D01*
X220400395Y-44925000D01*
X220433476Y-44926625D01*
X220433476Y-44926625D01*
G37*
D14*
X220012895Y-45600000D03*
G04 #@! TD*
D12*
G04 #@! TO.C,C3*
G36*
X218683476Y-46526625D02*
X218716238Y-46531485D01*
X218748366Y-46539533D01*
X218779551Y-46550691D01*
X218809491Y-46564852D01*
X218837900Y-46581879D01*
X218864503Y-46601609D01*
X218889044Y-46623851D01*
X218911286Y-46648392D01*
X218931016Y-46674995D01*
X218948043Y-46703404D01*
X218962204Y-46733344D01*
X218973362Y-46764529D01*
X218981410Y-46796657D01*
X218986270Y-46829419D01*
X218987895Y-46862500D01*
X218987895Y-47537500D01*
X218986270Y-47570581D01*
X218981410Y-47603343D01*
X218973362Y-47635471D01*
X218962204Y-47666656D01*
X218948043Y-47696596D01*
X218931016Y-47725005D01*
X218911286Y-47751608D01*
X218889044Y-47776149D01*
X218864503Y-47798391D01*
X218837900Y-47818121D01*
X218809491Y-47835148D01*
X218779551Y-47849309D01*
X218748366Y-47860467D01*
X218716238Y-47868515D01*
X218683476Y-47873375D01*
X218650395Y-47875000D01*
X217875395Y-47875000D01*
X217842314Y-47873375D01*
X217809552Y-47868515D01*
X217777424Y-47860467D01*
X217746239Y-47849309D01*
X217716299Y-47835148D01*
X217687890Y-47818121D01*
X217661287Y-47798391D01*
X217636746Y-47776149D01*
X217614504Y-47751608D01*
X217594774Y-47725005D01*
X217577747Y-47696596D01*
X217563586Y-47666656D01*
X217552428Y-47635471D01*
X217544380Y-47603343D01*
X217539520Y-47570581D01*
X217537895Y-47537500D01*
X217537895Y-46862500D01*
X217539520Y-46829419D01*
X217544380Y-46796657D01*
X217552428Y-46764529D01*
X217563586Y-46733344D01*
X217577747Y-46703404D01*
X217594774Y-46674995D01*
X217614504Y-46648392D01*
X217636746Y-46623851D01*
X217661287Y-46601609D01*
X217687890Y-46581879D01*
X217716299Y-46564852D01*
X217746239Y-46550691D01*
X217777424Y-46539533D01*
X217809552Y-46531485D01*
X217842314Y-46526625D01*
X217875395Y-46525000D01*
X218650395Y-46525000D01*
X218683476Y-46526625D01*
X218683476Y-46526625D01*
G37*
D14*
X218262895Y-47200000D03*
D12*
G36*
X220433476Y-46526625D02*
X220466238Y-46531485D01*
X220498366Y-46539533D01*
X220529551Y-46550691D01*
X220559491Y-46564852D01*
X220587900Y-46581879D01*
X220614503Y-46601609D01*
X220639044Y-46623851D01*
X220661286Y-46648392D01*
X220681016Y-46674995D01*
X220698043Y-46703404D01*
X220712204Y-46733344D01*
X220723362Y-46764529D01*
X220731410Y-46796657D01*
X220736270Y-46829419D01*
X220737895Y-46862500D01*
X220737895Y-47537500D01*
X220736270Y-47570581D01*
X220731410Y-47603343D01*
X220723362Y-47635471D01*
X220712204Y-47666656D01*
X220698043Y-47696596D01*
X220681016Y-47725005D01*
X220661286Y-47751608D01*
X220639044Y-47776149D01*
X220614503Y-47798391D01*
X220587900Y-47818121D01*
X220559491Y-47835148D01*
X220529551Y-47849309D01*
X220498366Y-47860467D01*
X220466238Y-47868515D01*
X220433476Y-47873375D01*
X220400395Y-47875000D01*
X219625395Y-47875000D01*
X219592314Y-47873375D01*
X219559552Y-47868515D01*
X219527424Y-47860467D01*
X219496239Y-47849309D01*
X219466299Y-47835148D01*
X219437890Y-47818121D01*
X219411287Y-47798391D01*
X219386746Y-47776149D01*
X219364504Y-47751608D01*
X219344774Y-47725005D01*
X219327747Y-47696596D01*
X219313586Y-47666656D01*
X219302428Y-47635471D01*
X219294380Y-47603343D01*
X219289520Y-47570581D01*
X219287895Y-47537500D01*
X219287895Y-46862500D01*
X219289520Y-46829419D01*
X219294380Y-46796657D01*
X219302428Y-46764529D01*
X219313586Y-46733344D01*
X219327747Y-46703404D01*
X219344774Y-46674995D01*
X219364504Y-46648392D01*
X219386746Y-46623851D01*
X219411287Y-46601609D01*
X219437890Y-46581879D01*
X219466299Y-46564852D01*
X219496239Y-46550691D01*
X219527424Y-46539533D01*
X219559552Y-46531485D01*
X219592314Y-46526625D01*
X219625395Y-46525000D01*
X220400395Y-46525000D01*
X220433476Y-46526625D01*
X220433476Y-46526625D01*
G37*
D14*
X220012895Y-47200000D03*
G04 #@! TD*
D12*
G04 #@! TO.C,L2*
G36*
X214074102Y-44876542D02*
X214105182Y-44881152D01*
X214135661Y-44888787D01*
X214165245Y-44899372D01*
X214193649Y-44912806D01*
X214220599Y-44928959D01*
X214245837Y-44947677D01*
X214269118Y-44968777D01*
X214290218Y-44992058D01*
X214308936Y-45017296D01*
X214325089Y-45044246D01*
X214338523Y-45072650D01*
X214349108Y-45102234D01*
X214356743Y-45132713D01*
X214361353Y-45163793D01*
X214362895Y-45195176D01*
X214362895Y-47604824D01*
X214361353Y-47636207D01*
X214356743Y-47667287D01*
X214349108Y-47697766D01*
X214338523Y-47727350D01*
X214325089Y-47755754D01*
X214308936Y-47782704D01*
X214290218Y-47807942D01*
X214269118Y-47831223D01*
X214245837Y-47852323D01*
X214220599Y-47871041D01*
X214193649Y-47887194D01*
X214165245Y-47900628D01*
X214135661Y-47911213D01*
X214105182Y-47918848D01*
X214074102Y-47923458D01*
X214042719Y-47925000D01*
X212858071Y-47925000D01*
X212826688Y-47923458D01*
X212795608Y-47918848D01*
X212765129Y-47911213D01*
X212735545Y-47900628D01*
X212707141Y-47887194D01*
X212680191Y-47871041D01*
X212654953Y-47852323D01*
X212631672Y-47831223D01*
X212610572Y-47807942D01*
X212591854Y-47782704D01*
X212575701Y-47755754D01*
X212562267Y-47727350D01*
X212551682Y-47697766D01*
X212544047Y-47667287D01*
X212539437Y-47636207D01*
X212537895Y-47604824D01*
X212537895Y-45195176D01*
X212539437Y-45163793D01*
X212544047Y-45132713D01*
X212551682Y-45102234D01*
X212562267Y-45072650D01*
X212575701Y-45044246D01*
X212591854Y-45017296D01*
X212610572Y-44992058D01*
X212631672Y-44968777D01*
X212654953Y-44947677D01*
X212680191Y-44928959D01*
X212707141Y-44912806D01*
X212735545Y-44899372D01*
X212765129Y-44888787D01*
X212795608Y-44881152D01*
X212826688Y-44876542D01*
X212858071Y-44875000D01*
X214042719Y-44875000D01*
X214074102Y-44876542D01*
X214074102Y-44876542D01*
G37*
D13*
X213450395Y-46400000D03*
D12*
G36*
X217049102Y-44876542D02*
X217080182Y-44881152D01*
X217110661Y-44888787D01*
X217140245Y-44899372D01*
X217168649Y-44912806D01*
X217195599Y-44928959D01*
X217220837Y-44947677D01*
X217244118Y-44968777D01*
X217265218Y-44992058D01*
X217283936Y-45017296D01*
X217300089Y-45044246D01*
X217313523Y-45072650D01*
X217324108Y-45102234D01*
X217331743Y-45132713D01*
X217336353Y-45163793D01*
X217337895Y-45195176D01*
X217337895Y-47604824D01*
X217336353Y-47636207D01*
X217331743Y-47667287D01*
X217324108Y-47697766D01*
X217313523Y-47727350D01*
X217300089Y-47755754D01*
X217283936Y-47782704D01*
X217265218Y-47807942D01*
X217244118Y-47831223D01*
X217220837Y-47852323D01*
X217195599Y-47871041D01*
X217168649Y-47887194D01*
X217140245Y-47900628D01*
X217110661Y-47911213D01*
X217080182Y-47918848D01*
X217049102Y-47923458D01*
X217017719Y-47925000D01*
X215833071Y-47925000D01*
X215801688Y-47923458D01*
X215770608Y-47918848D01*
X215740129Y-47911213D01*
X215710545Y-47900628D01*
X215682141Y-47887194D01*
X215655191Y-47871041D01*
X215629953Y-47852323D01*
X215606672Y-47831223D01*
X215585572Y-47807942D01*
X215566854Y-47782704D01*
X215550701Y-47755754D01*
X215537267Y-47727350D01*
X215526682Y-47697766D01*
X215519047Y-47667287D01*
X215514437Y-47636207D01*
X215512895Y-47604824D01*
X215512895Y-45195176D01*
X215514437Y-45163793D01*
X215519047Y-45132713D01*
X215526682Y-45102234D01*
X215537267Y-45072650D01*
X215550701Y-45044246D01*
X215566854Y-45017296D01*
X215585572Y-44992058D01*
X215606672Y-44968777D01*
X215629953Y-44947677D01*
X215655191Y-44928959D01*
X215682141Y-44912806D01*
X215710545Y-44899372D01*
X215740129Y-44888787D01*
X215770608Y-44881152D01*
X215801688Y-44876542D01*
X215833071Y-44875000D01*
X217017719Y-44875000D01*
X217049102Y-44876542D01*
X217049102Y-44876542D01*
G37*
D13*
X216425395Y-46400000D03*
G04 #@! TD*
D12*
G04 #@! TO.C,R11*
G36*
X222008476Y-46551625D02*
X222041238Y-46556485D01*
X222073366Y-46564533D01*
X222104551Y-46575691D01*
X222134491Y-46589852D01*
X222162900Y-46606879D01*
X222189503Y-46626609D01*
X222214044Y-46648851D01*
X222236286Y-46673392D01*
X222256016Y-46699995D01*
X222273043Y-46728404D01*
X222287204Y-46758344D01*
X222298362Y-46789529D01*
X222306410Y-46821657D01*
X222311270Y-46854419D01*
X222312895Y-46887500D01*
X222312895Y-47662500D01*
X222311270Y-47695581D01*
X222306410Y-47728343D01*
X222298362Y-47760471D01*
X222287204Y-47791656D01*
X222273043Y-47821596D01*
X222256016Y-47850005D01*
X222236286Y-47876608D01*
X222214044Y-47901149D01*
X222189503Y-47923391D01*
X222162900Y-47943121D01*
X222134491Y-47960148D01*
X222104551Y-47974309D01*
X222073366Y-47985467D01*
X222041238Y-47993515D01*
X222008476Y-47998375D01*
X221975395Y-48000000D01*
X221300395Y-48000000D01*
X221267314Y-47998375D01*
X221234552Y-47993515D01*
X221202424Y-47985467D01*
X221171239Y-47974309D01*
X221141299Y-47960148D01*
X221112890Y-47943121D01*
X221086287Y-47923391D01*
X221061746Y-47901149D01*
X221039504Y-47876608D01*
X221019774Y-47850005D01*
X221002747Y-47821596D01*
X220988586Y-47791656D01*
X220977428Y-47760471D01*
X220969380Y-47728343D01*
X220964520Y-47695581D01*
X220962895Y-47662500D01*
X220962895Y-46887500D01*
X220964520Y-46854419D01*
X220969380Y-46821657D01*
X220977428Y-46789529D01*
X220988586Y-46758344D01*
X221002747Y-46728404D01*
X221019774Y-46699995D01*
X221039504Y-46673392D01*
X221061746Y-46648851D01*
X221086287Y-46626609D01*
X221112890Y-46606879D01*
X221141299Y-46589852D01*
X221171239Y-46575691D01*
X221202424Y-46564533D01*
X221234552Y-46556485D01*
X221267314Y-46551625D01*
X221300395Y-46550000D01*
X221975395Y-46550000D01*
X222008476Y-46551625D01*
X222008476Y-46551625D01*
G37*
D14*
X221637895Y-47275000D03*
D12*
G36*
X222008476Y-44801625D02*
X222041238Y-44806485D01*
X222073366Y-44814533D01*
X222104551Y-44825691D01*
X222134491Y-44839852D01*
X222162900Y-44856879D01*
X222189503Y-44876609D01*
X222214044Y-44898851D01*
X222236286Y-44923392D01*
X222256016Y-44949995D01*
X222273043Y-44978404D01*
X222287204Y-45008344D01*
X222298362Y-45039529D01*
X222306410Y-45071657D01*
X222311270Y-45104419D01*
X222312895Y-45137500D01*
X222312895Y-45912500D01*
X222311270Y-45945581D01*
X222306410Y-45978343D01*
X222298362Y-46010471D01*
X222287204Y-46041656D01*
X222273043Y-46071596D01*
X222256016Y-46100005D01*
X222236286Y-46126608D01*
X222214044Y-46151149D01*
X222189503Y-46173391D01*
X222162900Y-46193121D01*
X222134491Y-46210148D01*
X222104551Y-46224309D01*
X222073366Y-46235467D01*
X222041238Y-46243515D01*
X222008476Y-46248375D01*
X221975395Y-46250000D01*
X221300395Y-46250000D01*
X221267314Y-46248375D01*
X221234552Y-46243515D01*
X221202424Y-46235467D01*
X221171239Y-46224309D01*
X221141299Y-46210148D01*
X221112890Y-46193121D01*
X221086287Y-46173391D01*
X221061746Y-46151149D01*
X221039504Y-46126608D01*
X221019774Y-46100005D01*
X221002747Y-46071596D01*
X220988586Y-46041656D01*
X220977428Y-46010471D01*
X220969380Y-45978343D01*
X220964520Y-45945581D01*
X220962895Y-45912500D01*
X220962895Y-45137500D01*
X220964520Y-45104419D01*
X220969380Y-45071657D01*
X220977428Y-45039529D01*
X220988586Y-45008344D01*
X221002747Y-44978404D01*
X221019774Y-44949995D01*
X221039504Y-44923392D01*
X221061746Y-44898851D01*
X221086287Y-44876609D01*
X221112890Y-44856879D01*
X221141299Y-44839852D01*
X221171239Y-44825691D01*
X221202424Y-44814533D01*
X221234552Y-44806485D01*
X221267314Y-44801625D01*
X221300395Y-44800000D01*
X221975395Y-44800000D01*
X222008476Y-44801625D01*
X222008476Y-44801625D01*
G37*
D14*
X221637895Y-45525000D03*
G04 #@! TD*
D12*
G04 #@! TO.C,R8*
G36*
X211908476Y-44801625D02*
X211941238Y-44806485D01*
X211973366Y-44814533D01*
X212004551Y-44825691D01*
X212034491Y-44839852D01*
X212062900Y-44856879D01*
X212089503Y-44876609D01*
X212114044Y-44898851D01*
X212136286Y-44923392D01*
X212156016Y-44949995D01*
X212173043Y-44978404D01*
X212187204Y-45008344D01*
X212198362Y-45039529D01*
X212206410Y-45071657D01*
X212211270Y-45104419D01*
X212212895Y-45137500D01*
X212212895Y-45912500D01*
X212211270Y-45945581D01*
X212206410Y-45978343D01*
X212198362Y-46010471D01*
X212187204Y-46041656D01*
X212173043Y-46071596D01*
X212156016Y-46100005D01*
X212136286Y-46126608D01*
X212114044Y-46151149D01*
X212089503Y-46173391D01*
X212062900Y-46193121D01*
X212034491Y-46210148D01*
X212004551Y-46224309D01*
X211973366Y-46235467D01*
X211941238Y-46243515D01*
X211908476Y-46248375D01*
X211875395Y-46250000D01*
X211200395Y-46250000D01*
X211167314Y-46248375D01*
X211134552Y-46243515D01*
X211102424Y-46235467D01*
X211071239Y-46224309D01*
X211041299Y-46210148D01*
X211012890Y-46193121D01*
X210986287Y-46173391D01*
X210961746Y-46151149D01*
X210939504Y-46126608D01*
X210919774Y-46100005D01*
X210902747Y-46071596D01*
X210888586Y-46041656D01*
X210877428Y-46010471D01*
X210869380Y-45978343D01*
X210864520Y-45945581D01*
X210862895Y-45912500D01*
X210862895Y-45137500D01*
X210864520Y-45104419D01*
X210869380Y-45071657D01*
X210877428Y-45039529D01*
X210888586Y-45008344D01*
X210902747Y-44978404D01*
X210919774Y-44949995D01*
X210939504Y-44923392D01*
X210961746Y-44898851D01*
X210986287Y-44876609D01*
X211012890Y-44856879D01*
X211041299Y-44839852D01*
X211071239Y-44825691D01*
X211102424Y-44814533D01*
X211134552Y-44806485D01*
X211167314Y-44801625D01*
X211200395Y-44800000D01*
X211875395Y-44800000D01*
X211908476Y-44801625D01*
X211908476Y-44801625D01*
G37*
D14*
X211537895Y-45525000D03*
D12*
G36*
X211908476Y-46551625D02*
X211941238Y-46556485D01*
X211973366Y-46564533D01*
X212004551Y-46575691D01*
X212034491Y-46589852D01*
X212062900Y-46606879D01*
X212089503Y-46626609D01*
X212114044Y-46648851D01*
X212136286Y-46673392D01*
X212156016Y-46699995D01*
X212173043Y-46728404D01*
X212187204Y-46758344D01*
X212198362Y-46789529D01*
X212206410Y-46821657D01*
X212211270Y-46854419D01*
X212212895Y-46887500D01*
X212212895Y-47662500D01*
X212211270Y-47695581D01*
X212206410Y-47728343D01*
X212198362Y-47760471D01*
X212187204Y-47791656D01*
X212173043Y-47821596D01*
X212156016Y-47850005D01*
X212136286Y-47876608D01*
X212114044Y-47901149D01*
X212089503Y-47923391D01*
X212062900Y-47943121D01*
X212034491Y-47960148D01*
X212004551Y-47974309D01*
X211973366Y-47985467D01*
X211941238Y-47993515D01*
X211908476Y-47998375D01*
X211875395Y-48000000D01*
X211200395Y-48000000D01*
X211167314Y-47998375D01*
X211134552Y-47993515D01*
X211102424Y-47985467D01*
X211071239Y-47974309D01*
X211041299Y-47960148D01*
X211012890Y-47943121D01*
X210986287Y-47923391D01*
X210961746Y-47901149D01*
X210939504Y-47876608D01*
X210919774Y-47850005D01*
X210902747Y-47821596D01*
X210888586Y-47791656D01*
X210877428Y-47760471D01*
X210869380Y-47728343D01*
X210864520Y-47695581D01*
X210862895Y-47662500D01*
X210862895Y-46887500D01*
X210864520Y-46854419D01*
X210869380Y-46821657D01*
X210877428Y-46789529D01*
X210888586Y-46758344D01*
X210902747Y-46728404D01*
X210919774Y-46699995D01*
X210939504Y-46673392D01*
X210961746Y-46648851D01*
X210986287Y-46626609D01*
X211012890Y-46606879D01*
X211041299Y-46589852D01*
X211071239Y-46575691D01*
X211102424Y-46564533D01*
X211134552Y-46556485D01*
X211167314Y-46551625D01*
X211200395Y-46550000D01*
X211875395Y-46550000D01*
X211908476Y-46551625D01*
X211908476Y-46551625D01*
G37*
D14*
X211537895Y-47275000D03*
G04 #@! TD*
D12*
G04 #@! TO.C,R7*
G36*
X210308476Y-44801625D02*
X210341238Y-44806485D01*
X210373366Y-44814533D01*
X210404551Y-44825691D01*
X210434491Y-44839852D01*
X210462900Y-44856879D01*
X210489503Y-44876609D01*
X210514044Y-44898851D01*
X210536286Y-44923392D01*
X210556016Y-44949995D01*
X210573043Y-44978404D01*
X210587204Y-45008344D01*
X210598362Y-45039529D01*
X210606410Y-45071657D01*
X210611270Y-45104419D01*
X210612895Y-45137500D01*
X210612895Y-45912500D01*
X210611270Y-45945581D01*
X210606410Y-45978343D01*
X210598362Y-46010471D01*
X210587204Y-46041656D01*
X210573043Y-46071596D01*
X210556016Y-46100005D01*
X210536286Y-46126608D01*
X210514044Y-46151149D01*
X210489503Y-46173391D01*
X210462900Y-46193121D01*
X210434491Y-46210148D01*
X210404551Y-46224309D01*
X210373366Y-46235467D01*
X210341238Y-46243515D01*
X210308476Y-46248375D01*
X210275395Y-46250000D01*
X209600395Y-46250000D01*
X209567314Y-46248375D01*
X209534552Y-46243515D01*
X209502424Y-46235467D01*
X209471239Y-46224309D01*
X209441299Y-46210148D01*
X209412890Y-46193121D01*
X209386287Y-46173391D01*
X209361746Y-46151149D01*
X209339504Y-46126608D01*
X209319774Y-46100005D01*
X209302747Y-46071596D01*
X209288586Y-46041656D01*
X209277428Y-46010471D01*
X209269380Y-45978343D01*
X209264520Y-45945581D01*
X209262895Y-45912500D01*
X209262895Y-45137500D01*
X209264520Y-45104419D01*
X209269380Y-45071657D01*
X209277428Y-45039529D01*
X209288586Y-45008344D01*
X209302747Y-44978404D01*
X209319774Y-44949995D01*
X209339504Y-44923392D01*
X209361746Y-44898851D01*
X209386287Y-44876609D01*
X209412890Y-44856879D01*
X209441299Y-44839852D01*
X209471239Y-44825691D01*
X209502424Y-44814533D01*
X209534552Y-44806485D01*
X209567314Y-44801625D01*
X209600395Y-44800000D01*
X210275395Y-44800000D01*
X210308476Y-44801625D01*
X210308476Y-44801625D01*
G37*
D14*
X209937895Y-45525000D03*
D12*
G36*
X210308476Y-46551625D02*
X210341238Y-46556485D01*
X210373366Y-46564533D01*
X210404551Y-46575691D01*
X210434491Y-46589852D01*
X210462900Y-46606879D01*
X210489503Y-46626609D01*
X210514044Y-46648851D01*
X210536286Y-46673392D01*
X210556016Y-46699995D01*
X210573043Y-46728404D01*
X210587204Y-46758344D01*
X210598362Y-46789529D01*
X210606410Y-46821657D01*
X210611270Y-46854419D01*
X210612895Y-46887500D01*
X210612895Y-47662500D01*
X210611270Y-47695581D01*
X210606410Y-47728343D01*
X210598362Y-47760471D01*
X210587204Y-47791656D01*
X210573043Y-47821596D01*
X210556016Y-47850005D01*
X210536286Y-47876608D01*
X210514044Y-47901149D01*
X210489503Y-47923391D01*
X210462900Y-47943121D01*
X210434491Y-47960148D01*
X210404551Y-47974309D01*
X210373366Y-47985467D01*
X210341238Y-47993515D01*
X210308476Y-47998375D01*
X210275395Y-48000000D01*
X209600395Y-48000000D01*
X209567314Y-47998375D01*
X209534552Y-47993515D01*
X209502424Y-47985467D01*
X209471239Y-47974309D01*
X209441299Y-47960148D01*
X209412890Y-47943121D01*
X209386287Y-47923391D01*
X209361746Y-47901149D01*
X209339504Y-47876608D01*
X209319774Y-47850005D01*
X209302747Y-47821596D01*
X209288586Y-47791656D01*
X209277428Y-47760471D01*
X209269380Y-47728343D01*
X209264520Y-47695581D01*
X209262895Y-47662500D01*
X209262895Y-46887500D01*
X209264520Y-46854419D01*
X209269380Y-46821657D01*
X209277428Y-46789529D01*
X209288586Y-46758344D01*
X209302747Y-46728404D01*
X209319774Y-46699995D01*
X209339504Y-46673392D01*
X209361746Y-46648851D01*
X209386287Y-46626609D01*
X209412890Y-46606879D01*
X209441299Y-46589852D01*
X209471239Y-46575691D01*
X209502424Y-46564533D01*
X209534552Y-46556485D01*
X209567314Y-46551625D01*
X209600395Y-46550000D01*
X210275395Y-46550000D01*
X210308476Y-46551625D01*
X210308476Y-46551625D01*
G37*
D14*
X209937895Y-47275000D03*
G04 #@! TD*
D12*
G04 #@! TO.C,C1*
G36*
X214970581Y-49001625D02*
X215003343Y-49006485D01*
X215035471Y-49014533D01*
X215066656Y-49025691D01*
X215096596Y-49039852D01*
X215125005Y-49056879D01*
X215151608Y-49076609D01*
X215176149Y-49098851D01*
X215198391Y-49123392D01*
X215218121Y-49149995D01*
X215235148Y-49178404D01*
X215249309Y-49208344D01*
X215260467Y-49239529D01*
X215268515Y-49271657D01*
X215273375Y-49304419D01*
X215275000Y-49337500D01*
X215275000Y-50112500D01*
X215273375Y-50145581D01*
X215268515Y-50178343D01*
X215260467Y-50210471D01*
X215249309Y-50241656D01*
X215235148Y-50271596D01*
X215218121Y-50300005D01*
X215198391Y-50326608D01*
X215176149Y-50351149D01*
X215151608Y-50373391D01*
X215125005Y-50393121D01*
X215096596Y-50410148D01*
X215066656Y-50424309D01*
X215035471Y-50435467D01*
X215003343Y-50443515D01*
X214970581Y-50448375D01*
X214937500Y-50450000D01*
X214262500Y-50450000D01*
X214229419Y-50448375D01*
X214196657Y-50443515D01*
X214164529Y-50435467D01*
X214133344Y-50424309D01*
X214103404Y-50410148D01*
X214074995Y-50393121D01*
X214048392Y-50373391D01*
X214023851Y-50351149D01*
X214001609Y-50326608D01*
X213981879Y-50300005D01*
X213964852Y-50271596D01*
X213950691Y-50241656D01*
X213939533Y-50210471D01*
X213931485Y-50178343D01*
X213926625Y-50145581D01*
X213925000Y-50112500D01*
X213925000Y-49337500D01*
X213926625Y-49304419D01*
X213931485Y-49271657D01*
X213939533Y-49239529D01*
X213950691Y-49208344D01*
X213964852Y-49178404D01*
X213981879Y-49149995D01*
X214001609Y-49123392D01*
X214023851Y-49098851D01*
X214048392Y-49076609D01*
X214074995Y-49056879D01*
X214103404Y-49039852D01*
X214133344Y-49025691D01*
X214164529Y-49014533D01*
X214196657Y-49006485D01*
X214229419Y-49001625D01*
X214262500Y-49000000D01*
X214937500Y-49000000D01*
X214970581Y-49001625D01*
X214970581Y-49001625D01*
G37*
D14*
X214600000Y-49725000D03*
D12*
G36*
X214970581Y-50751625D02*
X215003343Y-50756485D01*
X215035471Y-50764533D01*
X215066656Y-50775691D01*
X215096596Y-50789852D01*
X215125005Y-50806879D01*
X215151608Y-50826609D01*
X215176149Y-50848851D01*
X215198391Y-50873392D01*
X215218121Y-50899995D01*
X215235148Y-50928404D01*
X215249309Y-50958344D01*
X215260467Y-50989529D01*
X215268515Y-51021657D01*
X215273375Y-51054419D01*
X215275000Y-51087500D01*
X215275000Y-51862500D01*
X215273375Y-51895581D01*
X215268515Y-51928343D01*
X215260467Y-51960471D01*
X215249309Y-51991656D01*
X215235148Y-52021596D01*
X215218121Y-52050005D01*
X215198391Y-52076608D01*
X215176149Y-52101149D01*
X215151608Y-52123391D01*
X215125005Y-52143121D01*
X215096596Y-52160148D01*
X215066656Y-52174309D01*
X215035471Y-52185467D01*
X215003343Y-52193515D01*
X214970581Y-52198375D01*
X214937500Y-52200000D01*
X214262500Y-52200000D01*
X214229419Y-52198375D01*
X214196657Y-52193515D01*
X214164529Y-52185467D01*
X214133344Y-52174309D01*
X214103404Y-52160148D01*
X214074995Y-52143121D01*
X214048392Y-52123391D01*
X214023851Y-52101149D01*
X214001609Y-52076608D01*
X213981879Y-52050005D01*
X213964852Y-52021596D01*
X213950691Y-51991656D01*
X213939533Y-51960471D01*
X213931485Y-51928343D01*
X213926625Y-51895581D01*
X213925000Y-51862500D01*
X213925000Y-51087500D01*
X213926625Y-51054419D01*
X213931485Y-51021657D01*
X213939533Y-50989529D01*
X213950691Y-50958344D01*
X213964852Y-50928404D01*
X213981879Y-50899995D01*
X214001609Y-50873392D01*
X214023851Y-50848851D01*
X214048392Y-50826609D01*
X214074995Y-50806879D01*
X214103404Y-50789852D01*
X214133344Y-50775691D01*
X214164529Y-50764533D01*
X214196657Y-50756485D01*
X214229419Y-50751625D01*
X214262500Y-50750000D01*
X214937500Y-50750000D01*
X214970581Y-50751625D01*
X214970581Y-50751625D01*
G37*
D14*
X214600000Y-51475000D03*
G04 #@! TD*
D12*
G04 #@! TO.C,C2*
G36*
X221295581Y-60626625D02*
X221328343Y-60631485D01*
X221360471Y-60639533D01*
X221391656Y-60650691D01*
X221421596Y-60664852D01*
X221450005Y-60681879D01*
X221476608Y-60701609D01*
X221501149Y-60723851D01*
X221523391Y-60748392D01*
X221543121Y-60774995D01*
X221560148Y-60803404D01*
X221574309Y-60833344D01*
X221585467Y-60864529D01*
X221593515Y-60896657D01*
X221598375Y-60929419D01*
X221600000Y-60962500D01*
X221600000Y-61637500D01*
X221598375Y-61670581D01*
X221593515Y-61703343D01*
X221585467Y-61735471D01*
X221574309Y-61766656D01*
X221560148Y-61796596D01*
X221543121Y-61825005D01*
X221523391Y-61851608D01*
X221501149Y-61876149D01*
X221476608Y-61898391D01*
X221450005Y-61918121D01*
X221421596Y-61935148D01*
X221391656Y-61949309D01*
X221360471Y-61960467D01*
X221328343Y-61968515D01*
X221295581Y-61973375D01*
X221262500Y-61975000D01*
X220487500Y-61975000D01*
X220454419Y-61973375D01*
X220421657Y-61968515D01*
X220389529Y-61960467D01*
X220358344Y-61949309D01*
X220328404Y-61935148D01*
X220299995Y-61918121D01*
X220273392Y-61898391D01*
X220248851Y-61876149D01*
X220226609Y-61851608D01*
X220206879Y-61825005D01*
X220189852Y-61796596D01*
X220175691Y-61766656D01*
X220164533Y-61735471D01*
X220156485Y-61703343D01*
X220151625Y-61670581D01*
X220150000Y-61637500D01*
X220150000Y-60962500D01*
X220151625Y-60929419D01*
X220156485Y-60896657D01*
X220164533Y-60864529D01*
X220175691Y-60833344D01*
X220189852Y-60803404D01*
X220206879Y-60774995D01*
X220226609Y-60748392D01*
X220248851Y-60723851D01*
X220273392Y-60701609D01*
X220299995Y-60681879D01*
X220328404Y-60664852D01*
X220358344Y-60650691D01*
X220389529Y-60639533D01*
X220421657Y-60631485D01*
X220454419Y-60626625D01*
X220487500Y-60625000D01*
X221262500Y-60625000D01*
X221295581Y-60626625D01*
X221295581Y-60626625D01*
G37*
D14*
X220875000Y-61300000D03*
D12*
G36*
X219545581Y-60626625D02*
X219578343Y-60631485D01*
X219610471Y-60639533D01*
X219641656Y-60650691D01*
X219671596Y-60664852D01*
X219700005Y-60681879D01*
X219726608Y-60701609D01*
X219751149Y-60723851D01*
X219773391Y-60748392D01*
X219793121Y-60774995D01*
X219810148Y-60803404D01*
X219824309Y-60833344D01*
X219835467Y-60864529D01*
X219843515Y-60896657D01*
X219848375Y-60929419D01*
X219850000Y-60962500D01*
X219850000Y-61637500D01*
X219848375Y-61670581D01*
X219843515Y-61703343D01*
X219835467Y-61735471D01*
X219824309Y-61766656D01*
X219810148Y-61796596D01*
X219793121Y-61825005D01*
X219773391Y-61851608D01*
X219751149Y-61876149D01*
X219726608Y-61898391D01*
X219700005Y-61918121D01*
X219671596Y-61935148D01*
X219641656Y-61949309D01*
X219610471Y-61960467D01*
X219578343Y-61968515D01*
X219545581Y-61973375D01*
X219512500Y-61975000D01*
X218737500Y-61975000D01*
X218704419Y-61973375D01*
X218671657Y-61968515D01*
X218639529Y-61960467D01*
X218608344Y-61949309D01*
X218578404Y-61935148D01*
X218549995Y-61918121D01*
X218523392Y-61898391D01*
X218498851Y-61876149D01*
X218476609Y-61851608D01*
X218456879Y-61825005D01*
X218439852Y-61796596D01*
X218425691Y-61766656D01*
X218414533Y-61735471D01*
X218406485Y-61703343D01*
X218401625Y-61670581D01*
X218400000Y-61637500D01*
X218400000Y-60962500D01*
X218401625Y-60929419D01*
X218406485Y-60896657D01*
X218414533Y-60864529D01*
X218425691Y-60833344D01*
X218439852Y-60803404D01*
X218456879Y-60774995D01*
X218476609Y-60748392D01*
X218498851Y-60723851D01*
X218523392Y-60701609D01*
X218549995Y-60681879D01*
X218578404Y-60664852D01*
X218608344Y-60650691D01*
X218639529Y-60639533D01*
X218671657Y-60631485D01*
X218704419Y-60626625D01*
X218737500Y-60625000D01*
X219512500Y-60625000D01*
X219545581Y-60626625D01*
X219545581Y-60626625D01*
G37*
D14*
X219125000Y-61300000D03*
G04 #@! TD*
D15*
G04 #@! TO.C,J1*
X244580000Y-54000000D03*
X242040000Y-54000000D03*
D16*
X239500000Y-54000000D03*
G04 #@! TD*
D17*
G04 #@! TO.C,J2*
X209700000Y-52500000D03*
D18*
X209700000Y-55040000D03*
X209700000Y-57580000D03*
X209700000Y-60120000D03*
G04 #@! TD*
D12*
G04 #@! TO.C,L1*
G36*
X217911207Y-58976542D02*
X217942287Y-58981152D01*
X217972766Y-58988787D01*
X218002350Y-58999372D01*
X218030754Y-59012806D01*
X218057704Y-59028959D01*
X218082942Y-59047677D01*
X218106223Y-59068777D01*
X218127323Y-59092058D01*
X218146041Y-59117296D01*
X218162194Y-59144246D01*
X218175628Y-59172650D01*
X218186213Y-59202234D01*
X218193848Y-59232713D01*
X218198458Y-59263793D01*
X218200000Y-59295176D01*
X218200000Y-61704824D01*
X218198458Y-61736207D01*
X218193848Y-61767287D01*
X218186213Y-61797766D01*
X218175628Y-61827350D01*
X218162194Y-61855754D01*
X218146041Y-61882704D01*
X218127323Y-61907942D01*
X218106223Y-61931223D01*
X218082942Y-61952323D01*
X218057704Y-61971041D01*
X218030754Y-61987194D01*
X218002350Y-62000628D01*
X217972766Y-62011213D01*
X217942287Y-62018848D01*
X217911207Y-62023458D01*
X217879824Y-62025000D01*
X216695176Y-62025000D01*
X216663793Y-62023458D01*
X216632713Y-62018848D01*
X216602234Y-62011213D01*
X216572650Y-62000628D01*
X216544246Y-61987194D01*
X216517296Y-61971041D01*
X216492058Y-61952323D01*
X216468777Y-61931223D01*
X216447677Y-61907942D01*
X216428959Y-61882704D01*
X216412806Y-61855754D01*
X216399372Y-61827350D01*
X216388787Y-61797766D01*
X216381152Y-61767287D01*
X216376542Y-61736207D01*
X216375000Y-61704824D01*
X216375000Y-59295176D01*
X216376542Y-59263793D01*
X216381152Y-59232713D01*
X216388787Y-59202234D01*
X216399372Y-59172650D01*
X216412806Y-59144246D01*
X216428959Y-59117296D01*
X216447677Y-59092058D01*
X216468777Y-59068777D01*
X216492058Y-59047677D01*
X216517296Y-59028959D01*
X216544246Y-59012806D01*
X216572650Y-58999372D01*
X216602234Y-58988787D01*
X216632713Y-58981152D01*
X216663793Y-58976542D01*
X216695176Y-58975000D01*
X217879824Y-58975000D01*
X217911207Y-58976542D01*
X217911207Y-58976542D01*
G37*
D13*
X217287500Y-60500000D03*
D12*
G36*
X214936207Y-58976542D02*
X214967287Y-58981152D01*
X214997766Y-58988787D01*
X215027350Y-58999372D01*
X215055754Y-59012806D01*
X215082704Y-59028959D01*
X215107942Y-59047677D01*
X215131223Y-59068777D01*
X215152323Y-59092058D01*
X215171041Y-59117296D01*
X215187194Y-59144246D01*
X215200628Y-59172650D01*
X215211213Y-59202234D01*
X215218848Y-59232713D01*
X215223458Y-59263793D01*
X215225000Y-59295176D01*
X215225000Y-61704824D01*
X215223458Y-61736207D01*
X215218848Y-61767287D01*
X215211213Y-61797766D01*
X215200628Y-61827350D01*
X215187194Y-61855754D01*
X215171041Y-61882704D01*
X215152323Y-61907942D01*
X215131223Y-61931223D01*
X215107942Y-61952323D01*
X215082704Y-61971041D01*
X215055754Y-61987194D01*
X215027350Y-62000628D01*
X214997766Y-62011213D01*
X214967287Y-62018848D01*
X214936207Y-62023458D01*
X214904824Y-62025000D01*
X213720176Y-62025000D01*
X213688793Y-62023458D01*
X213657713Y-62018848D01*
X213627234Y-62011213D01*
X213597650Y-62000628D01*
X213569246Y-61987194D01*
X213542296Y-61971041D01*
X213517058Y-61952323D01*
X213493777Y-61931223D01*
X213472677Y-61907942D01*
X213453959Y-61882704D01*
X213437806Y-61855754D01*
X213424372Y-61827350D01*
X213413787Y-61797766D01*
X213406152Y-61767287D01*
X213401542Y-61736207D01*
X213400000Y-61704824D01*
X213400000Y-59295176D01*
X213401542Y-59263793D01*
X213406152Y-59232713D01*
X213413787Y-59202234D01*
X213424372Y-59172650D01*
X213437806Y-59144246D01*
X213453959Y-59117296D01*
X213472677Y-59092058D01*
X213493777Y-59068777D01*
X213517058Y-59047677D01*
X213542296Y-59028959D01*
X213569246Y-59012806D01*
X213597650Y-58999372D01*
X213627234Y-58988787D01*
X213657713Y-58981152D01*
X213688793Y-58976542D01*
X213720176Y-58975000D01*
X214904824Y-58975000D01*
X214936207Y-58976542D01*
X214936207Y-58976542D01*
G37*
D13*
X214312500Y-60500000D03*
G04 #@! TD*
D11*
G04 #@! TO.C,Q1*
X225400000Y-54520000D03*
X225400000Y-59080000D03*
D10*
X231700000Y-56800000D03*
G04 #@! TD*
D12*
G04 #@! TO.C,R1*
G36*
X214570581Y-54001625D02*
X214603343Y-54006485D01*
X214635471Y-54014533D01*
X214666656Y-54025691D01*
X214696596Y-54039852D01*
X214725005Y-54056879D01*
X214751608Y-54076609D01*
X214776149Y-54098851D01*
X214798391Y-54123392D01*
X214818121Y-54149995D01*
X214835148Y-54178404D01*
X214849309Y-54208344D01*
X214860467Y-54239529D01*
X214868515Y-54271657D01*
X214873375Y-54304419D01*
X214875000Y-54337500D01*
X214875000Y-55112500D01*
X214873375Y-55145581D01*
X214868515Y-55178343D01*
X214860467Y-55210471D01*
X214849309Y-55241656D01*
X214835148Y-55271596D01*
X214818121Y-55300005D01*
X214798391Y-55326608D01*
X214776149Y-55351149D01*
X214751608Y-55373391D01*
X214725005Y-55393121D01*
X214696596Y-55410148D01*
X214666656Y-55424309D01*
X214635471Y-55435467D01*
X214603343Y-55443515D01*
X214570581Y-55448375D01*
X214537500Y-55450000D01*
X213862500Y-55450000D01*
X213829419Y-55448375D01*
X213796657Y-55443515D01*
X213764529Y-55435467D01*
X213733344Y-55424309D01*
X213703404Y-55410148D01*
X213674995Y-55393121D01*
X213648392Y-55373391D01*
X213623851Y-55351149D01*
X213601609Y-55326608D01*
X213581879Y-55300005D01*
X213564852Y-55271596D01*
X213550691Y-55241656D01*
X213539533Y-55210471D01*
X213531485Y-55178343D01*
X213526625Y-55145581D01*
X213525000Y-55112500D01*
X213525000Y-54337500D01*
X213526625Y-54304419D01*
X213531485Y-54271657D01*
X213539533Y-54239529D01*
X213550691Y-54208344D01*
X213564852Y-54178404D01*
X213581879Y-54149995D01*
X213601609Y-54123392D01*
X213623851Y-54098851D01*
X213648392Y-54076609D01*
X213674995Y-54056879D01*
X213703404Y-54039852D01*
X213733344Y-54025691D01*
X213764529Y-54014533D01*
X213796657Y-54006485D01*
X213829419Y-54001625D01*
X213862500Y-54000000D01*
X214537500Y-54000000D01*
X214570581Y-54001625D01*
X214570581Y-54001625D01*
G37*
D14*
X214200000Y-54725000D03*
D12*
G36*
X214570581Y-55751625D02*
X214603343Y-55756485D01*
X214635471Y-55764533D01*
X214666656Y-55775691D01*
X214696596Y-55789852D01*
X214725005Y-55806879D01*
X214751608Y-55826609D01*
X214776149Y-55848851D01*
X214798391Y-55873392D01*
X214818121Y-55899995D01*
X214835148Y-55928404D01*
X214849309Y-55958344D01*
X214860467Y-55989529D01*
X214868515Y-56021657D01*
X214873375Y-56054419D01*
X214875000Y-56087500D01*
X214875000Y-56862500D01*
X214873375Y-56895581D01*
X214868515Y-56928343D01*
X214860467Y-56960471D01*
X214849309Y-56991656D01*
X214835148Y-57021596D01*
X214818121Y-57050005D01*
X214798391Y-57076608D01*
X214776149Y-57101149D01*
X214751608Y-57123391D01*
X214725005Y-57143121D01*
X214696596Y-57160148D01*
X214666656Y-57174309D01*
X214635471Y-57185467D01*
X214603343Y-57193515D01*
X214570581Y-57198375D01*
X214537500Y-57200000D01*
X213862500Y-57200000D01*
X213829419Y-57198375D01*
X213796657Y-57193515D01*
X213764529Y-57185467D01*
X213733344Y-57174309D01*
X213703404Y-57160148D01*
X213674995Y-57143121D01*
X213648392Y-57123391D01*
X213623851Y-57101149D01*
X213601609Y-57076608D01*
X213581879Y-57050005D01*
X213564852Y-57021596D01*
X213550691Y-56991656D01*
X213539533Y-56960471D01*
X213531485Y-56928343D01*
X213526625Y-56895581D01*
X213525000Y-56862500D01*
X213525000Y-56087500D01*
X213526625Y-56054419D01*
X213531485Y-56021657D01*
X213539533Y-55989529D01*
X213550691Y-55958344D01*
X213564852Y-55928404D01*
X213581879Y-55899995D01*
X213601609Y-55873392D01*
X213623851Y-55848851D01*
X213648392Y-55826609D01*
X213674995Y-55806879D01*
X213703404Y-55789852D01*
X213733344Y-55775691D01*
X213764529Y-55764533D01*
X213796657Y-55756485D01*
X213829419Y-55751625D01*
X213862500Y-55750000D01*
X214537500Y-55750000D01*
X214570581Y-55751625D01*
X214570581Y-55751625D01*
G37*
D14*
X214200000Y-56475000D03*
G04 #@! TD*
D12*
G04 #@! TO.C,R2*
G36*
X214545581Y-57426625D02*
X214578343Y-57431485D01*
X214610471Y-57439533D01*
X214641656Y-57450691D01*
X214671596Y-57464852D01*
X214700005Y-57481879D01*
X214726608Y-57501609D01*
X214751149Y-57523851D01*
X214773391Y-57548392D01*
X214793121Y-57574995D01*
X214810148Y-57603404D01*
X214824309Y-57633344D01*
X214835467Y-57664529D01*
X214843515Y-57696657D01*
X214848375Y-57729419D01*
X214850000Y-57762500D01*
X214850000Y-58437500D01*
X214848375Y-58470581D01*
X214843515Y-58503343D01*
X214835467Y-58535471D01*
X214824309Y-58566656D01*
X214810148Y-58596596D01*
X214793121Y-58625005D01*
X214773391Y-58651608D01*
X214751149Y-58676149D01*
X214726608Y-58698391D01*
X214700005Y-58718121D01*
X214671596Y-58735148D01*
X214641656Y-58749309D01*
X214610471Y-58760467D01*
X214578343Y-58768515D01*
X214545581Y-58773375D01*
X214512500Y-58775000D01*
X213737500Y-58775000D01*
X213704419Y-58773375D01*
X213671657Y-58768515D01*
X213639529Y-58760467D01*
X213608344Y-58749309D01*
X213578404Y-58735148D01*
X213549995Y-58718121D01*
X213523392Y-58698391D01*
X213498851Y-58676149D01*
X213476609Y-58651608D01*
X213456879Y-58625005D01*
X213439852Y-58596596D01*
X213425691Y-58566656D01*
X213414533Y-58535471D01*
X213406485Y-58503343D01*
X213401625Y-58470581D01*
X213400000Y-58437500D01*
X213400000Y-57762500D01*
X213401625Y-57729419D01*
X213406485Y-57696657D01*
X213414533Y-57664529D01*
X213425691Y-57633344D01*
X213439852Y-57603404D01*
X213456879Y-57574995D01*
X213476609Y-57548392D01*
X213498851Y-57523851D01*
X213523392Y-57501609D01*
X213549995Y-57481879D01*
X213578404Y-57464852D01*
X213608344Y-57450691D01*
X213639529Y-57439533D01*
X213671657Y-57431485D01*
X213704419Y-57426625D01*
X213737500Y-57425000D01*
X214512500Y-57425000D01*
X214545581Y-57426625D01*
X214545581Y-57426625D01*
G37*
D14*
X214125000Y-58100000D03*
D12*
G36*
X216295581Y-57426625D02*
X216328343Y-57431485D01*
X216360471Y-57439533D01*
X216391656Y-57450691D01*
X216421596Y-57464852D01*
X216450005Y-57481879D01*
X216476608Y-57501609D01*
X216501149Y-57523851D01*
X216523391Y-57548392D01*
X216543121Y-57574995D01*
X216560148Y-57603404D01*
X216574309Y-57633344D01*
X216585467Y-57664529D01*
X216593515Y-57696657D01*
X216598375Y-57729419D01*
X216600000Y-57762500D01*
X216600000Y-58437500D01*
X216598375Y-58470581D01*
X216593515Y-58503343D01*
X216585467Y-58535471D01*
X216574309Y-58566656D01*
X216560148Y-58596596D01*
X216543121Y-58625005D01*
X216523391Y-58651608D01*
X216501149Y-58676149D01*
X216476608Y-58698391D01*
X216450005Y-58718121D01*
X216421596Y-58735148D01*
X216391656Y-58749309D01*
X216360471Y-58760467D01*
X216328343Y-58768515D01*
X216295581Y-58773375D01*
X216262500Y-58775000D01*
X215487500Y-58775000D01*
X215454419Y-58773375D01*
X215421657Y-58768515D01*
X215389529Y-58760467D01*
X215358344Y-58749309D01*
X215328404Y-58735148D01*
X215299995Y-58718121D01*
X215273392Y-58698391D01*
X215248851Y-58676149D01*
X215226609Y-58651608D01*
X215206879Y-58625005D01*
X215189852Y-58596596D01*
X215175691Y-58566656D01*
X215164533Y-58535471D01*
X215156485Y-58503343D01*
X215151625Y-58470581D01*
X215150000Y-58437500D01*
X215150000Y-57762500D01*
X215151625Y-57729419D01*
X215156485Y-57696657D01*
X215164533Y-57664529D01*
X215175691Y-57633344D01*
X215189852Y-57603404D01*
X215206879Y-57574995D01*
X215226609Y-57548392D01*
X215248851Y-57523851D01*
X215273392Y-57501609D01*
X215299995Y-57481879D01*
X215328404Y-57464852D01*
X215358344Y-57450691D01*
X215389529Y-57439533D01*
X215421657Y-57431485D01*
X215454419Y-57426625D01*
X215487500Y-57425000D01*
X216262500Y-57425000D01*
X216295581Y-57426625D01*
X216295581Y-57426625D01*
G37*
D14*
X215875000Y-58100000D03*
G04 #@! TD*
D12*
G04 #@! TO.C,R3*
G36*
X223570581Y-55451625D02*
X223603343Y-55456485D01*
X223635471Y-55464533D01*
X223666656Y-55475691D01*
X223696596Y-55489852D01*
X223725005Y-55506879D01*
X223751608Y-55526609D01*
X223776149Y-55548851D01*
X223798391Y-55573392D01*
X223818121Y-55599995D01*
X223835148Y-55628404D01*
X223849309Y-55658344D01*
X223860467Y-55689529D01*
X223868515Y-55721657D01*
X223873375Y-55754419D01*
X223875000Y-55787500D01*
X223875000Y-56562500D01*
X223873375Y-56595581D01*
X223868515Y-56628343D01*
X223860467Y-56660471D01*
X223849309Y-56691656D01*
X223835148Y-56721596D01*
X223818121Y-56750005D01*
X223798391Y-56776608D01*
X223776149Y-56801149D01*
X223751608Y-56823391D01*
X223725005Y-56843121D01*
X223696596Y-56860148D01*
X223666656Y-56874309D01*
X223635471Y-56885467D01*
X223603343Y-56893515D01*
X223570581Y-56898375D01*
X223537500Y-56900000D01*
X222862500Y-56900000D01*
X222829419Y-56898375D01*
X222796657Y-56893515D01*
X222764529Y-56885467D01*
X222733344Y-56874309D01*
X222703404Y-56860148D01*
X222674995Y-56843121D01*
X222648392Y-56823391D01*
X222623851Y-56801149D01*
X222601609Y-56776608D01*
X222581879Y-56750005D01*
X222564852Y-56721596D01*
X222550691Y-56691656D01*
X222539533Y-56660471D01*
X222531485Y-56628343D01*
X222526625Y-56595581D01*
X222525000Y-56562500D01*
X222525000Y-55787500D01*
X222526625Y-55754419D01*
X222531485Y-55721657D01*
X222539533Y-55689529D01*
X222550691Y-55658344D01*
X222564852Y-55628404D01*
X222581879Y-55599995D01*
X222601609Y-55573392D01*
X222623851Y-55548851D01*
X222648392Y-55526609D01*
X222674995Y-55506879D01*
X222703404Y-55489852D01*
X222733344Y-55475691D01*
X222764529Y-55464533D01*
X222796657Y-55456485D01*
X222829419Y-55451625D01*
X222862500Y-55450000D01*
X223537500Y-55450000D01*
X223570581Y-55451625D01*
X223570581Y-55451625D01*
G37*
D14*
X223200000Y-56175000D03*
D12*
G36*
X223570581Y-53701625D02*
X223603343Y-53706485D01*
X223635471Y-53714533D01*
X223666656Y-53725691D01*
X223696596Y-53739852D01*
X223725005Y-53756879D01*
X223751608Y-53776609D01*
X223776149Y-53798851D01*
X223798391Y-53823392D01*
X223818121Y-53849995D01*
X223835148Y-53878404D01*
X223849309Y-53908344D01*
X223860467Y-53939529D01*
X223868515Y-53971657D01*
X223873375Y-54004419D01*
X223875000Y-54037500D01*
X223875000Y-54812500D01*
X223873375Y-54845581D01*
X223868515Y-54878343D01*
X223860467Y-54910471D01*
X223849309Y-54941656D01*
X223835148Y-54971596D01*
X223818121Y-55000005D01*
X223798391Y-55026608D01*
X223776149Y-55051149D01*
X223751608Y-55073391D01*
X223725005Y-55093121D01*
X223696596Y-55110148D01*
X223666656Y-55124309D01*
X223635471Y-55135467D01*
X223603343Y-55143515D01*
X223570581Y-55148375D01*
X223537500Y-55150000D01*
X222862500Y-55150000D01*
X222829419Y-55148375D01*
X222796657Y-55143515D01*
X222764529Y-55135467D01*
X222733344Y-55124309D01*
X222703404Y-55110148D01*
X222674995Y-55093121D01*
X222648392Y-55073391D01*
X222623851Y-55051149D01*
X222601609Y-55026608D01*
X222581879Y-55000005D01*
X222564852Y-54971596D01*
X222550691Y-54941656D01*
X222539533Y-54910471D01*
X222531485Y-54878343D01*
X222526625Y-54845581D01*
X222525000Y-54812500D01*
X222525000Y-54037500D01*
X222526625Y-54004419D01*
X222531485Y-53971657D01*
X222539533Y-53939529D01*
X222550691Y-53908344D01*
X222564852Y-53878404D01*
X222581879Y-53849995D01*
X222601609Y-53823392D01*
X222623851Y-53798851D01*
X222648392Y-53776609D01*
X222674995Y-53756879D01*
X222703404Y-53739852D01*
X222733344Y-53725691D01*
X222764529Y-53714533D01*
X222796657Y-53706485D01*
X222829419Y-53701625D01*
X222862500Y-53700000D01*
X223537500Y-53700000D01*
X223570581Y-53701625D01*
X223570581Y-53701625D01*
G37*
D14*
X223200000Y-54425000D03*
G04 #@! TD*
D12*
G04 #@! TO.C,R4*
G36*
X221295581Y-59026625D02*
X221328343Y-59031485D01*
X221360471Y-59039533D01*
X221391656Y-59050691D01*
X221421596Y-59064852D01*
X221450005Y-59081879D01*
X221476608Y-59101609D01*
X221501149Y-59123851D01*
X221523391Y-59148392D01*
X221543121Y-59174995D01*
X221560148Y-59203404D01*
X221574309Y-59233344D01*
X221585467Y-59264529D01*
X221593515Y-59296657D01*
X221598375Y-59329419D01*
X221600000Y-59362500D01*
X221600000Y-60037500D01*
X221598375Y-60070581D01*
X221593515Y-60103343D01*
X221585467Y-60135471D01*
X221574309Y-60166656D01*
X221560148Y-60196596D01*
X221543121Y-60225005D01*
X221523391Y-60251608D01*
X221501149Y-60276149D01*
X221476608Y-60298391D01*
X221450005Y-60318121D01*
X221421596Y-60335148D01*
X221391656Y-60349309D01*
X221360471Y-60360467D01*
X221328343Y-60368515D01*
X221295581Y-60373375D01*
X221262500Y-60375000D01*
X220487500Y-60375000D01*
X220454419Y-60373375D01*
X220421657Y-60368515D01*
X220389529Y-60360467D01*
X220358344Y-60349309D01*
X220328404Y-60335148D01*
X220299995Y-60318121D01*
X220273392Y-60298391D01*
X220248851Y-60276149D01*
X220226609Y-60251608D01*
X220206879Y-60225005D01*
X220189852Y-60196596D01*
X220175691Y-60166656D01*
X220164533Y-60135471D01*
X220156485Y-60103343D01*
X220151625Y-60070581D01*
X220150000Y-60037500D01*
X220150000Y-59362500D01*
X220151625Y-59329419D01*
X220156485Y-59296657D01*
X220164533Y-59264529D01*
X220175691Y-59233344D01*
X220189852Y-59203404D01*
X220206879Y-59174995D01*
X220226609Y-59148392D01*
X220248851Y-59123851D01*
X220273392Y-59101609D01*
X220299995Y-59081879D01*
X220328404Y-59064852D01*
X220358344Y-59050691D01*
X220389529Y-59039533D01*
X220421657Y-59031485D01*
X220454419Y-59026625D01*
X220487500Y-59025000D01*
X221262500Y-59025000D01*
X221295581Y-59026625D01*
X221295581Y-59026625D01*
G37*
D14*
X220875000Y-59700000D03*
D12*
G36*
X219545581Y-59026625D02*
X219578343Y-59031485D01*
X219610471Y-59039533D01*
X219641656Y-59050691D01*
X219671596Y-59064852D01*
X219700005Y-59081879D01*
X219726608Y-59101609D01*
X219751149Y-59123851D01*
X219773391Y-59148392D01*
X219793121Y-59174995D01*
X219810148Y-59203404D01*
X219824309Y-59233344D01*
X219835467Y-59264529D01*
X219843515Y-59296657D01*
X219848375Y-59329419D01*
X219850000Y-59362500D01*
X219850000Y-60037500D01*
X219848375Y-60070581D01*
X219843515Y-60103343D01*
X219835467Y-60135471D01*
X219824309Y-60166656D01*
X219810148Y-60196596D01*
X219793121Y-60225005D01*
X219773391Y-60251608D01*
X219751149Y-60276149D01*
X219726608Y-60298391D01*
X219700005Y-60318121D01*
X219671596Y-60335148D01*
X219641656Y-60349309D01*
X219610471Y-60360467D01*
X219578343Y-60368515D01*
X219545581Y-60373375D01*
X219512500Y-60375000D01*
X218737500Y-60375000D01*
X218704419Y-60373375D01*
X218671657Y-60368515D01*
X218639529Y-60360467D01*
X218608344Y-60349309D01*
X218578404Y-60335148D01*
X218549995Y-60318121D01*
X218523392Y-60298391D01*
X218498851Y-60276149D01*
X218476609Y-60251608D01*
X218456879Y-60225005D01*
X218439852Y-60196596D01*
X218425691Y-60166656D01*
X218414533Y-60135471D01*
X218406485Y-60103343D01*
X218401625Y-60070581D01*
X218400000Y-60037500D01*
X218400000Y-59362500D01*
X218401625Y-59329419D01*
X218406485Y-59296657D01*
X218414533Y-59264529D01*
X218425691Y-59233344D01*
X218439852Y-59203404D01*
X218456879Y-59174995D01*
X218476609Y-59148392D01*
X218498851Y-59123851D01*
X218523392Y-59101609D01*
X218549995Y-59081879D01*
X218578404Y-59064852D01*
X218608344Y-59050691D01*
X218639529Y-59039533D01*
X218671657Y-59031485D01*
X218704419Y-59026625D01*
X218737500Y-59025000D01*
X219512500Y-59025000D01*
X219545581Y-59026625D01*
X219545581Y-59026625D01*
G37*
D14*
X219125000Y-59700000D03*
G04 #@! TD*
D12*
G04 #@! TO.C,R5*
G36*
X222870581Y-58901625D02*
X222903343Y-58906485D01*
X222935471Y-58914533D01*
X222966656Y-58925691D01*
X222996596Y-58939852D01*
X223025005Y-58956879D01*
X223051608Y-58976609D01*
X223076149Y-58998851D01*
X223098391Y-59023392D01*
X223118121Y-59049995D01*
X223135148Y-59078404D01*
X223149309Y-59108344D01*
X223160467Y-59139529D01*
X223168515Y-59171657D01*
X223173375Y-59204419D01*
X223175000Y-59237500D01*
X223175000Y-60012500D01*
X223173375Y-60045581D01*
X223168515Y-60078343D01*
X223160467Y-60110471D01*
X223149309Y-60141656D01*
X223135148Y-60171596D01*
X223118121Y-60200005D01*
X223098391Y-60226608D01*
X223076149Y-60251149D01*
X223051608Y-60273391D01*
X223025005Y-60293121D01*
X222996596Y-60310148D01*
X222966656Y-60324309D01*
X222935471Y-60335467D01*
X222903343Y-60343515D01*
X222870581Y-60348375D01*
X222837500Y-60350000D01*
X222162500Y-60350000D01*
X222129419Y-60348375D01*
X222096657Y-60343515D01*
X222064529Y-60335467D01*
X222033344Y-60324309D01*
X222003404Y-60310148D01*
X221974995Y-60293121D01*
X221948392Y-60273391D01*
X221923851Y-60251149D01*
X221901609Y-60226608D01*
X221881879Y-60200005D01*
X221864852Y-60171596D01*
X221850691Y-60141656D01*
X221839533Y-60110471D01*
X221831485Y-60078343D01*
X221826625Y-60045581D01*
X221825000Y-60012500D01*
X221825000Y-59237500D01*
X221826625Y-59204419D01*
X221831485Y-59171657D01*
X221839533Y-59139529D01*
X221850691Y-59108344D01*
X221864852Y-59078404D01*
X221881879Y-59049995D01*
X221901609Y-59023392D01*
X221923851Y-58998851D01*
X221948392Y-58976609D01*
X221974995Y-58956879D01*
X222003404Y-58939852D01*
X222033344Y-58925691D01*
X222064529Y-58914533D01*
X222096657Y-58906485D01*
X222129419Y-58901625D01*
X222162500Y-58900000D01*
X222837500Y-58900000D01*
X222870581Y-58901625D01*
X222870581Y-58901625D01*
G37*
D14*
X222500000Y-59625000D03*
D12*
G36*
X222870581Y-60651625D02*
X222903343Y-60656485D01*
X222935471Y-60664533D01*
X222966656Y-60675691D01*
X222996596Y-60689852D01*
X223025005Y-60706879D01*
X223051608Y-60726609D01*
X223076149Y-60748851D01*
X223098391Y-60773392D01*
X223118121Y-60799995D01*
X223135148Y-60828404D01*
X223149309Y-60858344D01*
X223160467Y-60889529D01*
X223168515Y-60921657D01*
X223173375Y-60954419D01*
X223175000Y-60987500D01*
X223175000Y-61762500D01*
X223173375Y-61795581D01*
X223168515Y-61828343D01*
X223160467Y-61860471D01*
X223149309Y-61891656D01*
X223135148Y-61921596D01*
X223118121Y-61950005D01*
X223098391Y-61976608D01*
X223076149Y-62001149D01*
X223051608Y-62023391D01*
X223025005Y-62043121D01*
X222996596Y-62060148D01*
X222966656Y-62074309D01*
X222935471Y-62085467D01*
X222903343Y-62093515D01*
X222870581Y-62098375D01*
X222837500Y-62100000D01*
X222162500Y-62100000D01*
X222129419Y-62098375D01*
X222096657Y-62093515D01*
X222064529Y-62085467D01*
X222033344Y-62074309D01*
X222003404Y-62060148D01*
X221974995Y-62043121D01*
X221948392Y-62023391D01*
X221923851Y-62001149D01*
X221901609Y-61976608D01*
X221881879Y-61950005D01*
X221864852Y-61921596D01*
X221850691Y-61891656D01*
X221839533Y-61860471D01*
X221831485Y-61828343D01*
X221826625Y-61795581D01*
X221825000Y-61762500D01*
X221825000Y-60987500D01*
X221826625Y-60954419D01*
X221831485Y-60921657D01*
X221839533Y-60889529D01*
X221850691Y-60858344D01*
X221864852Y-60828404D01*
X221881879Y-60799995D01*
X221901609Y-60773392D01*
X221923851Y-60748851D01*
X221948392Y-60726609D01*
X221974995Y-60706879D01*
X222003404Y-60689852D01*
X222033344Y-60675691D01*
X222064529Y-60664533D01*
X222096657Y-60656485D01*
X222129419Y-60651625D01*
X222162500Y-60650000D01*
X222837500Y-60650000D01*
X222870581Y-60651625D01*
X222870581Y-60651625D01*
G37*
D14*
X222500000Y-61375000D03*
G04 #@! TD*
D12*
G04 #@! TO.C,R6*
G36*
X237186207Y-56376542D02*
X237217287Y-56381152D01*
X237247766Y-56388787D01*
X237277350Y-56399372D01*
X237305754Y-56412806D01*
X237332704Y-56428959D01*
X237357942Y-56447677D01*
X237381223Y-56468777D01*
X237402323Y-56492058D01*
X237421041Y-56517296D01*
X237437194Y-56544246D01*
X237450628Y-56572650D01*
X237461213Y-56602234D01*
X237468848Y-56632713D01*
X237473458Y-56663793D01*
X237475000Y-56695176D01*
X237475000Y-57879824D01*
X237473458Y-57911207D01*
X237468848Y-57942287D01*
X237461213Y-57972766D01*
X237450628Y-58002350D01*
X237437194Y-58030754D01*
X237421041Y-58057704D01*
X237402323Y-58082942D01*
X237381223Y-58106223D01*
X237357942Y-58127323D01*
X237332704Y-58146041D01*
X237305754Y-58162194D01*
X237277350Y-58175628D01*
X237247766Y-58186213D01*
X237217287Y-58193848D01*
X237186207Y-58198458D01*
X237154824Y-58200000D01*
X235645176Y-58200000D01*
X235613793Y-58198458D01*
X235582713Y-58193848D01*
X235552234Y-58186213D01*
X235522650Y-58175628D01*
X235494246Y-58162194D01*
X235467296Y-58146041D01*
X235442058Y-58127323D01*
X235418777Y-58106223D01*
X235397677Y-58082942D01*
X235378959Y-58057704D01*
X235362806Y-58030754D01*
X235349372Y-58002350D01*
X235338787Y-57972766D01*
X235331152Y-57942287D01*
X235326542Y-57911207D01*
X235325000Y-57879824D01*
X235325000Y-56695176D01*
X235326542Y-56663793D01*
X235331152Y-56632713D01*
X235338787Y-56602234D01*
X235349372Y-56572650D01*
X235362806Y-56544246D01*
X235378959Y-56517296D01*
X235397677Y-56492058D01*
X235418777Y-56468777D01*
X235442058Y-56447677D01*
X235467296Y-56428959D01*
X235494246Y-56412806D01*
X235522650Y-56399372D01*
X235552234Y-56388787D01*
X235582713Y-56381152D01*
X235613793Y-56376542D01*
X235645176Y-56375000D01*
X237154824Y-56375000D01*
X237186207Y-56376542D01*
X237186207Y-56376542D01*
G37*
D13*
X236400000Y-57287500D03*
D12*
G36*
X237186207Y-53401542D02*
X237217287Y-53406152D01*
X237247766Y-53413787D01*
X237277350Y-53424372D01*
X237305754Y-53437806D01*
X237332704Y-53453959D01*
X237357942Y-53472677D01*
X237381223Y-53493777D01*
X237402323Y-53517058D01*
X237421041Y-53542296D01*
X237437194Y-53569246D01*
X237450628Y-53597650D01*
X237461213Y-53627234D01*
X237468848Y-53657713D01*
X237473458Y-53688793D01*
X237475000Y-53720176D01*
X237475000Y-54904824D01*
X237473458Y-54936207D01*
X237468848Y-54967287D01*
X237461213Y-54997766D01*
X237450628Y-55027350D01*
X237437194Y-55055754D01*
X237421041Y-55082704D01*
X237402323Y-55107942D01*
X237381223Y-55131223D01*
X237357942Y-55152323D01*
X237332704Y-55171041D01*
X237305754Y-55187194D01*
X237277350Y-55200628D01*
X237247766Y-55211213D01*
X237217287Y-55218848D01*
X237186207Y-55223458D01*
X237154824Y-55225000D01*
X235645176Y-55225000D01*
X235613793Y-55223458D01*
X235582713Y-55218848D01*
X235552234Y-55211213D01*
X235522650Y-55200628D01*
X235494246Y-55187194D01*
X235467296Y-55171041D01*
X235442058Y-55152323D01*
X235418777Y-55131223D01*
X235397677Y-55107942D01*
X235378959Y-55082704D01*
X235362806Y-55055754D01*
X235349372Y-55027350D01*
X235338787Y-54997766D01*
X235331152Y-54967287D01*
X235326542Y-54936207D01*
X235325000Y-54904824D01*
X235325000Y-53720176D01*
X235326542Y-53688793D01*
X235331152Y-53657713D01*
X235338787Y-53627234D01*
X235349372Y-53597650D01*
X235362806Y-53569246D01*
X235378959Y-53542296D01*
X235397677Y-53517058D01*
X235418777Y-53493777D01*
X235442058Y-53472677D01*
X235467296Y-53453959D01*
X235494246Y-53437806D01*
X235522650Y-53424372D01*
X235552234Y-53413787D01*
X235582713Y-53406152D01*
X235613793Y-53401542D01*
X235645176Y-53400000D01*
X237154824Y-53400000D01*
X237186207Y-53401542D01*
X237186207Y-53401542D01*
G37*
D13*
X236400000Y-54312500D03*
G04 #@! TD*
D19*
G04 #@! TO.C,U1*
X216295000Y-55300000D03*
X217565000Y-55300000D03*
X218835000Y-55300000D03*
X220105000Y-55300000D03*
X220105000Y-49900000D03*
X218835000Y-49900000D03*
X217565000Y-49900000D03*
X216295000Y-49900000D03*
G04 #@! TD*
D16*
G04 #@! TO.C,J3*
X239500000Y-47000000D03*
D15*
X242040000Y-47000000D03*
X244580000Y-47000000D03*
G04 #@! TD*
D20*
G04 #@! TO.C,REF\002A\002A*
X243500000Y-60000000D03*
G04 #@! TD*
M02*
