M48
;DRILL file {KiCad (5.0.1-dev-70-gb7b125d83)} date 10/12/18 17:49:16
;FORMAT={2:4/ absolute / inch / suppress leading zeros}
FMAT,2
INCH,TZ
T1C0.0157
T2C0.0394
%
G90
G05
M72
T1
X52047Y-23346
X52087Y-20630
X52972Y-18307
X54980Y-19232
X56181Y-19213
X56181Y-19665
X56693Y-17835
X56909Y-20354
X57028Y-18130
X57677Y-18150
X58189Y-18150
X58642Y-22067
X58661Y-17874
X59016Y-23386
X59055Y-18228
X59606Y-22087
X60197Y-20610
X60236Y-19902
X60276Y-18307
X61339Y-18189
X62402Y-19685
X62520Y-17165
X62598Y-22638
X62598Y-23425
T2
X57287Y-23169
X58287Y-23169
X60575Y-23169
X61575Y-23169
X52224Y-16732
X52224Y-17732
X52224Y-18732
X52224Y-19732
T0
M30
