G04 #@! TF.GenerationSoftware,KiCad,Pcbnew,(5.0.1-dev-70-gb7b125d83)*
G04 #@! TF.CreationDate,2018-10-13T00:28:44+02:00*
G04 #@! TF.ProjectId,pwm-fan-control,70776D2D66616E2D636F6E74726F6C2E,rev?*
G04 #@! TF.SameCoordinates,Original*
G04 #@! TF.FileFunction,Copper,L2,Bot,Signal*
G04 #@! TF.FilePolarity,Positive*
%FSLAX46Y46*%
G04 Gerber Fmt 4.6, Leading zero omitted, Abs format (unit mm)*
G04 Created by KiCad (PCBNEW (5.0.1-dev-70-gb7b125d83)) date 10/13/18 00:28:44*
%MOMM*%
%LPD*%
G01*
G04 APERTURE LIST*
G04 #@! TA.AperFunction,ComponentPad*
%ADD10O,1.730000X2.030000*%
G04 #@! TD*
G04 #@! TA.AperFunction,ComponentPad*
%ADD11R,1.730000X2.030000*%
G04 #@! TD*
G04 #@! TA.AperFunction,ComponentPad*
%ADD12R,1.700000X1.700000*%
G04 #@! TD*
G04 #@! TA.AperFunction,ComponentPad*
%ADD13O,1.700000X1.700000*%
G04 #@! TD*
G04 #@! TA.AperFunction,ViaPad*
%ADD14C,0.800000*%
G04 #@! TD*
G04 #@! TA.AperFunction,Conductor*
%ADD15C,1.400000*%
G04 #@! TD*
G04 #@! TA.AperFunction,Conductor*
%ADD16C,0.200000*%
G04 #@! TD*
G04 #@! TA.AperFunction,Conductor*
%ADD17C,0.400000*%
G04 #@! TD*
G04 #@! TA.AperFunction,Conductor*
%ADD18C,1.600000*%
G04 #@! TD*
G04 #@! TA.AperFunction,Conductor*
%ADD19C,0.254000*%
G04 #@! TD*
G04 APERTURE END LIST*
D10*
G04 #@! TO.P,J1,3*
G04 #@! TO.N,N/C*
X244580000Y-54000000D03*
G04 #@! TO.P,J1,2*
G04 #@! TO.N,VCCFan*
X242040000Y-54000000D03*
D11*
G04 #@! TO.P,J1,1*
G04 #@! TO.N,Net-(J1-Pad1)*
X239500000Y-54000000D03*
G04 #@! TD*
D12*
G04 #@! TO.P,J2,1*
G04 #@! TO.N,GND*
X209700000Y-52500000D03*
D13*
G04 #@! TO.P,J2,2*
G04 #@! TO.N,/~PWM1*
X209700000Y-55040000D03*
G04 #@! TO.P,J2,3*
G04 #@! TO.N,/~PWM0*
X209700000Y-57580000D03*
G04 #@! TO.P,J2,4*
G04 #@! TO.N,VCCFan*
X209700000Y-60120000D03*
G04 #@! TD*
D11*
G04 #@! TO.P,J3,1*
G04 #@! TO.N,Net-(J3-Pad1)*
X239500000Y-47000000D03*
D10*
G04 #@! TO.P,J3,2*
G04 #@! TO.N,VCCFan*
X242040000Y-47000000D03*
G04 #@! TO.P,J3,3*
G04 #@! TO.N,N/C*
X244580000Y-47000000D03*
G04 #@! TD*
D14*
G04 #@! TO.N,GND*
X214100000Y-52700000D03*
X220100000Y-53700000D03*
G04 #@! TO.N,VCCFan*
X212575000Y-56100000D03*
G04 #@! TO.N,Net-(Q1-Pad2)*
X230900000Y-55900000D03*
X230900000Y-54900000D03*
X231900000Y-55900000D03*
X231900000Y-54900000D03*
X230900000Y-56900000D03*
X230900000Y-57900000D03*
X230900000Y-58900000D03*
X231900000Y-56900000D03*
X231900000Y-57900000D03*
X231900000Y-58900000D03*
X229900000Y-55900000D03*
X229900000Y-54900000D03*
X228900000Y-55900000D03*
X228900000Y-54900000D03*
X227900000Y-55900000D03*
X227900000Y-54900000D03*
X229900000Y-57900000D03*
X229900000Y-58900000D03*
X228900000Y-56900000D03*
X228900000Y-57900000D03*
X228900000Y-58900000D03*
X227900000Y-57900000D03*
X227900000Y-58900000D03*
X227900000Y-56900000D03*
G04 #@! TO.N,Net-(Q2-Pad2)*
X228900000Y-46200000D03*
X229900000Y-47200000D03*
X228900000Y-47200000D03*
X229900000Y-46200000D03*
X227900000Y-48200000D03*
X227900000Y-47200000D03*
X227900000Y-46200000D03*
X230900000Y-47200000D03*
X230900000Y-46200000D03*
X231900000Y-47200000D03*
X231900000Y-46200000D03*
X230900000Y-48200000D03*
X231900000Y-50200000D03*
X230900000Y-49200000D03*
X230900000Y-50200000D03*
X231900000Y-48200000D03*
X231900000Y-49200000D03*
X227900000Y-49200000D03*
X227900000Y-50200000D03*
X229900000Y-49200000D03*
X228900000Y-48200000D03*
X229900000Y-50200000D03*
X228900000Y-49200000D03*
X228900000Y-50200000D03*
X229900000Y-48200000D03*
G04 #@! TO.N,GND*
X223100000Y-45600000D03*
X222000000Y-58300000D03*
X224800000Y-52500000D03*
X223900000Y-52500000D03*
X225700000Y-52500000D03*
X240200000Y-52000000D03*
X238900000Y-52000000D03*
X240200000Y-49800000D03*
X238900000Y-49800000D03*
X243900000Y-49800000D03*
X243900000Y-52000000D03*
X245500000Y-49800000D03*
X245500000Y-52000000D03*
X243300000Y-45100000D03*
X241100000Y-45100000D03*
X245500000Y-56800000D03*
X243900000Y-56800000D03*
X212300000Y-48600000D03*
X211700000Y-58900000D03*
X211500000Y-56500000D03*
X217200000Y-57600000D03*
G04 #@! TO.N,Net-(Q1-Pad2)*
X229900000Y-56900000D03*
G04 #@! TD*
D15*
G04 #@! TO.N,GND*
X221700000Y-52500000D02*
X220100000Y-52500000D01*
X220100000Y-52500000D02*
X214600000Y-52500000D01*
X214600000Y-52500000D02*
X209700000Y-52500000D01*
D16*
X221700000Y-56600000D02*
X221700000Y-56200000D01*
X221700000Y-56200000D02*
X221700000Y-52500000D01*
D17*
X220100000Y-52500000D02*
X220100000Y-53700000D01*
D18*
G04 #@! TO.N,VCCFan*
X210980000Y-61400000D02*
X209700000Y-60120000D01*
D16*
X212575000Y-61325000D02*
X212575000Y-55725000D01*
X212500000Y-61400000D02*
X212575000Y-61325000D01*
D18*
X212500000Y-61400000D02*
X210980000Y-61400000D01*
X212500000Y-61400000D02*
X238115000Y-61400000D01*
X242040000Y-54960000D02*
X239000000Y-58000000D01*
X239000000Y-60515000D02*
X238115000Y-61400000D01*
X239000000Y-58000000D02*
X239000000Y-60515000D01*
X242040000Y-54000000D02*
X242040000Y-47000000D01*
X242040000Y-54000000D02*
X242040000Y-54960000D01*
D17*
G04 #@! TO.N,GND*
X223100000Y-52450000D02*
X223050000Y-52500000D01*
X223100000Y-45600000D02*
X223100000Y-52450000D01*
D15*
X221700000Y-52500000D02*
X223050000Y-52500000D01*
D16*
X221700000Y-56600000D02*
X221700000Y-57900000D01*
X221700000Y-57900000D02*
X222000000Y-58200000D01*
D15*
X223050000Y-52500000D02*
X224800000Y-52500000D01*
X225700000Y-52500000D02*
X223050000Y-52500000D01*
G04 #@! TD*
D19*
G04 #@! TO.N,Net-(Q2-Pad2)*
G36*
X237423000Y-51573000D02*
X226521187Y-51573000D01*
X226178752Y-51344192D01*
X225820847Y-51273000D01*
X224127000Y-51273000D01*
X224127000Y-44827000D01*
X237423000Y-44827000D01*
X237423000Y-51573000D01*
X237423000Y-51573000D01*
G37*
X237423000Y-51573000D02*
X226521187Y-51573000D01*
X226178752Y-51344192D01*
X225820847Y-51273000D01*
X224127000Y-51273000D01*
X224127000Y-44827000D01*
X237423000Y-44827000D01*
X237423000Y-51573000D01*
G04 #@! TO.N,GND*
G36*
X245898000Y-62398000D02*
X245110031Y-62398000D01*
X245303183Y-62204848D01*
X245627000Y-61423087D01*
X245627000Y-60576913D01*
X245303183Y-59795152D01*
X244704848Y-59196817D01*
X243923087Y-58873000D01*
X243076913Y-58873000D01*
X242295152Y-59196817D01*
X241696817Y-59795152D01*
X241373000Y-60576913D01*
X241373000Y-61423087D01*
X241696817Y-62204848D01*
X241889969Y-62398000D01*
X239009923Y-62398000D01*
X239071713Y-62356713D01*
X239145748Y-62245912D01*
X239845914Y-61545746D01*
X239956713Y-61471713D01*
X240250006Y-61032770D01*
X240327000Y-60645696D01*
X240327000Y-60645693D01*
X240352996Y-60515001D01*
X240327000Y-60384309D01*
X240327000Y-58549660D01*
X242885915Y-55990746D01*
X242996713Y-55916713D01*
X243290006Y-55477770D01*
X243367000Y-55090696D01*
X243367000Y-55090693D01*
X243392996Y-54960001D01*
X243370070Y-54844744D01*
X243576426Y-55153575D01*
X244036870Y-55461235D01*
X244580000Y-55569270D01*
X245123131Y-55461235D01*
X245583575Y-55153575D01*
X245891235Y-54693130D01*
X245898000Y-54659118D01*
X245898000Y-62398000D01*
X245898000Y-62398000D01*
G37*
X245898000Y-62398000D02*
X245110031Y-62398000D01*
X245303183Y-62204848D01*
X245627000Y-61423087D01*
X245627000Y-60576913D01*
X245303183Y-59795152D01*
X244704848Y-59196817D01*
X243923087Y-58873000D01*
X243076913Y-58873000D01*
X242295152Y-59196817D01*
X241696817Y-59795152D01*
X241373000Y-60576913D01*
X241373000Y-61423087D01*
X241696817Y-62204848D01*
X241889969Y-62398000D01*
X239009923Y-62398000D01*
X239071713Y-62356713D01*
X239145748Y-62245912D01*
X239845914Y-61545746D01*
X239956713Y-61471713D01*
X240250006Y-61032770D01*
X240327000Y-60645696D01*
X240327000Y-60645693D01*
X240352996Y-60515001D01*
X240327000Y-60384309D01*
X240327000Y-58549660D01*
X242885915Y-55990746D01*
X242996713Y-55916713D01*
X243290006Y-55477770D01*
X243367000Y-55090696D01*
X243367000Y-55090693D01*
X243392996Y-54960001D01*
X243370070Y-54844744D01*
X243576426Y-55153575D01*
X244036870Y-55461235D01*
X244580000Y-55569270D01*
X245123131Y-55461235D01*
X245583575Y-55153575D01*
X245891235Y-54693130D01*
X245898000Y-54659118D01*
X245898000Y-62398000D01*
G36*
X223473000Y-44700000D02*
X223473000Y-51700000D01*
X223513115Y-51901674D01*
X223627355Y-52072645D01*
X223798326Y-52186885D01*
X224000000Y-52227000D01*
X237550000Y-52227000D01*
X237751674Y-52186885D01*
X237922645Y-52072645D01*
X238036885Y-51901674D01*
X238077000Y-51700000D01*
X238077000Y-44700000D01*
X238057507Y-44602000D01*
X245898001Y-44602000D01*
X245898001Y-46340884D01*
X245891235Y-46306869D01*
X245583574Y-45846425D01*
X245123130Y-45538765D01*
X244580000Y-45430730D01*
X244036869Y-45538765D01*
X243576425Y-45846426D01*
X243310000Y-46245157D01*
X243043574Y-45846425D01*
X242583130Y-45538765D01*
X242040000Y-45430730D01*
X241496869Y-45538765D01*
X241036425Y-45846426D01*
X240902324Y-46047122D01*
X240902324Y-45985000D01*
X240861423Y-45779375D01*
X240744945Y-45605055D01*
X240570625Y-45488577D01*
X240365000Y-45447676D01*
X238635000Y-45447676D01*
X238429375Y-45488577D01*
X238255055Y-45605055D01*
X238138577Y-45779375D01*
X238097676Y-45985000D01*
X238097676Y-48015000D01*
X238138577Y-48220625D01*
X238255055Y-48394945D01*
X238429375Y-48511423D01*
X238635000Y-48552324D01*
X240365000Y-48552324D01*
X240570625Y-48511423D01*
X240713001Y-48416290D01*
X240713000Y-52583710D01*
X240570625Y-52488577D01*
X240365000Y-52447676D01*
X238635000Y-52447676D01*
X238429375Y-52488577D01*
X238255055Y-52605055D01*
X238138577Y-52779375D01*
X238097676Y-52985000D01*
X238097676Y-55015000D01*
X238138577Y-55220625D01*
X238255055Y-55394945D01*
X238429375Y-55511423D01*
X238635000Y-55552324D01*
X239571016Y-55552324D01*
X238154086Y-56969254D01*
X238077000Y-57020762D01*
X238077000Y-53400000D01*
X238036885Y-53198326D01*
X237922645Y-53027355D01*
X237751674Y-52913115D01*
X237550000Y-52873000D01*
X224000000Y-52873000D01*
X223798326Y-52913115D01*
X223627355Y-53027355D01*
X223513115Y-53198326D01*
X223473000Y-53400000D01*
X223473000Y-60073000D01*
X213202000Y-60073000D01*
X213202000Y-56783976D01*
X213360873Y-56625103D01*
X213502000Y-56284392D01*
X213502000Y-55915608D01*
X213360873Y-55574897D01*
X213100103Y-55314127D01*
X213037116Y-55288037D01*
X213027041Y-55272959D01*
X212819643Y-55134380D01*
X212575000Y-55085717D01*
X212330358Y-55134380D01*
X212122960Y-55272959D01*
X212112886Y-55288036D01*
X212049897Y-55314127D01*
X211789127Y-55574897D01*
X211648000Y-55915608D01*
X211648000Y-56284392D01*
X211789127Y-56625103D01*
X211948001Y-56783977D01*
X211948000Y-60073000D01*
X211529661Y-60073000D01*
X210911978Y-59455317D01*
X210692762Y-59127238D01*
X210277846Y-58850000D01*
X210692762Y-58572762D01*
X210997106Y-58117279D01*
X211103977Y-57580000D01*
X210997106Y-57042721D01*
X210692762Y-56587238D01*
X210277846Y-56310000D01*
X210692762Y-56032762D01*
X210997106Y-55577279D01*
X211103977Y-55040000D01*
X210997106Y-54502721D01*
X210692762Y-54047238D01*
X210599616Y-53985000D01*
X210676309Y-53985000D01*
X210909698Y-53888327D01*
X211088327Y-53709699D01*
X211185000Y-53476310D01*
X211185000Y-52785750D01*
X211026250Y-52627000D01*
X209827000Y-52627000D01*
X209827000Y-52647000D01*
X209573000Y-52647000D01*
X209573000Y-52627000D01*
X209553000Y-52627000D01*
X209553000Y-52373000D01*
X209573000Y-52373000D01*
X209573000Y-51173750D01*
X209827000Y-51173750D01*
X209827000Y-52373000D01*
X211026250Y-52373000D01*
X211185000Y-52214250D01*
X211185000Y-51523690D01*
X211088327Y-51290301D01*
X210909698Y-51111673D01*
X210676309Y-51015000D01*
X209985750Y-51015000D01*
X209827000Y-51173750D01*
X209573000Y-51173750D01*
X209414250Y-51015000D01*
X208723691Y-51015000D01*
X208602000Y-51065406D01*
X208602000Y-44602000D01*
X223492493Y-44602000D01*
X223473000Y-44700000D01*
X223473000Y-44700000D01*
G37*
X223473000Y-44700000D02*
X223473000Y-51700000D01*
X223513115Y-51901674D01*
X223627355Y-52072645D01*
X223798326Y-52186885D01*
X224000000Y-52227000D01*
X237550000Y-52227000D01*
X237751674Y-52186885D01*
X237922645Y-52072645D01*
X238036885Y-51901674D01*
X238077000Y-51700000D01*
X238077000Y-44700000D01*
X238057507Y-44602000D01*
X245898001Y-44602000D01*
X245898001Y-46340884D01*
X245891235Y-46306869D01*
X245583574Y-45846425D01*
X245123130Y-45538765D01*
X244580000Y-45430730D01*
X244036869Y-45538765D01*
X243576425Y-45846426D01*
X243310000Y-46245157D01*
X243043574Y-45846425D01*
X242583130Y-45538765D01*
X242040000Y-45430730D01*
X241496869Y-45538765D01*
X241036425Y-45846426D01*
X240902324Y-46047122D01*
X240902324Y-45985000D01*
X240861423Y-45779375D01*
X240744945Y-45605055D01*
X240570625Y-45488577D01*
X240365000Y-45447676D01*
X238635000Y-45447676D01*
X238429375Y-45488577D01*
X238255055Y-45605055D01*
X238138577Y-45779375D01*
X238097676Y-45985000D01*
X238097676Y-48015000D01*
X238138577Y-48220625D01*
X238255055Y-48394945D01*
X238429375Y-48511423D01*
X238635000Y-48552324D01*
X240365000Y-48552324D01*
X240570625Y-48511423D01*
X240713001Y-48416290D01*
X240713000Y-52583710D01*
X240570625Y-52488577D01*
X240365000Y-52447676D01*
X238635000Y-52447676D01*
X238429375Y-52488577D01*
X238255055Y-52605055D01*
X238138577Y-52779375D01*
X238097676Y-52985000D01*
X238097676Y-55015000D01*
X238138577Y-55220625D01*
X238255055Y-55394945D01*
X238429375Y-55511423D01*
X238635000Y-55552324D01*
X239571016Y-55552324D01*
X238154086Y-56969254D01*
X238077000Y-57020762D01*
X238077000Y-53400000D01*
X238036885Y-53198326D01*
X237922645Y-53027355D01*
X237751674Y-52913115D01*
X237550000Y-52873000D01*
X224000000Y-52873000D01*
X223798326Y-52913115D01*
X223627355Y-53027355D01*
X223513115Y-53198326D01*
X223473000Y-53400000D01*
X223473000Y-60073000D01*
X213202000Y-60073000D01*
X213202000Y-56783976D01*
X213360873Y-56625103D01*
X213502000Y-56284392D01*
X213502000Y-55915608D01*
X213360873Y-55574897D01*
X213100103Y-55314127D01*
X213037116Y-55288037D01*
X213027041Y-55272959D01*
X212819643Y-55134380D01*
X212575000Y-55085717D01*
X212330358Y-55134380D01*
X212122960Y-55272959D01*
X212112886Y-55288036D01*
X212049897Y-55314127D01*
X211789127Y-55574897D01*
X211648000Y-55915608D01*
X211648000Y-56284392D01*
X211789127Y-56625103D01*
X211948001Y-56783977D01*
X211948000Y-60073000D01*
X211529661Y-60073000D01*
X210911978Y-59455317D01*
X210692762Y-59127238D01*
X210277846Y-58850000D01*
X210692762Y-58572762D01*
X210997106Y-58117279D01*
X211103977Y-57580000D01*
X210997106Y-57042721D01*
X210692762Y-56587238D01*
X210277846Y-56310000D01*
X210692762Y-56032762D01*
X210997106Y-55577279D01*
X211103977Y-55040000D01*
X210997106Y-54502721D01*
X210692762Y-54047238D01*
X210599616Y-53985000D01*
X210676309Y-53985000D01*
X210909698Y-53888327D01*
X211088327Y-53709699D01*
X211185000Y-53476310D01*
X211185000Y-52785750D01*
X211026250Y-52627000D01*
X209827000Y-52627000D01*
X209827000Y-52647000D01*
X209573000Y-52647000D01*
X209573000Y-52627000D01*
X209553000Y-52627000D01*
X209553000Y-52373000D01*
X209573000Y-52373000D01*
X209573000Y-51173750D01*
X209827000Y-51173750D01*
X209827000Y-52373000D01*
X211026250Y-52373000D01*
X211185000Y-52214250D01*
X211185000Y-51523690D01*
X211088327Y-51290301D01*
X210909698Y-51111673D01*
X210676309Y-51015000D01*
X209985750Y-51015000D01*
X209827000Y-51173750D01*
X209573000Y-51173750D01*
X209414250Y-51015000D01*
X208723691Y-51015000D01*
X208602000Y-51065406D01*
X208602000Y-44602000D01*
X223492493Y-44602000D01*
X223473000Y-44700000D01*
G36*
X245898001Y-53340882D02*
X245891235Y-53306869D01*
X245583574Y-52846425D01*
X245123130Y-52538765D01*
X244580000Y-52430730D01*
X244036869Y-52538765D01*
X243576425Y-52846426D01*
X243367000Y-53159851D01*
X243367000Y-47840149D01*
X243576426Y-48153575D01*
X244036870Y-48461235D01*
X244580000Y-48569270D01*
X245123131Y-48461235D01*
X245583575Y-48153575D01*
X245891235Y-47693130D01*
X245898001Y-47659116D01*
X245898001Y-53340882D01*
X245898001Y-53340882D01*
G37*
X245898001Y-53340882D02*
X245891235Y-53306869D01*
X245583574Y-52846425D01*
X245123130Y-52538765D01*
X244580000Y-52430730D01*
X244036869Y-52538765D01*
X243576425Y-52846426D01*
X243367000Y-53159851D01*
X243367000Y-47840149D01*
X243576426Y-48153575D01*
X244036870Y-48461235D01*
X244580000Y-48569270D01*
X245123131Y-48461235D01*
X245583575Y-48153575D01*
X245891235Y-47693130D01*
X245898001Y-47659116D01*
X245898001Y-53340882D01*
G04 #@! TO.N,Net-(Q1-Pad2)*
G36*
X237423000Y-60073000D02*
X224127000Y-60073000D01*
X224127000Y-53727000D01*
X225820847Y-53727000D01*
X226178752Y-53655808D01*
X226371526Y-53527000D01*
X237423000Y-53527000D01*
X237423000Y-60073000D01*
X237423000Y-60073000D01*
G37*
X237423000Y-60073000D02*
X224127000Y-60073000D01*
X224127000Y-53727000D01*
X225820847Y-53727000D01*
X226178752Y-53655808D01*
X226371526Y-53527000D01*
X237423000Y-53527000D01*
X237423000Y-60073000D01*
G04 #@! TD*
M02*
