G04 #@! TF.GenerationSoftware,KiCad,Pcbnew,(5.0.1-dev-70-gb7b125d83)*
G04 #@! TF.CreationDate,2018-10-12T17:49:15+02:00*
G04 #@! TF.ProjectId,pwm-fan-control,70776D2D66616E2D636F6E74726F6C2E,rev?*
G04 #@! TF.SameCoordinates,Original*
G04 #@! TF.FileFunction,Legend,Bot*
G04 #@! TF.FilePolarity,Positive*
%FSLAX46Y46*%
G04 Gerber Fmt 4.6, Leading zero omitted, Abs format (unit mm)*
G04 Created by KiCad (PCBNEW (5.0.1-dev-70-gb7b125d83)) date 10/12/18 17:49:15*
%MOMM*%
%LPD*%
G01*
G04 APERTURE LIST*
%ADD10C,0.300000*%
%ADD11C,0.250000*%
G04 APERTURE END LIST*
D10*
X148571428Y-54507142D02*
X147428571Y-54507142D01*
X148000000Y-55078571D02*
X148000000Y-53935714D01*
X156971428Y-54507142D02*
X155828571Y-54507142D01*
X156400000Y-55078571D02*
X156400000Y-53935714D01*
X154371428Y-54507142D02*
X153228571Y-54507142D01*
X146071428Y-54507142D02*
X144928571Y-54507142D01*
X156928571Y-56092857D02*
X157428571Y-56092857D01*
X157428571Y-56878571D02*
X157428571Y-55378571D01*
X156714285Y-55378571D01*
X156214285Y-56450000D02*
X155500000Y-56450000D01*
X156357142Y-56878571D02*
X155857142Y-55378571D01*
X155357142Y-56878571D01*
X154857142Y-56878571D02*
X154857142Y-55378571D01*
X154000000Y-56878571D01*
X154000000Y-55378571D01*
X153000000Y-55378571D02*
X152857142Y-55378571D01*
X152714285Y-55450000D01*
X152642857Y-55521428D01*
X152571428Y-55664285D01*
X152500000Y-55950000D01*
X152500000Y-56307142D01*
X152571428Y-56592857D01*
X152642857Y-56735714D01*
X152714285Y-56807142D01*
X152857142Y-56878571D01*
X153000000Y-56878571D01*
X153142857Y-56807142D01*
X153214285Y-56735714D01*
X153285714Y-56592857D01*
X153357142Y-56307142D01*
X153357142Y-55950000D01*
X153285714Y-55664285D01*
X153214285Y-55521428D01*
X153142857Y-55450000D01*
X153000000Y-55378571D01*
X148528571Y-56092857D02*
X149028571Y-56092857D01*
X149028571Y-56878571D02*
X149028571Y-55378571D01*
X148314285Y-55378571D01*
X147814285Y-56450000D02*
X147100000Y-56450000D01*
X147957142Y-56878571D02*
X147457142Y-55378571D01*
X146957142Y-56878571D01*
X146457142Y-56878571D02*
X146457142Y-55378571D01*
X145600000Y-56878571D01*
X145600000Y-55378571D01*
X144100000Y-56878571D02*
X144957142Y-56878571D01*
X144528571Y-56878571D02*
X144528571Y-55378571D01*
X144671428Y-55592857D01*
X144814285Y-55735714D01*
X144957142Y-55807142D01*
X142359285Y-49328571D02*
X141859285Y-50828571D01*
X141359285Y-49328571D01*
X140002142Y-50685714D02*
X140073571Y-50757142D01*
X140287857Y-50828571D01*
X140430714Y-50828571D01*
X140645000Y-50757142D01*
X140787857Y-50614285D01*
X140859285Y-50471428D01*
X140930714Y-50185714D01*
X140930714Y-49971428D01*
X140859285Y-49685714D01*
X140787857Y-49542857D01*
X140645000Y-49400000D01*
X140430714Y-49328571D01*
X140287857Y-49328571D01*
X140073571Y-49400000D01*
X140002142Y-49471428D01*
X138502142Y-50685714D02*
X138573571Y-50757142D01*
X138787857Y-50828571D01*
X138930714Y-50828571D01*
X139145000Y-50757142D01*
X139287857Y-50614285D01*
X139359285Y-50471428D01*
X139430714Y-50185714D01*
X139430714Y-49971428D01*
X139359285Y-49685714D01*
X139287857Y-49542857D01*
X139145000Y-49400000D01*
X138930714Y-49328571D01*
X138787857Y-49328571D01*
X138573571Y-49400000D01*
X138502142Y-49471428D01*
X138073571Y-49828571D02*
X137502142Y-49828571D01*
X137859285Y-50828571D02*
X137859285Y-49542857D01*
X137787857Y-49400000D01*
X137645000Y-49328571D01*
X137502142Y-49328571D01*
X136359285Y-50828571D02*
X136359285Y-50042857D01*
X136430714Y-49900000D01*
X136573571Y-49828571D01*
X136859285Y-49828571D01*
X137002142Y-49900000D01*
X136359285Y-50757142D02*
X136502142Y-50828571D01*
X136859285Y-50828571D01*
X137002142Y-50757142D01*
X137073571Y-50614285D01*
X137073571Y-50471428D01*
X137002142Y-50328571D01*
X136859285Y-50257142D01*
X136502142Y-50257142D01*
X136359285Y-50185714D01*
X135645000Y-49828571D02*
X135645000Y-50828571D01*
X135645000Y-49971428D02*
X135573571Y-49900000D01*
X135430714Y-49828571D01*
X135216428Y-49828571D01*
X135073571Y-49900000D01*
X135002142Y-50042857D01*
X135002142Y-50828571D01*
D11*
X158385714Y-41292857D02*
X158385714Y-42264285D01*
X158442857Y-42378571D01*
X158500000Y-42435714D01*
X158614285Y-42492857D01*
X158785714Y-42492857D01*
X158900000Y-42435714D01*
X158385714Y-42035714D02*
X158500000Y-42092857D01*
X158728571Y-42092857D01*
X158842857Y-42035714D01*
X158900000Y-41978571D01*
X158957142Y-41864285D01*
X158957142Y-41521428D01*
X158900000Y-41407142D01*
X158842857Y-41350000D01*
X158728571Y-41292857D01*
X158500000Y-41292857D01*
X158385714Y-41350000D01*
X157814285Y-42092857D02*
X157814285Y-41292857D01*
X157814285Y-40892857D02*
X157871428Y-40950000D01*
X157814285Y-41007142D01*
X157757142Y-40950000D01*
X157814285Y-40892857D01*
X157814285Y-41007142D01*
X157414285Y-41292857D02*
X156957142Y-41292857D01*
X157242857Y-40892857D02*
X157242857Y-41921428D01*
X157185714Y-42035714D01*
X157071428Y-42092857D01*
X156957142Y-42092857D01*
X156557142Y-41978571D02*
X156500000Y-42035714D01*
X156557142Y-42092857D01*
X156614285Y-42035714D01*
X156557142Y-41978571D01*
X156557142Y-42092857D01*
X155985714Y-42092857D02*
X155985714Y-41292857D01*
X155985714Y-40892857D02*
X156042857Y-40950000D01*
X155985714Y-41007142D01*
X155928571Y-40950000D01*
X155985714Y-40892857D01*
X155985714Y-41007142D01*
X155242857Y-42092857D02*
X155357142Y-42035714D01*
X155414285Y-41978571D01*
X155471428Y-41864285D01*
X155471428Y-41521428D01*
X155414285Y-41407142D01*
X155357142Y-41350000D01*
X155242857Y-41292857D01*
X155071428Y-41292857D01*
X154957142Y-41350000D01*
X154900000Y-41407142D01*
X154842857Y-41521428D01*
X154842857Y-41864285D01*
X154900000Y-41978571D01*
X154957142Y-42035714D01*
X155071428Y-42092857D01*
X155242857Y-42092857D01*
X153471428Y-40835714D02*
X154500000Y-42378571D01*
X153071428Y-41292857D02*
X153071428Y-42492857D01*
X153071428Y-41350000D02*
X152957142Y-41292857D01*
X152728571Y-41292857D01*
X152614285Y-41350000D01*
X152557142Y-41407142D01*
X152500000Y-41521428D01*
X152500000Y-41864285D01*
X152557142Y-41978571D01*
X152614285Y-42035714D01*
X152728571Y-42092857D01*
X152957142Y-42092857D01*
X153071428Y-42035714D01*
X152100000Y-41292857D02*
X151871428Y-42092857D01*
X151642857Y-41521428D01*
X151414285Y-42092857D01*
X151185714Y-41292857D01*
X150728571Y-42092857D02*
X150728571Y-41292857D01*
X150728571Y-41407142D02*
X150671428Y-41350000D01*
X150557142Y-41292857D01*
X150385714Y-41292857D01*
X150271428Y-41350000D01*
X150214285Y-41464285D01*
X150214285Y-42092857D01*
X150214285Y-41464285D02*
X150157142Y-41350000D01*
X150042857Y-41292857D01*
X149871428Y-41292857D01*
X149757142Y-41350000D01*
X149700000Y-41464285D01*
X149700000Y-42092857D01*
X149185714Y-41007142D02*
X149128571Y-40950000D01*
X149014285Y-40892857D01*
X148728571Y-40892857D01*
X148614285Y-40950000D01*
X148557142Y-41007142D01*
X148500000Y-41121428D01*
X148500000Y-41235714D01*
X148557142Y-41407142D01*
X149242857Y-42092857D01*
X148500000Y-42092857D01*
X148157142Y-41292857D02*
X147700000Y-41292857D01*
X147985714Y-42092857D02*
X147985714Y-41064285D01*
X147928571Y-40950000D01*
X147814285Y-40892857D01*
X147700000Y-40892857D01*
X146785714Y-42092857D02*
X146785714Y-41464285D01*
X146842857Y-41350000D01*
X146957142Y-41292857D01*
X147185714Y-41292857D01*
X147300000Y-41350000D01*
X146785714Y-42035714D02*
X146900000Y-42092857D01*
X147185714Y-42092857D01*
X147300000Y-42035714D01*
X147357142Y-41921428D01*
X147357142Y-41807142D01*
X147300000Y-41692857D01*
X147185714Y-41635714D01*
X146900000Y-41635714D01*
X146785714Y-41578571D01*
X146214285Y-41292857D02*
X146214285Y-42092857D01*
X146214285Y-41407142D02*
X146157142Y-41350000D01*
X146042857Y-41292857D01*
X145871428Y-41292857D01*
X145757142Y-41350000D01*
X145700000Y-41464285D01*
X145700000Y-42092857D01*
X140122023Y-46339000D02*
X138822023Y-46339000D01*
X139812500Y-48188095D02*
X139812500Y-46888095D01*
X139317261Y-46888095D01*
X139193452Y-46950000D01*
X139131547Y-47011904D01*
X139069642Y-47135714D01*
X139069642Y-47321428D01*
X139131547Y-47445238D01*
X139193452Y-47507142D01*
X139317261Y-47569047D01*
X139812500Y-47569047D01*
X138822023Y-46339000D02*
X137336309Y-46339000D01*
X138636309Y-46888095D02*
X138326785Y-48188095D01*
X138079166Y-47259523D01*
X137831547Y-48188095D01*
X137522023Y-46888095D01*
X137336309Y-46339000D02*
X135850595Y-46339000D01*
X137026785Y-48188095D02*
X137026785Y-46888095D01*
X136593452Y-47816666D01*
X136160119Y-46888095D01*
X136160119Y-48188095D01*
X135850595Y-46339000D02*
X134612500Y-46339000D01*
X134860119Y-48188095D02*
X135602976Y-48188095D01*
X135231547Y-48188095D02*
X135231547Y-46888095D01*
X135355357Y-47073809D01*
X135479166Y-47197619D01*
X135602976Y-47259523D01*
X140122023Y-43789000D02*
X138822023Y-43789000D01*
X139812500Y-45638095D02*
X139812500Y-44338095D01*
X139317261Y-44338095D01*
X139193452Y-44400000D01*
X139131547Y-44461904D01*
X139069642Y-44585714D01*
X139069642Y-44771428D01*
X139131547Y-44895238D01*
X139193452Y-44957142D01*
X139317261Y-45019047D01*
X139812500Y-45019047D01*
X138822023Y-43789000D02*
X137336309Y-43789000D01*
X138636309Y-44338095D02*
X138326785Y-45638095D01*
X138079166Y-44709523D01*
X137831547Y-45638095D01*
X137522023Y-44338095D01*
X137336309Y-43789000D02*
X135850595Y-43789000D01*
X137026785Y-45638095D02*
X137026785Y-44338095D01*
X136593452Y-45266666D01*
X136160119Y-44338095D01*
X136160119Y-45638095D01*
X135850595Y-43789000D02*
X134612500Y-43789000D01*
X135293452Y-44338095D02*
X135169642Y-44338095D01*
X135045833Y-44400000D01*
X134983928Y-44461904D01*
X134922023Y-44585714D01*
X134860119Y-44833333D01*
X134860119Y-45142857D01*
X134922023Y-45390476D01*
X134983928Y-45514285D01*
X135045833Y-45576190D01*
X135169642Y-45638095D01*
X135293452Y-45638095D01*
X135417261Y-45576190D01*
X135479166Y-45514285D01*
X135541071Y-45390476D01*
X135602976Y-45142857D01*
X135602976Y-44833333D01*
X135541071Y-44585714D01*
X135479166Y-44461904D01*
X135417261Y-44400000D01*
X135293452Y-44338095D01*
D10*
X138073571Y-41750000D02*
X138216428Y-41678571D01*
X138430714Y-41678571D01*
X138645000Y-41750000D01*
X138787857Y-41892857D01*
X138859285Y-42035714D01*
X138930714Y-42321428D01*
X138930714Y-42535714D01*
X138859285Y-42821428D01*
X138787857Y-42964285D01*
X138645000Y-43107142D01*
X138430714Y-43178571D01*
X138287857Y-43178571D01*
X138073571Y-43107142D01*
X138002142Y-43035714D01*
X138002142Y-42535714D01*
X138287857Y-42535714D01*
X137359285Y-43178571D02*
X137359285Y-41678571D01*
X136502142Y-43178571D01*
X136502142Y-41678571D01*
X135787857Y-43178571D02*
X135787857Y-41678571D01*
X135430714Y-41678571D01*
X135216428Y-41750000D01*
X135073571Y-41892857D01*
X135002142Y-42035714D01*
X134930714Y-42321428D01*
X134930714Y-42535714D01*
X135002142Y-42821428D01*
X135073571Y-42964285D01*
X135216428Y-43107142D01*
X135430714Y-43178571D01*
X135787857Y-43178571D01*
M02*
