G04 #@! TF.GenerationSoftware,KiCad,Pcbnew,(5.0.1-dev-70-gb7b125d83)*
G04 #@! TF.CreationDate,2018-10-12T17:46:44+02:00*
G04 #@! TF.ProjectId,pwm-fan-control,70776D2D66616E2D636F6E74726F6C2E,rev?*
G04 #@! TF.SameCoordinates,Original*
G04 #@! TF.FileFunction,Copper,L2,Bot,Signal*
G04 #@! TF.FilePolarity,Positive*
%FSLAX46Y46*%
G04 Gerber Fmt 4.6, Leading zero omitted, Abs format (unit mm)*
G04 Created by KiCad (PCBNEW (5.0.1-dev-70-gb7b125d83)) date 10/12/18 17:46:44*
%MOMM*%
%LPD*%
G01*
G04 APERTURE LIST*
G04 #@! TA.AperFunction,ComponentPad*
%ADD10O,1.700000X1.700000*%
G04 #@! TD*
G04 #@! TA.AperFunction,ComponentPad*
%ADD11R,1.700000X1.700000*%
G04 #@! TD*
G04 #@! TA.AperFunction,ViaPad*
%ADD12C,0.800000*%
G04 #@! TD*
G04 #@! TA.AperFunction,Conductor*
%ADD13C,0.400000*%
G04 #@! TD*
G04 #@! TA.AperFunction,Conductor*
%ADD14C,0.600000*%
G04 #@! TD*
G04 #@! TA.AperFunction,Conductor*
%ADD15C,0.200000*%
G04 #@! TD*
G04 #@! TA.AperFunction,Conductor*
%ADD16C,0.254000*%
G04 #@! TD*
G04 APERTURE END LIST*
D10*
G04 #@! TO.P,J4,2*
G04 #@! TO.N,/VFAN1*
X148050000Y-58850000D03*
D11*
G04 #@! TO.P,J4,1*
G04 #@! TO.N,GND*
X145510000Y-58850000D03*
G04 #@! TD*
G04 #@! TO.P,J1,1*
G04 #@! TO.N,GND*
X153860000Y-58850000D03*
D10*
G04 #@! TO.P,J1,2*
G04 #@! TO.N,/VFAN0*
X156400000Y-58850000D03*
G04 #@! TD*
D11*
G04 #@! TO.P,J2,1*
G04 #@! TO.N,GND*
X132650000Y-42500000D03*
D10*
G04 #@! TO.P,J2,2*
G04 #@! TO.N,/~PWM0*
X132650000Y-45040000D03*
G04 #@! TO.P,J2,3*
G04 #@! TO.N,/~PWM1*
X132650000Y-47580000D03*
G04 #@! TO.P,J2,4*
G04 #@! TO.N,VCCFan*
X132650000Y-50120000D03*
G04 #@! TD*
D12*
G04 #@! TO.N,GND*
X158800000Y-43600000D03*
X158500000Y-50000000D03*
X159000000Y-59500000D03*
X159000000Y-57500000D03*
X153100000Y-46500000D03*
X149000000Y-45400000D03*
X132300000Y-52400000D03*
X132200000Y-59300000D03*
X149900000Y-59400000D03*
X151400000Y-56100000D03*
X139650000Y-48850000D03*
X142700000Y-49950000D03*
X144550000Y-51700000D03*
X152900000Y-52350000D03*
G04 #@! TO.N,VCCFan*
X147800000Y-46100000D03*
X134550000Y-46500000D03*
G04 #@! TO.N,Net-(C4-Pad2)*
X144850000Y-46050000D03*
X142700000Y-48800000D03*
G04 #@! TO.N,Net-(Q2-Pad1)*
X150000000Y-46300000D03*
X146500000Y-46100000D03*
G04 #@! TO.N,Net-(R6-Pad2)*
X155800000Y-46200000D03*
X144000000Y-45300000D03*
G04 #@! TO.N,/VFAN1*
X153000000Y-50550000D03*
X148950000Y-56050000D03*
G04 #@! TD*
D13*
G04 #@! TO.N,GND*
X139650000Y-48850000D02*
X141200000Y-48850000D01*
X141200000Y-48850000D02*
X142300000Y-49950000D01*
X142300000Y-49950000D02*
X142700000Y-49950000D01*
D14*
G04 #@! TO.N,VCCFan*
X147300000Y-44300000D02*
X143100000Y-44300000D01*
X147800000Y-46100000D02*
X147800000Y-44800000D01*
X147800000Y-44800000D02*
X147300000Y-44300000D01*
X138900000Y-44300000D02*
X138450000Y-44750000D01*
X143100000Y-44300000D02*
X138900000Y-44300000D01*
X133929999Y-49270001D02*
X133250000Y-49950000D01*
D13*
X135500000Y-47450000D02*
X135500000Y-47700000D01*
X134550000Y-46500000D02*
X135500000Y-47450000D01*
D14*
X133929999Y-49270001D02*
X135500000Y-47700000D01*
X135500000Y-47700000D02*
X138450000Y-44750000D01*
D15*
G04 #@! TO.N,Net-(C4-Pad2)*
X143950000Y-46050000D02*
X143200000Y-46800000D01*
X144850000Y-46050000D02*
X143950000Y-46050000D01*
X143200000Y-47734315D02*
X143200000Y-46800000D01*
X142700000Y-48234315D02*
X143200000Y-47734315D01*
X142700000Y-48800000D02*
X142700000Y-48234315D01*
G04 #@! TO.N,Net-(Q2-Pad1)*
X150000000Y-46300000D02*
X149600001Y-46699999D01*
X149600001Y-46699999D02*
X149200000Y-47100000D01*
X149200000Y-47100000D02*
X147100000Y-47100000D01*
X147100000Y-47100000D02*
X146500000Y-46500000D01*
X146500000Y-46500000D02*
X146500000Y-46100000D01*
G04 #@! TO.N,Net-(R6-Pad2)*
X155234315Y-46200000D02*
X153784315Y-47650000D01*
X155800000Y-46200000D02*
X155234315Y-46200000D01*
X153784315Y-47650000D02*
X146800000Y-47650000D01*
X146800000Y-47650000D02*
X145650000Y-46500000D01*
X145650000Y-46500000D02*
X145650000Y-45600000D01*
X145650000Y-45600000D02*
X145350000Y-45300000D01*
X145350000Y-45300000D02*
X144000000Y-45300000D01*
D14*
G04 #@! TO.N,/VFAN1*
X152600001Y-50949999D02*
X150050001Y-50949999D01*
X153000000Y-50550000D02*
X152600001Y-50949999D01*
X150050001Y-50949999D02*
X148950000Y-52050000D01*
X148950000Y-52050000D02*
X148950000Y-56050000D01*
G04 #@! TD*
D16*
G04 #@! TO.N,GND*
G36*
X159498001Y-59998000D02*
X156980434Y-59998000D01*
X157320665Y-59770665D01*
X157602907Y-59348260D01*
X157702017Y-58850000D01*
X157602907Y-58351740D01*
X157320665Y-57929335D01*
X156898260Y-57647093D01*
X156525769Y-57573000D01*
X156274231Y-57573000D01*
X155901740Y-57647093D01*
X155479335Y-57929335D01*
X155345000Y-58130382D01*
X155345000Y-57873691D01*
X155248327Y-57640302D01*
X155069699Y-57461673D01*
X154836310Y-57365000D01*
X154145750Y-57365000D01*
X153987000Y-57523750D01*
X153987000Y-58723000D01*
X154007000Y-58723000D01*
X154007000Y-58977000D01*
X153987000Y-58977000D01*
X153987000Y-58997000D01*
X153733000Y-58997000D01*
X153733000Y-58977000D01*
X152533750Y-58977000D01*
X152375000Y-59135750D01*
X152375000Y-59826309D01*
X152446117Y-59998000D01*
X148630434Y-59998000D01*
X148970665Y-59770665D01*
X149252907Y-59348260D01*
X149352017Y-58850000D01*
X149252907Y-58351740D01*
X148970665Y-57929335D01*
X148887388Y-57873691D01*
X152375000Y-57873691D01*
X152375000Y-58564250D01*
X152533750Y-58723000D01*
X153733000Y-58723000D01*
X153733000Y-57523750D01*
X153574250Y-57365000D01*
X152883690Y-57365000D01*
X152650301Y-57461673D01*
X152471673Y-57640302D01*
X152375000Y-57873691D01*
X148887388Y-57873691D01*
X148548260Y-57647093D01*
X148175769Y-57573000D01*
X147924231Y-57573000D01*
X147551740Y-57647093D01*
X147129335Y-57929335D01*
X146995000Y-58130382D01*
X146995000Y-57873691D01*
X146898327Y-57640302D01*
X146719699Y-57461673D01*
X146486310Y-57365000D01*
X145795750Y-57365000D01*
X145637000Y-57523750D01*
X145637000Y-58723000D01*
X145657000Y-58723000D01*
X145657000Y-58977000D01*
X145637000Y-58977000D01*
X145637000Y-58997000D01*
X145383000Y-58997000D01*
X145383000Y-58977000D01*
X144183750Y-58977000D01*
X144025000Y-59135750D01*
X144025000Y-59826309D01*
X144096117Y-59998000D01*
X131502000Y-59998000D01*
X131502000Y-57873691D01*
X144025000Y-57873691D01*
X144025000Y-58564250D01*
X144183750Y-58723000D01*
X145383000Y-58723000D01*
X145383000Y-57523750D01*
X145224250Y-57365000D01*
X144533690Y-57365000D01*
X144300301Y-57461673D01*
X144121673Y-57640302D01*
X144025000Y-57873691D01*
X131502000Y-57873691D01*
X131502000Y-55885499D01*
X148123000Y-55885499D01*
X148123000Y-56214501D01*
X148248903Y-56518458D01*
X148481542Y-56751097D01*
X148785499Y-56877000D01*
X149114501Y-56877000D01*
X149418458Y-56751097D01*
X149651097Y-56518458D01*
X149777000Y-56214501D01*
X149777000Y-55885499D01*
X149677000Y-55644077D01*
X149677000Y-52351132D01*
X150351134Y-51676999D01*
X152528406Y-51676999D01*
X152600001Y-51691240D01*
X152671596Y-51676999D01*
X152671600Y-51676999D01*
X152883662Y-51634817D01*
X153124138Y-51474136D01*
X153164697Y-51413435D01*
X153227034Y-51351098D01*
X153468458Y-51251097D01*
X153701097Y-51018458D01*
X153827000Y-50714501D01*
X153827000Y-50385499D01*
X153701097Y-50081542D01*
X153468458Y-49848903D01*
X153164501Y-49723000D01*
X152835499Y-49723000D01*
X152531542Y-49848903D01*
X152298903Y-50081542D01*
X152240310Y-50222999D01*
X150121594Y-50222999D01*
X150050000Y-50208758D01*
X149978406Y-50222999D01*
X149978402Y-50222999D01*
X149766340Y-50265181D01*
X149525864Y-50425862D01*
X149485306Y-50486561D01*
X148486562Y-51485306D01*
X148425863Y-51525864D01*
X148265182Y-51766340D01*
X148223000Y-51978402D01*
X148223000Y-51978405D01*
X148208759Y-52050000D01*
X148223000Y-52121595D01*
X148223001Y-55644075D01*
X148123000Y-55885499D01*
X131502000Y-55885499D01*
X131502000Y-50700434D01*
X131729335Y-51040665D01*
X132151740Y-51322907D01*
X132524231Y-51397000D01*
X132775769Y-51397000D01*
X133148260Y-51322907D01*
X133570665Y-51040665D01*
X133852907Y-50618260D01*
X133913253Y-50314879D01*
X134494693Y-49733440D01*
X134494695Y-49733437D01*
X136064694Y-48163439D01*
X136064696Y-48163436D01*
X139014694Y-45213439D01*
X139014696Y-45213436D01*
X139201132Y-45027000D01*
X143217942Y-45027000D01*
X143173000Y-45135499D01*
X143173000Y-45464501D01*
X143298903Y-45768458D01*
X143392577Y-45862132D01*
X142864053Y-46390657D01*
X142820056Y-46420055D01*
X142790658Y-46464052D01*
X142790654Y-46464056D01*
X142703578Y-46594375D01*
X142662677Y-46800000D01*
X142673001Y-46851902D01*
X142673000Y-47516024D01*
X142364053Y-47824972D01*
X142320056Y-47854370D01*
X142290658Y-47898367D01*
X142290654Y-47898371D01*
X142203578Y-48028690D01*
X142179200Y-48151245D01*
X141998903Y-48331542D01*
X141873000Y-48635499D01*
X141873000Y-48964501D01*
X141998903Y-49268458D01*
X142231542Y-49501097D01*
X142535499Y-49627000D01*
X142864501Y-49627000D01*
X143168458Y-49501097D01*
X143401097Y-49268458D01*
X143527000Y-48964501D01*
X143527000Y-48635499D01*
X143401097Y-48331542D01*
X143374580Y-48305025D01*
X143535948Y-48143658D01*
X143579945Y-48114260D01*
X143609343Y-48070263D01*
X143609346Y-48070260D01*
X143696423Y-47939941D01*
X143702791Y-47907928D01*
X143727000Y-47786218D01*
X143727000Y-47786214D01*
X143737323Y-47734315D01*
X143727000Y-47682416D01*
X143727000Y-47018290D01*
X144168291Y-46577000D01*
X144207445Y-46577000D01*
X144381542Y-46751097D01*
X144685499Y-46877000D01*
X145014501Y-46877000D01*
X145213117Y-46794731D01*
X145270055Y-46879945D01*
X145314055Y-46909345D01*
X146390656Y-47985947D01*
X146420055Y-48029945D01*
X146464052Y-48059343D01*
X146464055Y-48059346D01*
X146546240Y-48114260D01*
X146594375Y-48146423D01*
X146748097Y-48177000D01*
X146748101Y-48177000D01*
X146800000Y-48187323D01*
X146851899Y-48177000D01*
X153732417Y-48177000D01*
X153784315Y-48187323D01*
X153836213Y-48177000D01*
X153836218Y-48177000D01*
X153989940Y-48146423D01*
X154164260Y-48029945D01*
X154193660Y-47985945D01*
X155305025Y-46874580D01*
X155331542Y-46901097D01*
X155635499Y-47027000D01*
X155964501Y-47027000D01*
X156268458Y-46901097D01*
X156501097Y-46668458D01*
X156627000Y-46364501D01*
X156627000Y-46035499D01*
X156501097Y-45731542D01*
X156268458Y-45498903D01*
X155964501Y-45373000D01*
X155635499Y-45373000D01*
X155331542Y-45498903D01*
X155151246Y-45679199D01*
X155060702Y-45697209D01*
X155028689Y-45703577D01*
X154898370Y-45790654D01*
X154898367Y-45790657D01*
X154854370Y-45820055D01*
X154824972Y-45864053D01*
X153566025Y-47123000D01*
X150174158Y-47123000D01*
X150468458Y-47001097D01*
X150701097Y-46768458D01*
X150827000Y-46464501D01*
X150827000Y-46135499D01*
X150701097Y-45831542D01*
X150468458Y-45598903D01*
X150164501Y-45473000D01*
X149835499Y-45473000D01*
X149531542Y-45598903D01*
X149298903Y-45831542D01*
X149173000Y-46135499D01*
X149173000Y-46381709D01*
X148981710Y-46573000D01*
X148496555Y-46573000D01*
X148501097Y-46568458D01*
X148627000Y-46264501D01*
X148627000Y-45935499D01*
X148527000Y-45694077D01*
X148527000Y-44871595D01*
X148541241Y-44800000D01*
X148527000Y-44728405D01*
X148527000Y-44728401D01*
X148484818Y-44516339D01*
X148324137Y-44275863D01*
X148263438Y-44235305D01*
X147864696Y-43836564D01*
X147824137Y-43775863D01*
X147583661Y-43615182D01*
X147371599Y-43573000D01*
X147371595Y-43573000D01*
X147300000Y-43558759D01*
X147228405Y-43573000D01*
X138971593Y-43573000D01*
X138899999Y-43558759D01*
X138828405Y-43573000D01*
X138828401Y-43573000D01*
X138616339Y-43615182D01*
X138375863Y-43775863D01*
X138335304Y-43836564D01*
X137986564Y-44185304D01*
X137986561Y-44185306D01*
X135554290Y-46617578D01*
X135377000Y-46440289D01*
X135377000Y-46335499D01*
X135251097Y-46031542D01*
X135018458Y-45798903D01*
X134714501Y-45673000D01*
X134385499Y-45673000D01*
X134081542Y-45798903D01*
X133848903Y-46031542D01*
X133723000Y-46335499D01*
X133723000Y-46664501D01*
X133848903Y-46968458D01*
X134081542Y-47201097D01*
X134385499Y-47327000D01*
X134490289Y-47327000D01*
X134667578Y-47504289D01*
X133466563Y-48705305D01*
X133466560Y-48705307D01*
X133212111Y-48959757D01*
X133148260Y-48917093D01*
X132810960Y-48850000D01*
X133148260Y-48782907D01*
X133570665Y-48500665D01*
X133852907Y-48078260D01*
X133952017Y-47580000D01*
X133852907Y-47081740D01*
X133570665Y-46659335D01*
X133148260Y-46377093D01*
X132810960Y-46310000D01*
X133148260Y-46242907D01*
X133570665Y-45960665D01*
X133852907Y-45538260D01*
X133952017Y-45040000D01*
X133852907Y-44541740D01*
X133570665Y-44119335D01*
X133369618Y-43985000D01*
X133626309Y-43985000D01*
X133859698Y-43888327D01*
X134038327Y-43709699D01*
X134135000Y-43476310D01*
X134135000Y-42785750D01*
X133976250Y-42627000D01*
X132777000Y-42627000D01*
X132777000Y-42647000D01*
X132523000Y-42647000D01*
X132523000Y-42627000D01*
X132503000Y-42627000D01*
X132503000Y-42373000D01*
X132523000Y-42373000D01*
X132523000Y-41173750D01*
X132777000Y-41173750D01*
X132777000Y-42373000D01*
X133976250Y-42373000D01*
X134135000Y-42214250D01*
X134135000Y-41523690D01*
X134038327Y-41290301D01*
X133859698Y-41111673D01*
X133626309Y-41015000D01*
X132935750Y-41015000D01*
X132777000Y-41173750D01*
X132523000Y-41173750D01*
X132364250Y-41015000D01*
X131673691Y-41015000D01*
X131502000Y-41086117D01*
X131502000Y-40502000D01*
X159498000Y-40502000D01*
X159498001Y-59998000D01*
X159498001Y-59998000D01*
G37*
X159498001Y-59998000D02*
X156980434Y-59998000D01*
X157320665Y-59770665D01*
X157602907Y-59348260D01*
X157702017Y-58850000D01*
X157602907Y-58351740D01*
X157320665Y-57929335D01*
X156898260Y-57647093D01*
X156525769Y-57573000D01*
X156274231Y-57573000D01*
X155901740Y-57647093D01*
X155479335Y-57929335D01*
X155345000Y-58130382D01*
X155345000Y-57873691D01*
X155248327Y-57640302D01*
X155069699Y-57461673D01*
X154836310Y-57365000D01*
X154145750Y-57365000D01*
X153987000Y-57523750D01*
X153987000Y-58723000D01*
X154007000Y-58723000D01*
X154007000Y-58977000D01*
X153987000Y-58977000D01*
X153987000Y-58997000D01*
X153733000Y-58997000D01*
X153733000Y-58977000D01*
X152533750Y-58977000D01*
X152375000Y-59135750D01*
X152375000Y-59826309D01*
X152446117Y-59998000D01*
X148630434Y-59998000D01*
X148970665Y-59770665D01*
X149252907Y-59348260D01*
X149352017Y-58850000D01*
X149252907Y-58351740D01*
X148970665Y-57929335D01*
X148887388Y-57873691D01*
X152375000Y-57873691D01*
X152375000Y-58564250D01*
X152533750Y-58723000D01*
X153733000Y-58723000D01*
X153733000Y-57523750D01*
X153574250Y-57365000D01*
X152883690Y-57365000D01*
X152650301Y-57461673D01*
X152471673Y-57640302D01*
X152375000Y-57873691D01*
X148887388Y-57873691D01*
X148548260Y-57647093D01*
X148175769Y-57573000D01*
X147924231Y-57573000D01*
X147551740Y-57647093D01*
X147129335Y-57929335D01*
X146995000Y-58130382D01*
X146995000Y-57873691D01*
X146898327Y-57640302D01*
X146719699Y-57461673D01*
X146486310Y-57365000D01*
X145795750Y-57365000D01*
X145637000Y-57523750D01*
X145637000Y-58723000D01*
X145657000Y-58723000D01*
X145657000Y-58977000D01*
X145637000Y-58977000D01*
X145637000Y-58997000D01*
X145383000Y-58997000D01*
X145383000Y-58977000D01*
X144183750Y-58977000D01*
X144025000Y-59135750D01*
X144025000Y-59826309D01*
X144096117Y-59998000D01*
X131502000Y-59998000D01*
X131502000Y-57873691D01*
X144025000Y-57873691D01*
X144025000Y-58564250D01*
X144183750Y-58723000D01*
X145383000Y-58723000D01*
X145383000Y-57523750D01*
X145224250Y-57365000D01*
X144533690Y-57365000D01*
X144300301Y-57461673D01*
X144121673Y-57640302D01*
X144025000Y-57873691D01*
X131502000Y-57873691D01*
X131502000Y-55885499D01*
X148123000Y-55885499D01*
X148123000Y-56214501D01*
X148248903Y-56518458D01*
X148481542Y-56751097D01*
X148785499Y-56877000D01*
X149114501Y-56877000D01*
X149418458Y-56751097D01*
X149651097Y-56518458D01*
X149777000Y-56214501D01*
X149777000Y-55885499D01*
X149677000Y-55644077D01*
X149677000Y-52351132D01*
X150351134Y-51676999D01*
X152528406Y-51676999D01*
X152600001Y-51691240D01*
X152671596Y-51676999D01*
X152671600Y-51676999D01*
X152883662Y-51634817D01*
X153124138Y-51474136D01*
X153164697Y-51413435D01*
X153227034Y-51351098D01*
X153468458Y-51251097D01*
X153701097Y-51018458D01*
X153827000Y-50714501D01*
X153827000Y-50385499D01*
X153701097Y-50081542D01*
X153468458Y-49848903D01*
X153164501Y-49723000D01*
X152835499Y-49723000D01*
X152531542Y-49848903D01*
X152298903Y-50081542D01*
X152240310Y-50222999D01*
X150121594Y-50222999D01*
X150050000Y-50208758D01*
X149978406Y-50222999D01*
X149978402Y-50222999D01*
X149766340Y-50265181D01*
X149525864Y-50425862D01*
X149485306Y-50486561D01*
X148486562Y-51485306D01*
X148425863Y-51525864D01*
X148265182Y-51766340D01*
X148223000Y-51978402D01*
X148223000Y-51978405D01*
X148208759Y-52050000D01*
X148223000Y-52121595D01*
X148223001Y-55644075D01*
X148123000Y-55885499D01*
X131502000Y-55885499D01*
X131502000Y-50700434D01*
X131729335Y-51040665D01*
X132151740Y-51322907D01*
X132524231Y-51397000D01*
X132775769Y-51397000D01*
X133148260Y-51322907D01*
X133570665Y-51040665D01*
X133852907Y-50618260D01*
X133913253Y-50314879D01*
X134494693Y-49733440D01*
X134494695Y-49733437D01*
X136064694Y-48163439D01*
X136064696Y-48163436D01*
X139014694Y-45213439D01*
X139014696Y-45213436D01*
X139201132Y-45027000D01*
X143217942Y-45027000D01*
X143173000Y-45135499D01*
X143173000Y-45464501D01*
X143298903Y-45768458D01*
X143392577Y-45862132D01*
X142864053Y-46390657D01*
X142820056Y-46420055D01*
X142790658Y-46464052D01*
X142790654Y-46464056D01*
X142703578Y-46594375D01*
X142662677Y-46800000D01*
X142673001Y-46851902D01*
X142673000Y-47516024D01*
X142364053Y-47824972D01*
X142320056Y-47854370D01*
X142290658Y-47898367D01*
X142290654Y-47898371D01*
X142203578Y-48028690D01*
X142179200Y-48151245D01*
X141998903Y-48331542D01*
X141873000Y-48635499D01*
X141873000Y-48964501D01*
X141998903Y-49268458D01*
X142231542Y-49501097D01*
X142535499Y-49627000D01*
X142864501Y-49627000D01*
X143168458Y-49501097D01*
X143401097Y-49268458D01*
X143527000Y-48964501D01*
X143527000Y-48635499D01*
X143401097Y-48331542D01*
X143374580Y-48305025D01*
X143535948Y-48143658D01*
X143579945Y-48114260D01*
X143609343Y-48070263D01*
X143609346Y-48070260D01*
X143696423Y-47939941D01*
X143702791Y-47907928D01*
X143727000Y-47786218D01*
X143727000Y-47786214D01*
X143737323Y-47734315D01*
X143727000Y-47682416D01*
X143727000Y-47018290D01*
X144168291Y-46577000D01*
X144207445Y-46577000D01*
X144381542Y-46751097D01*
X144685499Y-46877000D01*
X145014501Y-46877000D01*
X145213117Y-46794731D01*
X145270055Y-46879945D01*
X145314055Y-46909345D01*
X146390656Y-47985947D01*
X146420055Y-48029945D01*
X146464052Y-48059343D01*
X146464055Y-48059346D01*
X146546240Y-48114260D01*
X146594375Y-48146423D01*
X146748097Y-48177000D01*
X146748101Y-48177000D01*
X146800000Y-48187323D01*
X146851899Y-48177000D01*
X153732417Y-48177000D01*
X153784315Y-48187323D01*
X153836213Y-48177000D01*
X153836218Y-48177000D01*
X153989940Y-48146423D01*
X154164260Y-48029945D01*
X154193660Y-47985945D01*
X155305025Y-46874580D01*
X155331542Y-46901097D01*
X155635499Y-47027000D01*
X155964501Y-47027000D01*
X156268458Y-46901097D01*
X156501097Y-46668458D01*
X156627000Y-46364501D01*
X156627000Y-46035499D01*
X156501097Y-45731542D01*
X156268458Y-45498903D01*
X155964501Y-45373000D01*
X155635499Y-45373000D01*
X155331542Y-45498903D01*
X155151246Y-45679199D01*
X155060702Y-45697209D01*
X155028689Y-45703577D01*
X154898370Y-45790654D01*
X154898367Y-45790657D01*
X154854370Y-45820055D01*
X154824972Y-45864053D01*
X153566025Y-47123000D01*
X150174158Y-47123000D01*
X150468458Y-47001097D01*
X150701097Y-46768458D01*
X150827000Y-46464501D01*
X150827000Y-46135499D01*
X150701097Y-45831542D01*
X150468458Y-45598903D01*
X150164501Y-45473000D01*
X149835499Y-45473000D01*
X149531542Y-45598903D01*
X149298903Y-45831542D01*
X149173000Y-46135499D01*
X149173000Y-46381709D01*
X148981710Y-46573000D01*
X148496555Y-46573000D01*
X148501097Y-46568458D01*
X148627000Y-46264501D01*
X148627000Y-45935499D01*
X148527000Y-45694077D01*
X148527000Y-44871595D01*
X148541241Y-44800000D01*
X148527000Y-44728405D01*
X148527000Y-44728401D01*
X148484818Y-44516339D01*
X148324137Y-44275863D01*
X148263438Y-44235305D01*
X147864696Y-43836564D01*
X147824137Y-43775863D01*
X147583661Y-43615182D01*
X147371599Y-43573000D01*
X147371595Y-43573000D01*
X147300000Y-43558759D01*
X147228405Y-43573000D01*
X138971593Y-43573000D01*
X138899999Y-43558759D01*
X138828405Y-43573000D01*
X138828401Y-43573000D01*
X138616339Y-43615182D01*
X138375863Y-43775863D01*
X138335304Y-43836564D01*
X137986564Y-44185304D01*
X137986561Y-44185306D01*
X135554290Y-46617578D01*
X135377000Y-46440289D01*
X135377000Y-46335499D01*
X135251097Y-46031542D01*
X135018458Y-45798903D01*
X134714501Y-45673000D01*
X134385499Y-45673000D01*
X134081542Y-45798903D01*
X133848903Y-46031542D01*
X133723000Y-46335499D01*
X133723000Y-46664501D01*
X133848903Y-46968458D01*
X134081542Y-47201097D01*
X134385499Y-47327000D01*
X134490289Y-47327000D01*
X134667578Y-47504289D01*
X133466563Y-48705305D01*
X133466560Y-48705307D01*
X133212111Y-48959757D01*
X133148260Y-48917093D01*
X132810960Y-48850000D01*
X133148260Y-48782907D01*
X133570665Y-48500665D01*
X133852907Y-48078260D01*
X133952017Y-47580000D01*
X133852907Y-47081740D01*
X133570665Y-46659335D01*
X133148260Y-46377093D01*
X132810960Y-46310000D01*
X133148260Y-46242907D01*
X133570665Y-45960665D01*
X133852907Y-45538260D01*
X133952017Y-45040000D01*
X133852907Y-44541740D01*
X133570665Y-44119335D01*
X133369618Y-43985000D01*
X133626309Y-43985000D01*
X133859698Y-43888327D01*
X134038327Y-43709699D01*
X134135000Y-43476310D01*
X134135000Y-42785750D01*
X133976250Y-42627000D01*
X132777000Y-42627000D01*
X132777000Y-42647000D01*
X132523000Y-42647000D01*
X132523000Y-42627000D01*
X132503000Y-42627000D01*
X132503000Y-42373000D01*
X132523000Y-42373000D01*
X132523000Y-41173750D01*
X132777000Y-41173750D01*
X132777000Y-42373000D01*
X133976250Y-42373000D01*
X134135000Y-42214250D01*
X134135000Y-41523690D01*
X134038327Y-41290301D01*
X133859698Y-41111673D01*
X133626309Y-41015000D01*
X132935750Y-41015000D01*
X132777000Y-41173750D01*
X132523000Y-41173750D01*
X132364250Y-41015000D01*
X131673691Y-41015000D01*
X131502000Y-41086117D01*
X131502000Y-40502000D01*
X159498000Y-40502000D01*
X159498001Y-59998000D01*
G04 #@! TD*
M02*
